G04 Layer_Physical_Order=2*
G04 Layer_Color=16711680*
%FSAX24Y24*%
%MOIN*%
G70*
G01*
G75*
%ADD10C,0.0100*%
%ADD35C,0.0150*%
%ADD36C,0.0200*%
%ADD39C,0.0350*%
%ADD40C,0.0300*%
G04:AMPARAMS|DCode=41|XSize=59.1mil|YSize=78.7mil|CornerRadius=14.8mil|HoleSize=0mil|Usage=FLASHONLY|Rotation=90.000|XOffset=0mil|YOffset=0mil|HoleType=Round|Shape=RoundedRectangle|*
%AMROUNDEDRECTD41*
21,1,0.0591,0.0492,0,0,90.0*
21,1,0.0295,0.0787,0,0,90.0*
1,1,0.0295,0.0246,0.0148*
1,1,0.0295,0.0246,-0.0148*
1,1,0.0295,-0.0246,-0.0148*
1,1,0.0295,-0.0246,0.0148*
%
%ADD41ROUNDEDRECTD41*%
%ADD42O,0.0787X0.0591*%
%ADD43C,0.0700*%
%ADD44C,0.0050*%
%ADD45C,0.0866*%
%ADD46C,0.0413*%
%ADD47C,0.0413*%
%ADD48O,0.0591X0.0591*%
%ADD49C,0.0280*%
%ADD50C,0.0551*%
%ADD51R,0.0551X0.0551*%
%ADD52C,0.0300*%
G36*
X035117Y037667D02*
X035328Y037617D01*
X035528Y037533D01*
X035714Y037420D01*
X035879Y037279D01*
X036020Y037114D01*
X036133Y036928D01*
X036217Y036728D01*
X036267Y036517D01*
X036274Y036427D01*
X036283Y035920D01*
Y024037D01*
X036278Y023900D01*
X035703D01*
Y024910D01*
X035691Y024969D01*
X035658Y025018D01*
X034498Y026178D01*
X034449Y026211D01*
X034390Y026223D01*
X030409D01*
X030350Y026211D01*
X030301Y026178D01*
X029900Y025777D01*
X029889Y025779D01*
X029801Y025762D01*
X029727Y025712D01*
X029677Y025638D01*
X029659Y025550D01*
X029677Y025462D01*
X029727Y025388D01*
X029801Y025338D01*
X029889Y025321D01*
X029977Y025338D01*
X030051Y025388D01*
X030101Y025462D01*
X030118Y025550D01*
X030116Y025561D01*
X030472Y025917D01*
X034327D01*
X035397Y024847D01*
Y023900D01*
X035203D01*
Y024660D01*
X035191Y024719D01*
X035158Y024768D01*
X034268Y025658D01*
X034219Y025691D01*
X034160Y025703D01*
X033257D01*
X033251Y025712D01*
X033177Y025762D01*
X033089Y025779D01*
X033001Y025762D01*
X032927Y025712D01*
X032877Y025638D01*
X032859Y025550D01*
X032877Y025462D01*
X032927Y025388D01*
X033001Y025338D01*
X033089Y025321D01*
X033177Y025338D01*
X033251Y025388D01*
X033257Y025397D01*
X034097D01*
X034897Y024597D01*
Y023900D01*
X034753D01*
Y024380D01*
X034741Y024439D01*
X034708Y024488D01*
X034188Y025008D01*
X034139Y025041D01*
X034080Y025053D01*
X033258D01*
X033252Y025062D01*
X033178Y025112D01*
X033090Y025129D01*
X033002Y025112D01*
X032928Y025062D01*
X032878Y024988D01*
X032861Y024900D01*
X032878Y024812D01*
X032928Y024738D01*
X033002Y024688D01*
X033090Y024671D01*
X033178Y024688D01*
X033252Y024738D01*
X033258Y024747D01*
X034017D01*
X034447Y024317D01*
Y023900D01*
X034270D01*
Y024060D01*
X034258Y024119D01*
X034225Y024168D01*
X034118Y024275D01*
X034119Y024280D01*
X034102Y024368D01*
X034052Y024442D01*
X033978Y024492D01*
X033890Y024509D01*
X033802Y024492D01*
X033728Y024442D01*
X033678Y024368D01*
X033661Y024280D01*
X033678Y024192D01*
X033728Y024118D01*
X033802Y024068D01*
X033890Y024051D01*
X033907Y024054D01*
X033964Y023997D01*
Y023900D01*
X030240D01*
X030150Y023990D01*
X028590Y025550D01*
Y030440D01*
X027180Y031850D01*
X027045Y031715D01*
X028410Y030350D01*
Y025370D01*
X030090Y023690D01*
X033964D01*
Y017468D01*
X033954Y017462D01*
X033905Y017388D01*
X033887Y017300D01*
X033905Y017212D01*
X033954Y017138D01*
X034029Y017088D01*
X034117Y017071D01*
X034204Y017088D01*
X034279Y017138D01*
X034329Y017212D01*
X034333Y017233D01*
X034384D01*
X034388Y017212D01*
X034438Y017138D01*
X034512Y017088D01*
X034600Y017071D01*
X034688Y017088D01*
X034762Y017138D01*
X034796Y017188D01*
X034854D01*
X034888Y017138D01*
X034962Y017088D01*
X035050Y017071D01*
X035138Y017088D01*
X035212Y017138D01*
X035262Y017212D01*
X035275Y017275D01*
X035325D01*
X035338Y017212D01*
X035388Y017138D01*
X035462Y017088D01*
X035550Y017071D01*
X035638Y017088D01*
X035712Y017138D01*
X035762Y017212D01*
X035779Y017300D01*
X035762Y017388D01*
X035712Y017462D01*
X035703Y017468D01*
Y023690D01*
X036283D01*
Y014300D01*
X036284Y014295D01*
X036267Y014083D01*
X036217Y013872D01*
X036133Y013672D01*
X036020Y013486D01*
X035879Y013321D01*
X035714Y013180D01*
X035528Y013067D01*
X035328Y012983D01*
X035117Y012933D01*
X034905Y012916D01*
X034900Y012917D01*
X012900D01*
X012895Y012916D01*
X012683Y012933D01*
X012472Y012983D01*
X012272Y013067D01*
X012086Y013180D01*
X011921Y013321D01*
X011780Y013486D01*
X011667Y013672D01*
X011583Y013872D01*
X011533Y014083D01*
X011516Y014295D01*
X011517Y014300D01*
Y036300D01*
X011516Y036305D01*
X011533Y036517D01*
X011583Y036728D01*
X011667Y036928D01*
X011780Y037114D01*
X011921Y037279D01*
X012086Y037420D01*
X012272Y037533D01*
X012472Y037617D01*
X012683Y037667D01*
X012895Y037684D01*
X012900Y037683D01*
X024420D01*
Y035006D01*
X024370Y034981D01*
X024341Y035003D01*
X024265Y035035D01*
X024184Y035045D01*
X024103Y035035D01*
X024027Y035003D01*
X023962Y034953D01*
X023912Y034888D01*
X023881Y034813D01*
X023870Y034732D01*
X023881Y034650D01*
X023912Y034575D01*
X023962Y034510D01*
X024027Y034460D01*
X024103Y034428D01*
X024184Y034418D01*
X024265Y034428D01*
X024341Y034460D01*
X024370Y034482D01*
X024420Y034457D01*
Y034340D01*
X026595Y032165D01*
X026730Y032300D01*
X024600Y034430D01*
X024600Y037683D01*
X034900D01*
X034905Y037684D01*
X035117Y037667D01*
D02*
G37*
%LPC*%
G36*
X013513Y031600D02*
X013330D01*
Y031417D01*
X013368Y031425D01*
X013450Y031480D01*
X013506Y031562D01*
X013513Y031600D01*
D02*
G37*
G36*
X013760D02*
X013577D01*
X013585Y031562D01*
X013640Y031480D01*
X013722Y031425D01*
X013760Y031417D01*
Y031600D01*
D02*
G37*
G36*
X014063D02*
X013880D01*
Y031417D01*
X013918Y031425D01*
X014000Y031480D01*
X014056Y031562D01*
X014063Y031600D01*
D02*
G37*
G36*
X012660D02*
X012477D01*
X012485Y031562D01*
X012540Y031480D01*
X012622Y031425D01*
X012660Y031417D01*
Y031600D01*
D02*
G37*
G36*
X012413D02*
X012230D01*
Y031417D01*
X012268Y031425D01*
X012350Y031480D01*
X012406Y031562D01*
X012413Y031600D01*
D02*
G37*
G36*
X013210D02*
X013027D01*
X013034Y031562D01*
X013090Y031480D01*
X013172Y031425D01*
X013210Y031417D01*
Y031600D01*
D02*
G37*
G36*
X012963D02*
X012780D01*
Y031417D01*
X012818Y031425D01*
X012900Y031480D01*
X012955Y031562D01*
X012963Y031600D01*
D02*
G37*
G36*
X014310D02*
X014127D01*
X014135Y031562D01*
X014190Y031480D01*
X014272Y031425D01*
X014310Y031417D01*
Y031600D01*
D02*
G37*
G36*
X015960D02*
X015777D01*
X015784Y031562D01*
X015840Y031480D01*
X015922Y031425D01*
X015960Y031417D01*
Y031600D01*
D02*
G37*
G36*
X015713D02*
X015530D01*
Y031417D01*
X015568Y031425D01*
X015650Y031480D01*
X015705Y031562D01*
X015713Y031600D01*
D02*
G37*
G36*
X031710Y031823D02*
X031672Y031816D01*
X031590Y031760D01*
X031535Y031678D01*
X031527Y031640D01*
X031710D01*
Y031823D01*
D02*
G37*
G36*
X016263Y031600D02*
X016080D01*
Y031417D01*
X016118Y031425D01*
X016200Y031480D01*
X016256Y031562D01*
X016263Y031600D01*
D02*
G37*
G36*
X014860D02*
X014677D01*
X014684Y031562D01*
X014740Y031480D01*
X014822Y031425D01*
X014860Y031417D01*
Y031600D01*
D02*
G37*
G36*
X014613D02*
X014430D01*
Y031417D01*
X014468Y031425D01*
X014550Y031480D01*
X014605Y031562D01*
X014613Y031600D01*
D02*
G37*
G36*
X015410D02*
X015227D01*
X015235Y031562D01*
X015290Y031480D01*
X015372Y031425D01*
X015410Y031417D01*
Y031600D01*
D02*
G37*
G36*
X015163D02*
X014980D01*
Y031417D01*
X015018Y031425D01*
X015100Y031480D01*
X015156Y031562D01*
X015163Y031600D01*
D02*
G37*
G36*
X020340Y028950D02*
X020157D01*
X020164Y028912D01*
X020220Y028830D01*
X020302Y028774D01*
X020340Y028767D01*
Y028950D01*
D02*
G37*
G36*
X027900Y029344D02*
X027808Y029332D01*
X027723Y029296D01*
X027650Y029240D01*
X027594Y029167D01*
X027558Y029082D01*
X027546Y028990D01*
X027558Y028898D01*
X027594Y028813D01*
X027650Y028740D01*
X027723Y028684D01*
X027808Y028648D01*
X027900Y028636D01*
X027992Y028648D01*
X028077Y028684D01*
X028150Y028740D01*
X028206Y028813D01*
X028242Y028898D01*
X028254Y028990D01*
X028242Y029082D01*
X028206Y029167D01*
X028150Y029240D01*
X028077Y029296D01*
X027992Y029332D01*
X027900Y029344D01*
D02*
G37*
G36*
X020340Y029253D02*
X020302Y029246D01*
X020220Y029190D01*
X020164Y029108D01*
X020157Y029070D01*
X020340D01*
Y029253D01*
D02*
G37*
G36*
X020643Y028950D02*
X020460D01*
Y028767D01*
X020498Y028774D01*
X020580Y028830D01*
X020635Y028912D01*
X020643Y028950D01*
D02*
G37*
G36*
X023193Y027950D02*
X023010D01*
Y027767D01*
X023048Y027775D01*
X023130Y027830D01*
X023186Y027912D01*
X023193Y027950D01*
D02*
G37*
G36*
X022890D02*
X022707D01*
X022715Y027912D01*
X022770Y027830D01*
X022852Y027775D01*
X022890Y027767D01*
Y027950D01*
D02*
G37*
G36*
X023010Y028253D02*
Y028070D01*
X023193D01*
X023186Y028108D01*
X023130Y028190D01*
X023048Y028245D01*
X023010Y028253D01*
D02*
G37*
G36*
X022890D02*
X022852Y028245D01*
X022770Y028190D01*
X022715Y028108D01*
X022707Y028070D01*
X022890D01*
Y028253D01*
D02*
G37*
G36*
X031710Y031520D02*
X031527D01*
X031535Y031482D01*
X031590Y031400D01*
X031672Y031344D01*
X031710Y031337D01*
Y031520D01*
D02*
G37*
G36*
X024984Y033026D02*
X021221D01*
Y032404D01*
X021221Y032378D01*
X021181Y032355D01*
X021181Y032355D01*
X020918D01*
Y031627D01*
X020918Y031600D01*
X020877Y031576D01*
X020877Y031576D01*
X020201D01*
Y030821D01*
X025785D01*
Y031576D01*
X025230D01*
X025189Y031600D01*
X025189Y031627D01*
Y032355D01*
X025025D01*
X024984Y032378D01*
X024984Y032404D01*
Y033026D01*
D02*
G37*
G36*
X012110Y031600D02*
X011927D01*
X011934Y031562D01*
X011990Y031480D01*
X012072Y031425D01*
X012110Y031417D01*
Y031600D01*
D02*
G37*
G36*
X032013Y031520D02*
X031830D01*
Y031337D01*
X031868Y031344D01*
X031950Y031400D01*
X032006Y031482D01*
X032013Y031520D01*
D02*
G37*
G36*
X028251Y030341D02*
X027549D01*
Y029639D01*
X028251D01*
Y030341D01*
D02*
G37*
G36*
X020460Y029253D02*
Y029070D01*
X020643D01*
X020635Y029108D01*
X020580Y029190D01*
X020498Y029246D01*
X020460Y029253D01*
D02*
G37*
G36*
X030817Y032481D02*
X029327Y032477D01*
X029327Y031940D01*
X029849Y031940D01*
X030121Y031670D01*
X030570Y031670D01*
X031140Y031100D01*
X031140Y030320D01*
X030848Y030320D01*
X030645Y030530D01*
X029940Y030530D01*
X029700Y030290D01*
X029209D01*
X029147Y030223D01*
X029147Y029037D01*
X029213Y028970D01*
X029700Y028970D01*
X029910Y028760D01*
X030790D01*
X030940Y028910D01*
X031105D01*
X031140Y028875D01*
X031140Y028190D01*
X030090Y027140D01*
X029548D01*
X029552Y026593D01*
X031020Y026607D01*
Y026990D01*
X031620Y027590D01*
X031620Y028966D01*
X031655Y029001D01*
X032160Y029000D01*
X032160Y027590D01*
X032737Y027013D01*
X032734Y026600D01*
X034283Y026600D01*
X034280Y027140D01*
X033720Y027140D01*
X032640Y028220D01*
X032640Y028907D01*
X032676Y028942D01*
X032852Y028940D01*
X033029Y028760D01*
X033960Y028760D01*
X034170Y028970D01*
X034650Y028970D01*
X034740Y029060D01*
Y030230D01*
X034650Y030320D01*
X034140Y030320D01*
X033930Y030530D01*
X033058D01*
X032884Y030350D01*
X032640Y030350D01*
X032640Y031550D01*
X032994Y031904D01*
X033486Y031915D01*
X033486Y032427D01*
X031953Y032426D01*
X031953Y031881D01*
X032145Y031876D01*
X032145Y030355D01*
X032110Y030320D01*
X031590D01*
Y031220D01*
X031200Y031610D01*
X030817Y031994D01*
X030817Y032481D01*
D02*
G37*
G36*
X017430Y032115D02*
X017332Y032095D01*
X017250Y032040D01*
X017194Y031958D01*
X017175Y031860D01*
X017194Y031762D01*
X017250Y031680D01*
X018910Y030020D01*
X018992Y029964D01*
X019090Y029945D01*
X024450D01*
X024548Y029964D01*
X024630Y030020D01*
X024685Y030102D01*
X024705Y030200D01*
X024685Y030298D01*
X024630Y030380D01*
X024548Y030436D01*
X024450Y030455D01*
X019196D01*
X017610Y032040D01*
X017528Y032095D01*
X017430Y032115D01*
D02*
G37*
G36*
X031830Y031823D02*
Y031640D01*
X032013D01*
X032006Y031678D01*
X031950Y031760D01*
X031868Y031816D01*
X031830Y031823D01*
D02*
G37*
G36*
X015163Y032162D02*
X014980D01*
Y031979D01*
X015018Y031986D01*
X015100Y032042D01*
X015156Y032124D01*
X015163Y032162D01*
D02*
G37*
G36*
X014860D02*
X014677D01*
X014684Y032124D01*
X014740Y032042D01*
X014822Y031986D01*
X014860Y031979D01*
Y032162D01*
D02*
G37*
G36*
X015713D02*
X015530D01*
Y031979D01*
X015568Y031986D01*
X015650Y032042D01*
X015705Y032124D01*
X015713Y032162D01*
D02*
G37*
G36*
X015410D02*
X015227D01*
X015235Y032124D01*
X015290Y032042D01*
X015372Y031986D01*
X015410Y031979D01*
Y032162D01*
D02*
G37*
G36*
X012413D02*
X012230D01*
Y031979D01*
X012268Y031986D01*
X012350Y032042D01*
X012406Y032124D01*
X012413Y032162D01*
D02*
G37*
G36*
X012110D02*
X011927D01*
X011934Y032124D01*
X011990Y032042D01*
X012072Y031986D01*
X012110Y031979D01*
Y032162D01*
D02*
G37*
G36*
X012963D02*
X012780D01*
Y031979D01*
X012818Y031986D01*
X012900Y032042D01*
X012955Y032124D01*
X012963Y032162D01*
D02*
G37*
G36*
X012660D02*
X012477D01*
X012485Y032124D01*
X012540Y032042D01*
X012622Y031986D01*
X012660Y031979D01*
Y032162D01*
D02*
G37*
G36*
X014063Y032170D02*
X013880D01*
Y031987D01*
X013918Y031995D01*
X014000Y032050D01*
X014056Y032132D01*
X014063Y032170D01*
D02*
G37*
G36*
X013760D02*
X013577D01*
X013585Y032132D01*
X013640Y032050D01*
X013722Y031995D01*
X013760Y031987D01*
Y032170D01*
D02*
G37*
G36*
X014613D02*
X014430D01*
Y031987D01*
X014468Y031995D01*
X014550Y032050D01*
X014605Y032132D01*
X014613Y032170D01*
D02*
G37*
G36*
X014310D02*
X014127D01*
X014135Y032132D01*
X014190Y032050D01*
X014272Y031995D01*
X014310Y031987D01*
Y032170D01*
D02*
G37*
G36*
X016263Y032162D02*
X016080D01*
Y031979D01*
X016118Y031986D01*
X016200Y032042D01*
X016256Y032124D01*
X016263Y032162D01*
D02*
G37*
G36*
X015960D02*
X015777D01*
X015784Y032124D01*
X015840Y032042D01*
X015922Y031986D01*
X015960Y031979D01*
Y032162D01*
D02*
G37*
G36*
X013513Y032170D02*
X013330D01*
Y031987D01*
X013368Y031995D01*
X013450Y032050D01*
X013506Y032132D01*
X013513Y032170D01*
D02*
G37*
G36*
X013210D02*
X013027D01*
X013034Y032132D01*
X013090Y032050D01*
X013172Y031995D01*
X013210Y031987D01*
Y032170D01*
D02*
G37*
G36*
X013330Y031903D02*
Y031720D01*
X013513D01*
X013506Y031758D01*
X013450Y031840D01*
X013368Y031895D01*
X013330Y031903D01*
D02*
G37*
G36*
X013210D02*
X013172Y031895D01*
X013090Y031840D01*
X013034Y031758D01*
X013027Y031720D01*
X013210D01*
Y031903D01*
D02*
G37*
G36*
X013880D02*
Y031720D01*
X014063D01*
X014056Y031758D01*
X014000Y031840D01*
X013918Y031895D01*
X013880Y031903D01*
D02*
G37*
G36*
X013760D02*
X013722Y031895D01*
X013640Y031840D01*
X013585Y031758D01*
X013577Y031720D01*
X013760D01*
Y031903D01*
D02*
G37*
G36*
X012230D02*
Y031720D01*
X012413D01*
X012406Y031758D01*
X012350Y031840D01*
X012268Y031895D01*
X012230Y031903D01*
D02*
G37*
G36*
X012110D02*
X012072Y031895D01*
X011990Y031840D01*
X011934Y031758D01*
X011927Y031720D01*
X012110D01*
Y031903D01*
D02*
G37*
G36*
X012780D02*
Y031720D01*
X012963D01*
X012955Y031758D01*
X012900Y031840D01*
X012818Y031895D01*
X012780Y031903D01*
D02*
G37*
G36*
X012660D02*
X012622Y031895D01*
X012540Y031840D01*
X012485Y031758D01*
X012477Y031720D01*
X012660D01*
Y031903D01*
D02*
G37*
G36*
X015530D02*
Y031720D01*
X015713D01*
X015705Y031758D01*
X015650Y031840D01*
X015568Y031895D01*
X015530Y031903D01*
D02*
G37*
G36*
X015410D02*
X015372Y031895D01*
X015290Y031840D01*
X015235Y031758D01*
X015227Y031720D01*
X015410D01*
Y031903D01*
D02*
G37*
G36*
X016080D02*
Y031720D01*
X016263D01*
X016256Y031758D01*
X016200Y031840D01*
X016118Y031895D01*
X016080Y031903D01*
D02*
G37*
G36*
X015960D02*
X015922Y031895D01*
X015840Y031840D01*
X015784Y031758D01*
X015777Y031720D01*
X015960D01*
Y031903D01*
D02*
G37*
G36*
X014430D02*
Y031720D01*
X014613D01*
X014605Y031758D01*
X014550Y031840D01*
X014468Y031895D01*
X014430Y031903D01*
D02*
G37*
G36*
X014310D02*
X014272Y031895D01*
X014190Y031840D01*
X014135Y031758D01*
X014127Y031720D01*
X014310D01*
Y031903D01*
D02*
G37*
G36*
X014980D02*
Y031720D01*
X015163D01*
X015156Y031758D01*
X015100Y031840D01*
X015018Y031895D01*
X014980Y031903D01*
D02*
G37*
G36*
X014860D02*
X014822Y031895D01*
X014740Y031840D01*
X014684Y031758D01*
X014677Y031720D01*
X014860D01*
Y031903D01*
D02*
G37*
G36*
X027900Y028344D02*
X027808Y028332D01*
X027723Y028296D01*
X027650Y028240D01*
X027594Y028167D01*
X027558Y028082D01*
X027546Y027990D01*
X027558Y027898D01*
X027594Y027813D01*
X027650Y027740D01*
X027723Y027684D01*
X027808Y027648D01*
X027900Y027636D01*
X027992Y027648D01*
X028077Y027684D01*
X028150Y027740D01*
X028206Y027813D01*
X028242Y027898D01*
X028254Y027990D01*
X028242Y028082D01*
X028206Y028167D01*
X028150Y028240D01*
X028077Y028296D01*
X027992Y028332D01*
X027900Y028344D01*
D02*
G37*
G36*
X022143Y017420D02*
X021960D01*
Y017237D01*
X021998Y017244D01*
X022080Y017300D01*
X022136Y017382D01*
X022143Y017420D01*
D02*
G37*
G36*
X021840D02*
X021657D01*
X021665Y017382D01*
X021720Y017300D01*
X021802Y017244D01*
X021840Y017237D01*
Y017420D01*
D02*
G37*
G36*
X014406Y018065D02*
X013914D01*
X013827Y018047D01*
X013753Y017998D01*
X013704Y017925D01*
X013687Y017838D01*
Y017542D01*
X013704Y017455D01*
X013753Y017382D01*
X013827Y017333D01*
X013914Y017315D01*
X014406D01*
X014493Y017333D01*
X014567Y017382D01*
X014616Y017455D01*
X014633Y017542D01*
Y017838D01*
X014616Y017925D01*
X014567Y017998D01*
X014493Y018047D01*
X014406Y018065D01*
D02*
G37*
G36*
X024261Y017520D02*
X024020D01*
Y017279D01*
X024040Y017281D01*
X024115Y017312D01*
X024179Y017361D01*
X024228Y017425D01*
X024259Y017500D01*
X024261Y017520D01*
D02*
G37*
G36*
X017901Y016700D02*
X017718D01*
Y016517D01*
X017756Y016524D01*
X017838Y016580D01*
X017893Y016662D01*
X017901Y016700D01*
D02*
G37*
G36*
X017598D02*
X017415D01*
X017422Y016662D01*
X017478Y016580D01*
X017560Y016524D01*
X017598Y016517D01*
Y016700D01*
D02*
G37*
G36*
X017718Y017003D02*
Y016820D01*
X017901D01*
X017893Y016858D01*
X017838Y016940D01*
X017756Y016996D01*
X017718Y017003D01*
D02*
G37*
G36*
X017598D02*
X017560Y016996D01*
X017478Y016940D01*
X017422Y016858D01*
X017415Y016820D01*
X017598D01*
Y017003D01*
D02*
G37*
G36*
X026130Y019580D02*
X025947D01*
X025954Y019542D01*
X026010Y019460D01*
X026092Y019404D01*
X026130Y019397D01*
Y019580D01*
D02*
G37*
G36*
X018605Y019259D02*
X018517Y019242D01*
X018443Y019192D01*
X018393Y019118D01*
X018375Y019030D01*
X018393Y018942D01*
X018443Y018868D01*
X018452Y018862D01*
Y017415D01*
X018463Y017357D01*
X018497Y017307D01*
X019832Y015972D01*
X019881Y015939D01*
X019940Y015927D01*
X025790D01*
X025849Y015939D01*
X025898Y015972D01*
X028549Y018623D01*
X028560Y018621D01*
X028648Y018638D01*
X028722Y018688D01*
X028772Y018762D01*
X028789Y018850D01*
X028772Y018938D01*
X028722Y019012D01*
X028648Y019062D01*
X028560Y019079D01*
X028472Y019062D01*
X028398Y019012D01*
X028348Y018938D01*
X028331Y018850D01*
X028333Y018839D01*
X025727Y016233D01*
X020003D01*
X018758Y017479D01*
Y018862D01*
X018767Y018868D01*
X018817Y018942D01*
X018834Y019030D01*
X018817Y019118D01*
X018767Y019192D01*
X018693Y019242D01*
X018605Y019259D01*
D02*
G37*
G36*
X028440Y019959D02*
X028352Y019942D01*
X028278Y019892D01*
X028228Y019818D01*
X028211Y019730D01*
X028219Y019689D01*
X025237Y016707D01*
X020693D01*
X020021Y017379D01*
X020029Y017420D01*
X020012Y017508D01*
X019962Y017582D01*
X019888Y017632D01*
X019800Y017649D01*
X019712Y017632D01*
X019638Y017582D01*
X019588Y017508D01*
X019571Y017420D01*
X019588Y017332D01*
X019638Y017258D01*
X019712Y017208D01*
X019800Y017191D01*
X019841Y017199D01*
X020550Y016490D01*
X020591Y016462D01*
X020640Y016453D01*
X025290D01*
X025339Y016462D01*
X025380Y016490D01*
X028399Y019509D01*
X028440Y019501D01*
X028528Y019518D01*
X028602Y019568D01*
X028652Y019642D01*
X028669Y019730D01*
X028652Y019818D01*
X028602Y019892D01*
X028528Y019942D01*
X028440Y019959D01*
D02*
G37*
G36*
X026433Y019580D02*
X026250D01*
Y019397D01*
X026288Y019404D01*
X026370Y019460D01*
X026425Y019542D01*
X026433Y019580D01*
D02*
G37*
G36*
X021960Y017723D02*
Y017540D01*
X022143D01*
X022136Y017578D01*
X022080Y017660D01*
X021998Y017716D01*
X021960Y017723D01*
D02*
G37*
G36*
X021840D02*
X021802Y017716D01*
X021720Y017660D01*
X021665Y017578D01*
X021657Y017540D01*
X021840D01*
Y017723D01*
D02*
G37*
G36*
X030055Y019069D02*
X029967Y019052D01*
X029893Y019002D01*
X029843Y018928D01*
X029826Y018842D01*
X026747Y015763D01*
X020448D01*
X020442Y015772D01*
X020368Y015822D01*
X020280Y015839D01*
X020192Y015822D01*
X020118Y015772D01*
X020068Y015698D01*
X020051Y015610D01*
X020068Y015522D01*
X020118Y015448D01*
X020192Y015398D01*
X020280Y015381D01*
X020368Y015398D01*
X020442Y015448D01*
X020448Y015457D01*
X026810D01*
X026869Y015469D01*
X026918Y015502D01*
X030032Y018615D01*
X030055Y018611D01*
X030143Y018628D01*
X030217Y018678D01*
X030267Y018752D01*
X030284Y018840D01*
X030267Y018928D01*
X030217Y019002D01*
X030143Y019052D01*
X030055Y019069D01*
D02*
G37*
G36*
X031329Y019009D02*
X031242Y018991D01*
X031167Y018942D01*
X031117Y018867D01*
X031100Y018779D01*
X031102Y018768D01*
X026957Y014623D01*
X019898D01*
X019892Y014632D01*
X019818Y014682D01*
X019730Y014699D01*
X019642Y014682D01*
X019568Y014632D01*
X019518Y014558D01*
X019501Y014470D01*
X019518Y014382D01*
X019568Y014308D01*
X019642Y014258D01*
X019730Y014241D01*
X019818Y014258D01*
X019892Y014308D01*
X019898Y014317D01*
X027020D01*
X027079Y014329D01*
X027128Y014362D01*
X031318Y018552D01*
X031329Y018550D01*
X031417Y018567D01*
X031492Y018617D01*
X031541Y018692D01*
X031559Y018779D01*
X031541Y018867D01*
X031492Y018942D01*
X031417Y018991D01*
X031329Y019009D01*
D02*
G37*
G36*
X013270Y015373D02*
X013133Y015360D01*
X013001Y015320D01*
X012879Y015255D01*
X012773Y015167D01*
X012685Y015061D01*
X012620Y014939D01*
X012580Y014807D01*
X012567Y014670D01*
X012580Y014533D01*
X012620Y014401D01*
X012685Y014279D01*
X012773Y014173D01*
X012879Y014085D01*
X013001Y014020D01*
X013133Y013980D01*
X013270Y013967D01*
X013407Y013980D01*
X013539Y014020D01*
X013661Y014085D01*
X013767Y014173D01*
X013855Y014279D01*
X013920Y014401D01*
X013960Y014533D01*
X013973Y014670D01*
X013960Y014807D01*
X013920Y014939D01*
X013855Y015061D01*
X013767Y015167D01*
X013661Y015255D01*
X013539Y015320D01*
X013407Y015360D01*
X013270Y015373D01*
D02*
G37*
G36*
X017166Y014266D02*
X015065D01*
Y013354D01*
X017166D01*
Y014266D01*
D02*
G37*
G36*
X032010Y015279D02*
X031914Y015260D01*
X031833Y015206D01*
X031779Y015125D01*
X031760Y015029D01*
X031779Y014934D01*
X031833Y014853D01*
X031914Y014799D01*
X032010Y014780D01*
X032106Y014799D01*
X032187Y014853D01*
X032241Y014934D01*
X032260Y015029D01*
X032241Y015125D01*
X032187Y015206D01*
X032106Y015260D01*
X032010Y015279D01*
D02*
G37*
G36*
X034520Y015373D02*
X034383Y015360D01*
X034251Y015320D01*
X034129Y015255D01*
X034023Y015167D01*
X033935Y015061D01*
X033870Y014939D01*
X033830Y014807D01*
X033817Y014670D01*
X033830Y014533D01*
X033870Y014401D01*
X033935Y014279D01*
X034023Y014173D01*
X034129Y014085D01*
X034251Y014020D01*
X034383Y013980D01*
X034520Y013967D01*
X034657Y013980D01*
X034789Y014020D01*
X034911Y014085D01*
X035017Y014173D01*
X035105Y014279D01*
X035170Y014401D01*
X035210Y014533D01*
X035223Y014670D01*
X035210Y014807D01*
X035170Y014939D01*
X035105Y015061D01*
X035017Y015167D01*
X034911Y015255D01*
X034789Y015320D01*
X034657Y015360D01*
X034520Y015373D01*
D02*
G37*
G36*
X030880Y013929D02*
X030769Y013914D01*
X030666Y013871D01*
X030577Y013803D01*
X030509Y013714D01*
X030466Y013611D01*
X030451Y013500D01*
X030466Y013389D01*
X030509Y013286D01*
X030577Y013197D01*
X030666Y013129D01*
X030769Y013086D01*
X030880Y013071D01*
X030991Y013086D01*
X031094Y013129D01*
X031183Y013197D01*
X031251Y013286D01*
X031294Y013389D01*
X031309Y013500D01*
X031294Y013611D01*
X031251Y013714D01*
X031183Y013803D01*
X031094Y013871D01*
X030991Y013914D01*
X030880Y013929D01*
D02*
G37*
G36*
X028880D02*
X028769Y013914D01*
X028666Y013871D01*
X028577Y013803D01*
X028509Y013714D01*
X028466Y013611D01*
X028451Y013500D01*
X028466Y013389D01*
X028509Y013286D01*
X028577Y013197D01*
X028666Y013129D01*
X028769Y013086D01*
X028880Y013071D01*
X028991Y013086D01*
X029094Y013129D01*
X029183Y013197D01*
X029251Y013286D01*
X029294Y013389D01*
X029309Y013500D01*
X029294Y013611D01*
X029251Y013714D01*
X029183Y013803D01*
X029094Y013871D01*
X028991Y013914D01*
X028880Y013929D01*
D02*
G37*
G36*
X032880D02*
X032769Y013914D01*
X032666Y013871D01*
X032577Y013803D01*
X032509Y013714D01*
X032466Y013611D01*
X032451Y013500D01*
X032466Y013389D01*
X032509Y013286D01*
X032577Y013197D01*
X032666Y013129D01*
X032769Y013086D01*
X032880Y013071D01*
X032991Y013086D01*
X033094Y013129D01*
X033183Y013197D01*
X033251Y013286D01*
X033294Y013389D01*
X033309Y013500D01*
X033294Y013611D01*
X033251Y013714D01*
X033183Y013803D01*
X033094Y013871D01*
X032991Y013914D01*
X032880Y013929D01*
D02*
G37*
G36*
X031880D02*
X031769Y013914D01*
X031666Y013871D01*
X031577Y013803D01*
X031509Y013714D01*
X031466Y013611D01*
X031451Y013500D01*
X031466Y013389D01*
X031509Y013286D01*
X031577Y013197D01*
X031666Y013129D01*
X031769Y013086D01*
X031880Y013071D01*
X031991Y013086D01*
X032094Y013129D01*
X032183Y013197D01*
X032251Y013286D01*
X032294Y013389D01*
X032309Y013500D01*
X032294Y013611D01*
X032251Y013714D01*
X032183Y013803D01*
X032094Y013871D01*
X031991Y013914D01*
X031880Y013929D01*
D02*
G37*
G36*
X030320Y015929D02*
X030232Y015912D01*
X030158Y015862D01*
X030108Y015788D01*
X030091Y015700D01*
X030093Y015689D01*
X029772Y015368D01*
X029739Y015319D01*
X029727Y015260D01*
Y013897D01*
X029666Y013871D01*
X029577Y013803D01*
X029509Y013714D01*
X029466Y013611D01*
X029451Y013500D01*
X029466Y013389D01*
X029509Y013286D01*
X029577Y013197D01*
X029666Y013129D01*
X029769Y013086D01*
X029880Y013071D01*
X029991Y013086D01*
X030094Y013129D01*
X030183Y013197D01*
X030251Y013286D01*
X030294Y013389D01*
X030309Y013500D01*
X030294Y013611D01*
X030251Y013714D01*
X030183Y013803D01*
X030094Y013871D01*
X030033Y013897D01*
Y015197D01*
X030309Y015473D01*
X030320Y015471D01*
X030408Y015488D01*
X030482Y015538D01*
X030532Y015612D01*
X030549Y015700D01*
X030532Y015788D01*
X030482Y015862D01*
X030408Y015912D01*
X030320Y015929D01*
D02*
G37*
G36*
X026790Y015333D02*
Y015150D01*
X026973D01*
X026965Y015188D01*
X026910Y015270D01*
X026828Y015325D01*
X026790Y015333D01*
D02*
G37*
G36*
X014258Y017063D02*
X014062D01*
X013965Y017051D01*
X013875Y017013D01*
X013797Y016954D01*
X013738Y016877D01*
X013701Y016787D01*
X013688Y016690D01*
X013701Y016593D01*
X013738Y016503D01*
X013797Y016426D01*
X013875Y016367D01*
X013965Y016329D01*
X014062Y016317D01*
X014258D01*
X014355Y016329D01*
X014445Y016367D01*
X014523Y016426D01*
X014582Y016503D01*
X014619Y016593D01*
X014632Y016690D01*
X014619Y016787D01*
X014582Y016877D01*
X014523Y016954D01*
X014445Y017013D01*
X014355Y017051D01*
X014258Y017063D01*
D02*
G37*
G36*
X032010Y016470D02*
X031914Y016451D01*
X031833Y016397D01*
X031779Y016316D01*
X031760Y016220D01*
X031779Y016124D01*
X031833Y016043D01*
X031914Y015989D01*
X032010Y015970D01*
X032106Y015989D01*
X032187Y016043D01*
X032241Y016124D01*
X032260Y016220D01*
X032241Y016316D01*
X032187Y016397D01*
X032106Y016451D01*
X032010Y016470D01*
D02*
G37*
G36*
X026973Y015030D02*
X026790D01*
Y014847D01*
X026828Y014855D01*
X026910Y014910D01*
X026965Y014992D01*
X026973Y015030D01*
D02*
G37*
G36*
X026670D02*
X026487D01*
X026495Y014992D01*
X026550Y014910D01*
X026632Y014855D01*
X026670Y014847D01*
Y015030D01*
D02*
G37*
G36*
Y015333D02*
X026632Y015325D01*
X026550Y015270D01*
X026495Y015188D01*
X026487Y015150D01*
X026670D01*
Y015333D01*
D02*
G37*
G36*
X016110Y019139D02*
X016022Y019122D01*
X015948Y019072D01*
X015898Y018998D01*
X015881Y018910D01*
X015898Y018822D01*
X015948Y018748D01*
X015957Y018742D01*
Y017224D01*
X015969Y017165D01*
X016002Y017116D01*
X018096Y015022D01*
X018145Y014989D01*
X018204Y014977D01*
X025372D01*
X025378Y014968D01*
X025452Y014918D01*
X025540Y014901D01*
X025628Y014918D01*
X025702Y014968D01*
X025752Y015042D01*
X025769Y015130D01*
X025752Y015218D01*
X025702Y015292D01*
X025628Y015342D01*
X025540Y015359D01*
X025452Y015342D01*
X025378Y015292D01*
X025372Y015283D01*
X018267D01*
X016263Y017287D01*
Y018742D01*
X016272Y018748D01*
X016322Y018822D01*
X016339Y018910D01*
X016322Y018998D01*
X016272Y019072D01*
X016198Y019122D01*
X016110Y019139D01*
D02*
G37*
G36*
X026130Y019883D02*
X026092Y019876D01*
X026010Y019820D01*
X025954Y019738D01*
X025947Y019700D01*
X026130D01*
Y019883D01*
D02*
G37*
G36*
X024918Y025953D02*
X024722D01*
X024625Y025941D01*
X024535Y025903D01*
X024457Y025844D01*
X024398Y025767D01*
X024361Y025677D01*
X024348Y025580D01*
X024361Y025483D01*
X024398Y025393D01*
X024457Y025316D01*
X024535Y025257D01*
X024625Y025219D01*
X024722Y025207D01*
X024918D01*
X025015Y025219D01*
X025105Y025257D01*
X025183Y025316D01*
X025242Y025393D01*
X025279Y025483D01*
X025292Y025580D01*
X025279Y025677D01*
X025242Y025767D01*
X025183Y025844D01*
X025105Y025903D01*
X025015Y025941D01*
X024918Y025953D01*
D02*
G37*
G36*
X013549Y025490D02*
X013110D01*
Y025150D01*
X013296D01*
X013393Y025169D01*
X013475Y025224D01*
X013529Y025306D01*
X013549Y025402D01*
Y025490D01*
D02*
G37*
G36*
X013296Y025950D02*
X013110D01*
Y025610D01*
X013549D01*
Y025698D01*
X013529Y025794D01*
X013475Y025876D01*
X013393Y025931D01*
X013296Y025950D01*
D02*
G37*
G36*
X012990D02*
X012804D01*
X012707Y025931D01*
X012625Y025876D01*
X012571Y025794D01*
X012551Y025698D01*
Y025610D01*
X012990D01*
Y025950D01*
D02*
G37*
G36*
X021540Y024593D02*
Y024410D01*
X021723D01*
X021716Y024448D01*
X021660Y024530D01*
X021578Y024585D01*
X021540Y024593D01*
D02*
G37*
G36*
X021420D02*
X021382Y024585D01*
X021300Y024530D01*
X021244Y024448D01*
X021237Y024410D01*
X021420D01*
Y024593D01*
D02*
G37*
G36*
X012990Y025490D02*
X012551D01*
Y025402D01*
X012571Y025306D01*
X012625Y025224D01*
X012707Y025169D01*
X012804Y025150D01*
X012990D01*
Y025490D01*
D02*
G37*
G36*
X027900Y025344D02*
X027808Y025332D01*
X027723Y025296D01*
X027650Y025240D01*
X027594Y025167D01*
X027558Y025082D01*
X027546Y024990D01*
X027558Y024898D01*
X027594Y024813D01*
X027650Y024740D01*
X027723Y024684D01*
X027808Y024648D01*
X027900Y024636D01*
X027992Y024648D01*
X028077Y024684D01*
X028150Y024740D01*
X028206Y024813D01*
X028242Y024898D01*
X028254Y024990D01*
X028242Y025082D01*
X028206Y025167D01*
X028150Y025240D01*
X028077Y025296D01*
X027992Y025332D01*
X027900Y025344D01*
D02*
G37*
G36*
X023793Y027853D02*
X023696Y027841D01*
X023606Y027803D01*
X023528Y027744D01*
X023469Y027666D01*
X023432Y027576D01*
X023419Y027480D01*
X023432Y027383D01*
X023469Y027293D01*
X023528Y027216D01*
X023606Y027156D01*
X023696Y027119D01*
X023793Y027106D01*
X023889Y027119D01*
X023979Y027156D01*
X024057Y027216D01*
X024116Y027293D01*
X024153Y027383D01*
X024166Y027480D01*
X024153Y027576D01*
X024116Y027666D01*
X024057Y027744D01*
X023979Y027803D01*
X023889Y027841D01*
X023793Y027853D01*
D02*
G37*
G36*
X016770Y027023D02*
Y026840D01*
X016953D01*
X016946Y026878D01*
X016890Y026960D01*
X016808Y027016D01*
X016770Y027023D01*
D02*
G37*
G36*
X025456Y028006D02*
X025372Y027989D01*
X025301Y027942D01*
X025253Y027871D01*
X025237Y027787D01*
X025253Y027703D01*
X025292Y027645D01*
X025267Y027599D01*
X025200Y027612D01*
X025133Y027599D01*
X025108Y027645D01*
X025147Y027703D01*
X025163Y027787D01*
X025147Y027871D01*
X025099Y027942D01*
X025028Y027989D01*
X024944Y028006D01*
X024860Y027989D01*
X024789Y027942D01*
X024742Y027871D01*
X024725Y027787D01*
X024742Y027703D01*
X024780Y027645D01*
X024755Y027599D01*
X024688Y027612D01*
X024604Y027596D01*
X024533Y027548D01*
X024486Y027477D01*
X024469Y027393D01*
X024486Y027309D01*
X024533Y027238D01*
X024604Y027191D01*
X024688Y027174D01*
X024772Y027191D01*
X024843Y027238D01*
X024891Y027309D01*
X024907Y027393D01*
X024891Y027477D01*
X024852Y027535D01*
X024877Y027581D01*
X024944Y027568D01*
X025011Y027581D01*
X025036Y027535D01*
X024997Y027477D01*
X024981Y027393D01*
X024997Y027309D01*
X025045Y027238D01*
X025116Y027191D01*
X025200Y027174D01*
X025284Y027191D01*
X025355Y027238D01*
X025403Y027309D01*
X025419Y027393D01*
X025403Y027477D01*
X025364Y027535D01*
X025389Y027581D01*
X025456Y027568D01*
X025523Y027581D01*
X025548Y027535D01*
X025509Y027477D01*
X025493Y027393D01*
X025509Y027309D01*
X025557Y027238D01*
X025628Y027191D01*
X025712Y027174D01*
X025796Y027191D01*
X025867Y027238D01*
X025914Y027309D01*
X025931Y027393D01*
X025914Y027477D01*
X025867Y027548D01*
X025796Y027596D01*
X025712Y027612D01*
X025645Y027599D01*
X025620Y027645D01*
X025658Y027703D01*
X025675Y027787D01*
X025658Y027871D01*
X025611Y027942D01*
X025540Y027989D01*
X025456Y028006D01*
D02*
G37*
G36*
X026607Y027853D02*
X026511Y027841D01*
X026421Y027803D01*
X026343Y027744D01*
X026284Y027666D01*
X026247Y027576D01*
X026234Y027480D01*
X026247Y027383D01*
X026284Y027293D01*
X026343Y027216D01*
X026421Y027156D01*
X026511Y027119D01*
X026607Y027106D01*
X026704Y027119D01*
X026794Y027156D01*
X026872Y027216D01*
X026931Y027293D01*
X026968Y027383D01*
X026981Y027480D01*
X026968Y027576D01*
X026931Y027666D01*
X026872Y027744D01*
X026794Y027803D01*
X026704Y027841D01*
X026607Y027853D01*
D02*
G37*
G36*
X016953Y026720D02*
X016770D01*
Y026537D01*
X016808Y026544D01*
X016890Y026600D01*
X016946Y026682D01*
X016953Y026720D01*
D02*
G37*
G36*
X016650D02*
X016467D01*
X016474Y026682D01*
X016530Y026600D01*
X016612Y026544D01*
X016650Y026537D01*
Y026720D01*
D02*
G37*
G36*
Y027023D02*
X016612Y027016D01*
X016530Y026960D01*
X016474Y026878D01*
X016467Y026840D01*
X016650D01*
Y027023D01*
D02*
G37*
G36*
X027900Y027344D02*
X027808Y027332D01*
X027723Y027296D01*
X027650Y027240D01*
X027594Y027167D01*
X027558Y027082D01*
X027546Y026990D01*
X027558Y026898D01*
X027579Y026849D01*
X025950Y025220D01*
X025922Y025179D01*
X025913Y025130D01*
Y024103D01*
X024726Y022916D01*
X024660Y022929D01*
X024572Y022912D01*
X024498Y022862D01*
X024448Y022788D01*
X024431Y022700D01*
X024448Y022612D01*
X024498Y022538D01*
X024528Y022518D01*
Y022468D01*
X024513Y022457D01*
X024463Y022383D01*
X024446Y022295D01*
X024463Y022207D01*
X024513Y022133D01*
X024587Y022083D01*
X024675Y022066D01*
X024763Y022083D01*
X024837Y022133D01*
X024887Y022207D01*
X024905Y022295D01*
X024897Y022336D01*
X026400Y023840D01*
X026428Y023881D01*
X026437Y023930D01*
Y024347D01*
X027759Y025669D01*
X027808Y025648D01*
X027900Y025636D01*
X027992Y025648D01*
X028077Y025684D01*
X028150Y025740D01*
X028206Y025813D01*
X028242Y025898D01*
X028254Y025990D01*
X028242Y026082D01*
X028206Y026167D01*
X028150Y026240D01*
X028077Y026296D01*
X027992Y026332D01*
X027900Y026344D01*
X027808Y026332D01*
X027723Y026296D01*
X027650Y026240D01*
X027594Y026167D01*
X027558Y026082D01*
X027546Y025990D01*
X027558Y025898D01*
X027579Y025849D01*
X026220Y024490D01*
X026217Y024486D01*
X026167Y024502D01*
Y025077D01*
X027759Y026669D01*
X027808Y026648D01*
X027900Y026636D01*
X027992Y026648D01*
X028077Y026684D01*
X028150Y026740D01*
X028206Y026813D01*
X028242Y026898D01*
X028254Y026990D01*
X028242Y027082D01*
X028206Y027167D01*
X028150Y027240D01*
X028077Y027296D01*
X027992Y027332D01*
X027900Y027344D01*
D02*
G37*
G36*
X013470Y022253D02*
X013432Y022246D01*
X013350Y022190D01*
X013295Y022108D01*
X013287Y022070D01*
X013470D01*
Y022253D01*
D02*
G37*
G36*
X013773Y021950D02*
X013590D01*
Y021767D01*
X013628Y021774D01*
X013710Y021830D01*
X013765Y021912D01*
X013773Y021950D01*
D02*
G37*
G36*
X020290Y023807D02*
X019290D01*
X019241Y023798D01*
X019200Y023770D01*
X018548Y023118D01*
X018520Y023077D01*
X018510Y023028D01*
Y021662D01*
X018520Y021613D01*
X018548Y021572D01*
X022630Y017490D01*
X022671Y017462D01*
X022720Y017453D01*
X023208D01*
X023214Y017438D01*
X023259Y017379D01*
X023318Y017334D01*
X023386Y017306D01*
X023460Y017296D01*
X023534Y017306D01*
X023602Y017334D01*
X023661Y017379D01*
X023669Y017390D01*
X023719D01*
X023741Y017361D01*
X023805Y017312D01*
X023880Y017281D01*
X023900Y017279D01*
Y017580D01*
X023960D01*
Y017640D01*
X024261D01*
X024259Y017660D01*
X024228Y017735D01*
X024179Y017799D01*
X024150Y017821D01*
Y017871D01*
X024161Y017879D01*
X024206Y017938D01*
X024234Y018006D01*
X024244Y018080D01*
X024234Y018154D01*
X024206Y018222D01*
X024161Y018281D01*
X024138Y018298D01*
Y018362D01*
X024161Y018379D01*
X024206Y018438D01*
X024234Y018506D01*
X024244Y018580D01*
X024234Y018654D01*
X024206Y018722D01*
X024161Y018781D01*
X024102Y018826D01*
X024072Y018839D01*
X024066Y018895D01*
X024113Y018927D01*
X024160Y018997D01*
X024177Y019080D01*
X024160Y019163D01*
X024113Y019233D01*
X024066Y019265D01*
X024072Y019321D01*
X024102Y019334D01*
X024161Y019379D01*
X024206Y019438D01*
X024234Y019506D01*
X024244Y019580D01*
X024234Y019654D01*
X024206Y019722D01*
X024161Y019781D01*
X024102Y019826D01*
X024034Y019854D01*
X023960Y019864D01*
X023886Y019854D01*
X023818Y019826D01*
X023759Y019781D01*
X023742Y019758D01*
X023678D01*
X023661Y019781D01*
X023602Y019826D01*
X023534Y019854D01*
X023460Y019864D01*
X023386Y019854D01*
X023318Y019826D01*
X023259Y019781D01*
X023214Y019722D01*
X023186Y019654D01*
X023176Y019580D01*
X023186Y019506D01*
X023214Y019438D01*
X023259Y019379D01*
X023282Y019362D01*
Y019298D01*
X023259Y019281D01*
X023214Y019222D01*
X023208Y019207D01*
X023143D01*
X019841Y022509D01*
X019842Y022518D01*
X019892Y022592D01*
X019909Y022680D01*
X019892Y022768D01*
X019842Y022842D01*
X019768Y022892D01*
X019680Y022909D01*
X019592Y022892D01*
X019518Y022842D01*
X019468Y022768D01*
X019451Y022680D01*
X019468Y022592D01*
X019518Y022518D01*
X019553Y022495D01*
Y022490D01*
X019562Y022441D01*
X019590Y022400D01*
X023000Y018990D01*
X023041Y018962D01*
X023090Y018953D01*
X023208D01*
X023214Y018938D01*
X023259Y018879D01*
X023282Y018862D01*
Y018798D01*
X023259Y018781D01*
X023214Y018722D01*
X023208Y018707D01*
X023048D01*
X019966Y021789D01*
X019974Y021830D01*
X019957Y021918D01*
X019907Y021992D01*
X019833Y022042D01*
X019745Y022059D01*
X019657Y022042D01*
X019583Y021992D01*
X019533Y021918D01*
X019516Y021830D01*
X019533Y021742D01*
X019583Y021668D01*
X019657Y021618D01*
X019745Y021601D01*
X019786Y021609D01*
X022905Y018490D01*
X022946Y018462D01*
X022995Y018453D01*
X023208D01*
X023214Y018438D01*
X023259Y018379D01*
X023282Y018362D01*
Y018298D01*
X023259Y018281D01*
X023214Y018222D01*
X023208Y018207D01*
X022853D01*
X019207Y021853D01*
Y022727D01*
X019563Y023083D01*
X019895D01*
X019918Y023048D01*
X019992Y022998D01*
X020080Y022981D01*
X020168Y022998D01*
X020242Y023048D01*
X020292Y023122D01*
X020309Y023210D01*
X020292Y023298D01*
X020242Y023372D01*
X020168Y023422D01*
X020080Y023439D01*
X019992Y023422D01*
X019918Y023372D01*
X019895Y023337D01*
X019510D01*
X019461Y023328D01*
X019420Y023300D01*
X018990Y022870D01*
X018962Y022829D01*
X018953Y022780D01*
Y021800D01*
X018962Y021751D01*
X018990Y021710D01*
X022710Y017990D01*
X022751Y017962D01*
X022800Y017953D01*
X023208D01*
X023214Y017938D01*
X023259Y017879D01*
X023282Y017862D01*
Y017798D01*
X023259Y017781D01*
X023214Y017722D01*
X023208Y017707D01*
X022773D01*
X018765Y021715D01*
Y022975D01*
X019343Y023553D01*
X020237D01*
X020513Y023277D01*
Y022963D01*
X020301Y022751D01*
X020260Y022759D01*
X020172Y022742D01*
X020098Y022692D01*
X020048Y022618D01*
X020031Y022530D01*
X020048Y022442D01*
X020098Y022368D01*
X020172Y022318D01*
X020260Y022301D01*
X020348Y022318D01*
X020422Y022368D01*
X020472Y022442D01*
X020489Y022530D01*
X020481Y022571D01*
X020730Y022820D01*
X020758Y022861D01*
X020767Y022910D01*
Y023330D01*
X020758Y023379D01*
X020730Y023420D01*
X020380Y023770D01*
X020339Y023798D01*
X020290Y023807D01*
D02*
G37*
G36*
X013590Y022253D02*
Y022070D01*
X013773D01*
X013765Y022108D01*
X013710Y022190D01*
X013628Y022246D01*
X013590Y022253D01*
D02*
G37*
G36*
X028920Y021190D02*
X028832Y021172D01*
X028758Y021122D01*
X028708Y021048D01*
X028690Y020960D01*
X028699Y020919D01*
X024877Y017097D01*
X021413D01*
X020381Y018129D01*
X020389Y018170D01*
X020372Y018258D01*
X020322Y018332D01*
X020248Y018382D01*
X020160Y018399D01*
X020072Y018382D01*
X019998Y018332D01*
X019948Y018258D01*
X019931Y018170D01*
X019948Y018082D01*
X019998Y018008D01*
X020072Y017958D01*
X020160Y017941D01*
X020201Y017949D01*
X021270Y016880D01*
X021311Y016852D01*
X021360Y016843D01*
X024930D01*
X024978Y016852D01*
X025020Y016880D01*
X028879Y020739D01*
X028920Y020731D01*
X029008Y020748D01*
X029082Y020798D01*
X029132Y020872D01*
X029149Y020960D01*
X029132Y021048D01*
X029082Y021122D01*
X029008Y021172D01*
X028920Y021190D01*
D02*
G37*
G36*
X026250Y019883D02*
Y019700D01*
X026433D01*
X026425Y019738D01*
X026370Y019820D01*
X026288Y019876D01*
X026250Y019883D01*
D02*
G37*
G36*
X013470Y021950D02*
X013287D01*
X013295Y021912D01*
X013350Y021830D01*
X013432Y021774D01*
X013470Y021767D01*
Y021950D01*
D02*
G37*
G36*
X018030Y027269D02*
X017942Y027252D01*
X017868Y027202D01*
X017818Y027128D01*
X017801Y027040D01*
X017818Y026952D01*
X017868Y026878D01*
X017877Y026872D01*
Y022085D01*
X017858Y022072D01*
X017808Y021998D01*
X017791Y021910D01*
X017808Y021822D01*
X017858Y021748D01*
X017932Y021698D01*
X018020Y021681D01*
X018108Y021698D01*
X018182Y021748D01*
X018232Y021822D01*
X018249Y021910D01*
X018232Y021998D01*
X018183Y022071D01*
Y026872D01*
X018192Y026878D01*
X018242Y026952D01*
X018259Y027040D01*
X018242Y027128D01*
X018192Y027202D01*
X018118Y027252D01*
X018030Y027269D01*
D02*
G37*
G36*
X021723Y024290D02*
X021540D01*
Y024107D01*
X021578Y024114D01*
X021660Y024170D01*
X021716Y024252D01*
X021723Y024290D01*
D02*
G37*
G36*
X021420D02*
X021237D01*
X021244Y024252D01*
X021300Y024170D01*
X021382Y024114D01*
X021420Y024107D01*
Y024290D01*
D02*
G37*
G36*
X025066Y024955D02*
X024574D01*
X024487Y024937D01*
X024413Y024888D01*
X024364Y024815D01*
X024347Y024728D01*
Y024432D01*
X024364Y024345D01*
X024413Y024272D01*
X024487Y024223D01*
X024574Y024205D01*
X025066D01*
X025153Y024223D01*
X025227Y024272D01*
X025276Y024345D01*
X025293Y024432D01*
Y024728D01*
X025276Y024815D01*
X025227Y024888D01*
X025153Y024937D01*
X025066Y024955D01*
D02*
G37*
G36*
X013148Y024923D02*
X012952D01*
X012855Y024911D01*
X012765Y024873D01*
X012687Y024814D01*
X012628Y024737D01*
X012591Y024647D01*
X012578Y024550D01*
X012591Y024453D01*
X012628Y024363D01*
X012687Y024286D01*
X012765Y024227D01*
X012855Y024189D01*
X012952Y024177D01*
X013148D01*
X013245Y024189D01*
X013335Y024227D01*
X013413Y024286D01*
X013472Y024363D01*
X013509Y024453D01*
X013522Y024550D01*
X013509Y024647D01*
X013472Y024737D01*
X013413Y024814D01*
X013335Y024873D01*
X013245Y024911D01*
X013148Y024923D01*
D02*
G37*
G36*
X016303Y023870D02*
X016120D01*
Y023687D01*
X016158Y023695D01*
X016240Y023750D01*
X016295Y023832D01*
X016303Y023870D01*
D02*
G37*
G36*
X016000D02*
X015817D01*
X015825Y023832D01*
X015880Y023750D01*
X015962Y023695D01*
X016000Y023687D01*
Y023870D01*
D02*
G37*
G36*
X016120Y024173D02*
Y023990D01*
X016303D01*
X016295Y024028D01*
X016240Y024110D01*
X016158Y024165D01*
X016120Y024173D01*
D02*
G37*
G36*
X016000D02*
X015962Y024165D01*
X015880Y024110D01*
X015825Y024028D01*
X015817Y023990D01*
X016000D01*
Y024173D01*
D02*
G37*
G36*
X014980Y034151D02*
Y033968D01*
X015163D01*
X015156Y034006D01*
X015100Y034088D01*
X015018Y034143D01*
X014980Y034151D01*
D02*
G37*
G36*
X014860D02*
X014822Y034143D01*
X014740Y034088D01*
X014684Y034006D01*
X014677Y033968D01*
X014860D01*
Y034151D01*
D02*
G37*
G36*
X015530D02*
Y033968D01*
X015713D01*
X015705Y034006D01*
X015650Y034088D01*
X015568Y034143D01*
X015530Y034151D01*
D02*
G37*
G36*
X015410D02*
X015372Y034143D01*
X015290Y034088D01*
X015235Y034006D01*
X015227Y033968D01*
X015410D01*
Y034151D01*
D02*
G37*
G36*
X013880D02*
Y033968D01*
X014063D01*
X014056Y034006D01*
X014000Y034088D01*
X013918Y034143D01*
X013880Y034151D01*
D02*
G37*
G36*
X013760D02*
X013722Y034143D01*
X013640Y034088D01*
X013585Y034006D01*
X013577Y033968D01*
X013760D01*
Y034151D01*
D02*
G37*
G36*
X014430D02*
Y033968D01*
X014613D01*
X014605Y034006D01*
X014550Y034088D01*
X014468Y034143D01*
X014430Y034151D01*
D02*
G37*
G36*
X014310D02*
X014272Y034143D01*
X014190Y034088D01*
X014135Y034006D01*
X014127Y033968D01*
X014310D01*
Y034151D01*
D02*
G37*
G36*
X028121Y035244D02*
X027989Y035226D01*
X027865Y035175D01*
X027759Y035094D01*
X027677Y034988D01*
X027626Y034864D01*
X027609Y034732D01*
X027626Y034599D01*
X027677Y034475D01*
X027759Y034369D01*
X027865Y034288D01*
X027989Y034237D01*
X028121Y034219D01*
X028254Y034237D01*
X028377Y034288D01*
X028484Y034369D01*
X028565Y034475D01*
X028616Y034599D01*
X028634Y034732D01*
X028616Y034864D01*
X028565Y034988D01*
X028484Y035094D01*
X028377Y035175D01*
X028254Y035226D01*
X028121Y035244D01*
D02*
G37*
G36*
X026153D02*
X026020Y035226D01*
X025897Y035175D01*
X025790Y035094D01*
X025709Y034988D01*
X025658Y034864D01*
X025640Y034732D01*
X025658Y034599D01*
X025709Y034475D01*
X025790Y034369D01*
X025897Y034288D01*
X026020Y034237D01*
X026153Y034219D01*
X026285Y034237D01*
X026409Y034288D01*
X026515Y034369D01*
X026597Y034475D01*
X026648Y034599D01*
X026665Y034732D01*
X026648Y034864D01*
X026597Y034988D01*
X026515Y035094D01*
X026409Y035175D01*
X026285Y035226D01*
X026153Y035244D01*
D02*
G37*
G36*
X012413Y034410D02*
X012230D01*
Y034227D01*
X012268Y034234D01*
X012350Y034290D01*
X012406Y034372D01*
X012413Y034410D01*
D02*
G37*
G36*
X012110D02*
X011927D01*
X011934Y034372D01*
X011990Y034290D01*
X012072Y034234D01*
X012110Y034227D01*
Y034410D01*
D02*
G37*
G36*
X016080Y034151D02*
Y033968D01*
X016263D01*
X016256Y034006D01*
X016200Y034088D01*
X016118Y034143D01*
X016080Y034151D01*
D02*
G37*
G36*
X015960D02*
X015922Y034143D01*
X015840Y034088D01*
X015784Y034006D01*
X015777Y033968D01*
X015960D01*
Y034151D01*
D02*
G37*
G36*
X020247Y035244D02*
X020115Y035226D01*
X019991Y035175D01*
X019885Y035094D01*
X019803Y034988D01*
X019752Y034864D01*
X019735Y034732D01*
X019752Y034599D01*
X019803Y034475D01*
X019885Y034369D01*
X019991Y034288D01*
X020115Y034237D01*
X020247Y034219D01*
X020380Y034237D01*
X020503Y034288D01*
X020610Y034369D01*
X020691Y034475D01*
X020742Y034599D01*
X020760Y034732D01*
X020742Y034864D01*
X020691Y034988D01*
X020610Y035094D01*
X020503Y035175D01*
X020380Y035226D01*
X020247Y035244D01*
D02*
G37*
G36*
X018279D02*
X018146Y035226D01*
X018023Y035175D01*
X017916Y035094D01*
X017835Y034988D01*
X017784Y034864D01*
X017766Y034732D01*
X017784Y034599D01*
X017835Y034475D01*
X017916Y034369D01*
X018023Y034288D01*
X018146Y034237D01*
X018279Y034219D01*
X018411Y034237D01*
X018535Y034288D01*
X018641Y034369D01*
X018723Y034475D01*
X018774Y034599D01*
X018791Y034732D01*
X018774Y034864D01*
X018723Y034988D01*
X018641Y035094D01*
X018535Y035175D01*
X018411Y035226D01*
X018279Y035244D01*
D02*
G37*
G36*
X015163Y033848D02*
X014980D01*
Y033665D01*
X015018Y033672D01*
X015100Y033728D01*
X015156Y033810D01*
X015163Y033848D01*
D02*
G37*
G36*
X014860D02*
X014677D01*
X014684Y033810D01*
X014740Y033728D01*
X014822Y033672D01*
X014860Y033665D01*
Y033848D01*
D02*
G37*
G36*
X015713D02*
X015530D01*
Y033665D01*
X015568Y033672D01*
X015650Y033728D01*
X015705Y033810D01*
X015713Y033848D01*
D02*
G37*
G36*
X015410D02*
X015227D01*
X015235Y033810D01*
X015290Y033728D01*
X015372Y033672D01*
X015410Y033665D01*
Y033848D01*
D02*
G37*
G36*
X014063D02*
X013880D01*
Y033665D01*
X013918Y033672D01*
X014000Y033728D01*
X014056Y033810D01*
X014063Y033848D01*
D02*
G37*
G36*
X013760D02*
X013577D01*
X013585Y033810D01*
X013640Y033728D01*
X013722Y033672D01*
X013760Y033665D01*
Y033848D01*
D02*
G37*
G36*
X014613D02*
X014430D01*
Y033665D01*
X014468Y033672D01*
X014550Y033728D01*
X014605Y033810D01*
X014613Y033848D01*
D02*
G37*
G36*
X014310D02*
X014127D01*
X014135Y033810D01*
X014190Y033728D01*
X014272Y033672D01*
X014310Y033665D01*
Y033848D01*
D02*
G37*
G36*
X012780Y034151D02*
Y033968D01*
X012963D01*
X012955Y034006D01*
X012900Y034088D01*
X012818Y034143D01*
X012780Y034151D01*
D02*
G37*
G36*
X012660D02*
X012622Y034143D01*
X012540Y034088D01*
X012485Y034006D01*
X012477Y033968D01*
X012660D01*
Y034151D01*
D02*
G37*
G36*
X013330D02*
Y033968D01*
X013513D01*
X013506Y034006D01*
X013450Y034088D01*
X013368Y034143D01*
X013330Y034151D01*
D02*
G37*
G36*
X013210D02*
X013172Y034143D01*
X013090Y034088D01*
X013034Y034006D01*
X013027Y033968D01*
X013210D01*
Y034151D01*
D02*
G37*
G36*
X016263Y033848D02*
X016080D01*
Y033665D01*
X016118Y033672D01*
X016200Y033728D01*
X016256Y033810D01*
X016263Y033848D01*
D02*
G37*
G36*
X015960D02*
X015777D01*
X015784Y033810D01*
X015840Y033728D01*
X015922Y033672D01*
X015960Y033665D01*
Y033848D01*
D02*
G37*
G36*
X012230Y034151D02*
Y033968D01*
X012413D01*
X012406Y034006D01*
X012350Y034088D01*
X012268Y034143D01*
X012230Y034151D01*
D02*
G37*
G36*
X012110D02*
X012072Y034143D01*
X011990Y034088D01*
X011934Y034006D01*
X011927Y033968D01*
X012110D01*
Y034151D01*
D02*
G37*
G36*
X012660Y034410D02*
X012477D01*
X012485Y034372D01*
X012540Y034290D01*
X012622Y034234D01*
X012660Y034227D01*
Y034410D01*
D02*
G37*
G36*
X015530Y034713D02*
Y034530D01*
X015713D01*
X015705Y034568D01*
X015650Y034650D01*
X015568Y034705D01*
X015530Y034713D01*
D02*
G37*
G36*
X015410D02*
X015372Y034705D01*
X015290Y034650D01*
X015235Y034568D01*
X015227Y034530D01*
X015410D01*
Y034713D01*
D02*
G37*
G36*
X031133Y036404D02*
X030999Y036391D01*
X030870Y036352D01*
X030751Y036288D01*
X030646Y036203D01*
X030561Y036098D01*
X030497Y035979D01*
X030458Y035850D01*
X030445Y035716D01*
X030458Y035581D01*
X030497Y035452D01*
X030561Y035333D01*
X030646Y035229D01*
X030751Y035143D01*
X030870Y035080D01*
X030999Y035040D01*
X031133Y035027D01*
X031267Y035040D01*
X031397Y035080D01*
X031516Y035143D01*
X031620Y035229D01*
X031706Y035333D01*
X031769Y035452D01*
X031808Y035581D01*
X031822Y035716D01*
X031808Y035850D01*
X031769Y035979D01*
X031706Y036098D01*
X031620Y036203D01*
X031516Y036288D01*
X031397Y036352D01*
X031267Y036391D01*
X031133Y036404D01*
D02*
G37*
G36*
X016271D02*
X016137Y036391D01*
X016007Y036352D01*
X015888Y036288D01*
X015784Y036203D01*
X015698Y036098D01*
X015635Y035979D01*
X015596Y035850D01*
X015582Y035716D01*
X015596Y035581D01*
X015635Y035452D01*
X015698Y035333D01*
X015784Y035229D01*
X015888Y035143D01*
X016007Y035080D01*
X016137Y035040D01*
X016271Y035027D01*
X016405Y035040D01*
X016534Y035080D01*
X016653Y035143D01*
X016758Y035229D01*
X016843Y035333D01*
X016907Y035452D01*
X016946Y035581D01*
X016959Y035716D01*
X016946Y035850D01*
X016907Y035979D01*
X016843Y036098D01*
X016758Y036203D01*
X016653Y036288D01*
X016534Y036352D01*
X016405Y036391D01*
X016271Y036404D01*
D02*
G37*
G36*
X014430Y034713D02*
Y034530D01*
X014613D01*
X014605Y034568D01*
X014550Y034650D01*
X014468Y034705D01*
X014430Y034713D01*
D02*
G37*
G36*
X014310D02*
X014272Y034705D01*
X014190Y034650D01*
X014135Y034568D01*
X014127Y034530D01*
X014310D01*
Y034713D01*
D02*
G37*
G36*
X014980D02*
Y034530D01*
X015163D01*
X015156Y034568D01*
X015100Y034650D01*
X015018Y034705D01*
X014980Y034713D01*
D02*
G37*
G36*
X014860D02*
X014822Y034705D01*
X014740Y034650D01*
X014684Y034568D01*
X014677Y034530D01*
X014860D01*
Y034713D01*
D02*
G37*
G36*
X027137Y037212D02*
X027004Y037195D01*
X026881Y037144D01*
X026775Y037062D01*
X026693Y036956D01*
X026642Y036833D01*
X026625Y036700D01*
X026642Y036567D01*
X026693Y036444D01*
X026775Y036338D01*
X026881Y036256D01*
X027004Y036205D01*
X027137Y036188D01*
X027270Y036205D01*
X027393Y036256D01*
X027499Y036338D01*
X027581Y036444D01*
X027632Y036567D01*
X027649Y036700D01*
X027632Y036833D01*
X027581Y036956D01*
X027499Y037062D01*
X027393Y037144D01*
X027270Y037195D01*
X027137Y037212D01*
D02*
G37*
G36*
X025168D02*
X025036Y037195D01*
X024912Y037144D01*
X024806Y037062D01*
X024725Y036956D01*
X024674Y036833D01*
X024656Y036700D01*
X024674Y036567D01*
X024725Y036444D01*
X024806Y036338D01*
X024912Y036256D01*
X025036Y036205D01*
X025168Y036188D01*
X025301Y036205D01*
X025425Y036256D01*
X025531Y036338D01*
X025612Y036444D01*
X025663Y036567D01*
X025681Y036700D01*
X025663Y036833D01*
X025612Y036956D01*
X025531Y037062D01*
X025425Y037144D01*
X025301Y037195D01*
X025168Y037212D01*
D02*
G37*
G36*
X029106Y037014D02*
X029024Y037003D01*
X028949Y036972D01*
X028884Y036922D01*
X028834Y036857D01*
X028802Y036781D01*
X028792Y036700D01*
X028802Y036619D01*
X028834Y036543D01*
X028884Y036478D01*
X028949Y036428D01*
X029024Y036397D01*
X029106Y036386D01*
X029187Y036397D01*
X029262Y036428D01*
X029327Y036478D01*
X029377Y036543D01*
X029409Y036619D01*
X029419Y036700D01*
X029409Y036781D01*
X029377Y036857D01*
X029327Y036922D01*
X029262Y036972D01*
X029187Y037003D01*
X029106Y037014D01*
D02*
G37*
G36*
X023200D02*
X023119Y037003D01*
X023043Y036972D01*
X022978Y036922D01*
X022928Y036857D01*
X022897Y036781D01*
X022886Y036700D01*
X022897Y036619D01*
X022928Y036543D01*
X022978Y036478D01*
X023043Y036428D01*
X023119Y036397D01*
X023200Y036386D01*
X023281Y036397D01*
X023357Y036428D01*
X023422Y036478D01*
X023472Y036543D01*
X023503Y036619D01*
X023514Y036700D01*
X023503Y036781D01*
X023472Y036857D01*
X023422Y036922D01*
X023357Y036972D01*
X023281Y037003D01*
X023200Y037014D01*
D02*
G37*
G36*
X034520Y036623D02*
X034383Y036610D01*
X034251Y036570D01*
X034129Y036505D01*
X034023Y036417D01*
X033935Y036311D01*
X033870Y036189D01*
X033830Y036057D01*
X033817Y035920D01*
X033830Y035783D01*
X033870Y035651D01*
X033935Y035529D01*
X034023Y035423D01*
X034129Y035335D01*
X034251Y035270D01*
X034383Y035230D01*
X034520Y035217D01*
X034657Y035230D01*
X034789Y035270D01*
X034911Y035335D01*
X035017Y035423D01*
X035105Y035529D01*
X035170Y035651D01*
X035210Y035783D01*
X035223Y035920D01*
X035210Y036057D01*
X035170Y036189D01*
X035105Y036311D01*
X035017Y036417D01*
X034911Y036505D01*
X034789Y036570D01*
X034657Y036610D01*
X034520Y036623D01*
D02*
G37*
G36*
X013270D02*
X013133Y036610D01*
X013001Y036570D01*
X012879Y036505D01*
X012773Y036417D01*
X012685Y036311D01*
X012620Y036189D01*
X012580Y036057D01*
X012567Y035920D01*
X012580Y035783D01*
X012620Y035651D01*
X012685Y035529D01*
X012773Y035423D01*
X012879Y035335D01*
X013001Y035270D01*
X013133Y035230D01*
X013270Y035217D01*
X013407Y035230D01*
X013539Y035270D01*
X013661Y035335D01*
X013767Y035423D01*
X013855Y035529D01*
X013920Y035651D01*
X013960Y035783D01*
X013973Y035920D01*
X013960Y036057D01*
X013920Y036189D01*
X013855Y036311D01*
X013767Y036417D01*
X013661Y036505D01*
X013539Y036570D01*
X013407Y036610D01*
X013270Y036623D01*
D02*
G37*
G36*
X021232Y037212D02*
X021099Y037195D01*
X020975Y037144D01*
X020869Y037062D01*
X020788Y036956D01*
X020736Y036833D01*
X020719Y036700D01*
X020736Y036567D01*
X020788Y036444D01*
X020869Y036338D01*
X020975Y036256D01*
X021099Y036205D01*
X021232Y036188D01*
X021364Y036205D01*
X021488Y036256D01*
X021594Y036338D01*
X021675Y036444D01*
X021726Y036567D01*
X021744Y036700D01*
X021726Y036833D01*
X021675Y036956D01*
X021594Y037062D01*
X021488Y037144D01*
X021364Y037195D01*
X021232Y037212D01*
D02*
G37*
G36*
X019263D02*
X019130Y037195D01*
X019007Y037144D01*
X018901Y037062D01*
X018819Y036956D01*
X018803Y036918D01*
X018772Y036912D01*
X018698Y036862D01*
X016518Y034682D01*
X016468Y034608D01*
X016451Y034520D01*
Y029645D01*
X015128Y028322D01*
X015078Y028248D01*
X015061Y028160D01*
Y016870D01*
X015078Y016782D01*
X015128Y016708D01*
X018368Y013468D01*
X018442Y013418D01*
X018530Y013401D01*
X027240D01*
X027328Y013418D01*
X027402Y013468D01*
X030015Y016081D01*
X030445D01*
X030751Y015775D01*
Y014565D01*
X030528Y014342D01*
X030478Y014268D01*
X030461Y014180D01*
X030478Y014092D01*
X030528Y014018D01*
X030602Y013968D01*
X030690Y013951D01*
X030778Y013968D01*
X030852Y014018D01*
X031075Y014241D01*
X032945D01*
X033228Y013958D01*
X033302Y013908D01*
X033390Y013891D01*
X033478Y013908D01*
X033552Y013958D01*
X033602Y014032D01*
X033619Y014120D01*
X033602Y014208D01*
X033552Y014282D01*
X033202Y014632D01*
X033128Y014682D01*
X033040Y014699D01*
X031209D01*
Y015870D01*
X031192Y015958D01*
X031142Y016032D01*
X030702Y016472D01*
X030628Y016522D01*
X030540Y016539D01*
X029920D01*
X029832Y016522D01*
X029758Y016472D01*
X027145Y013859D01*
X018625D01*
X015519Y016965D01*
Y028065D01*
X016842Y029388D01*
X016892Y029462D01*
X016909Y029550D01*
Y034425D01*
X018840Y036355D01*
X018890Y036352D01*
X018901Y036338D01*
X019007Y036256D01*
X019130Y036205D01*
X019263Y036188D01*
X019396Y036205D01*
X019519Y036256D01*
X019625Y036338D01*
X019707Y036444D01*
X019758Y036567D01*
X019775Y036700D01*
X019758Y036833D01*
X019707Y036956D01*
X019625Y037062D01*
X019519Y037144D01*
X019396Y037195D01*
X019263Y037212D01*
D02*
G37*
G36*
X014860Y034410D02*
X014677D01*
X014684Y034372D01*
X014740Y034290D01*
X014822Y034234D01*
X014860Y034227D01*
Y034410D01*
D02*
G37*
G36*
X014613D02*
X014430D01*
Y034227D01*
X014468Y034234D01*
X014550Y034290D01*
X014605Y034372D01*
X014613Y034410D01*
D02*
G37*
G36*
X015410D02*
X015227D01*
X015235Y034372D01*
X015290Y034290D01*
X015372Y034234D01*
X015410Y034227D01*
Y034410D01*
D02*
G37*
G36*
X015163D02*
X014980D01*
Y034227D01*
X015018Y034234D01*
X015100Y034290D01*
X015156Y034372D01*
X015163Y034410D01*
D02*
G37*
G36*
X015960Y034410D02*
X015777D01*
X015784Y034372D01*
X015840Y034290D01*
X015922Y034234D01*
X015960Y034227D01*
Y034410D01*
D02*
G37*
G36*
X012963D02*
X012780D01*
Y034227D01*
X012818Y034234D01*
X012900Y034290D01*
X012955Y034372D01*
X012963Y034410D01*
D02*
G37*
G36*
X014310Y034410D02*
X014127D01*
X014135Y034372D01*
X014190Y034290D01*
X014272Y034234D01*
X014310Y034227D01*
Y034410D01*
D02*
G37*
G36*
X016263Y034410D02*
X016080D01*
Y034227D01*
X016118Y034234D01*
X016200Y034290D01*
X016256Y034372D01*
X016263Y034410D01*
D02*
G37*
G36*
X012780Y034713D02*
Y034530D01*
X012963D01*
X012955Y034568D01*
X012900Y034650D01*
X012818Y034705D01*
X012780Y034713D01*
D02*
G37*
G36*
X012660D02*
X012622Y034705D01*
X012540Y034650D01*
X012485Y034568D01*
X012477Y034530D01*
X012660D01*
Y034713D01*
D02*
G37*
G36*
X016080D02*
Y034530D01*
X016263D01*
X016256Y034568D01*
X016200Y034650D01*
X016118Y034705D01*
X016080Y034713D01*
D02*
G37*
G36*
X015960D02*
X015922Y034705D01*
X015840Y034650D01*
X015784Y034568D01*
X015777Y034530D01*
X015960D01*
Y034713D01*
D02*
G37*
G36*
X022216Y035045D02*
X022134Y035035D01*
X022059Y035003D01*
X021994Y034953D01*
X021944Y034888D01*
X021913Y034813D01*
X021902Y034732D01*
X021913Y034650D01*
X021944Y034575D01*
X021994Y034510D01*
X022059Y034460D01*
X022134Y034428D01*
X022216Y034418D01*
X022297Y034428D01*
X022373Y034460D01*
X022438Y034510D01*
X022488Y034575D01*
X022519Y034650D01*
X022530Y034732D01*
X022519Y034813D01*
X022488Y034888D01*
X022438Y034953D01*
X022373Y035003D01*
X022297Y035035D01*
X022216Y035045D01*
D02*
G37*
G36*
X015713Y034410D02*
X015530D01*
Y034227D01*
X015568Y034234D01*
X015650Y034290D01*
X015705Y034372D01*
X015713Y034410D01*
D02*
G37*
G36*
X012230Y034713D02*
Y034530D01*
X012413D01*
X012406Y034568D01*
X012350Y034650D01*
X012268Y034705D01*
X012230Y034713D01*
D02*
G37*
G36*
X012110D02*
X012072Y034705D01*
X011990Y034650D01*
X011934Y034568D01*
X011927Y034530D01*
X012110D01*
Y034713D01*
D02*
G37*
G36*
X013513Y033848D02*
X013330D01*
Y033665D01*
X013368Y033672D01*
X013450Y033728D01*
X013506Y033810D01*
X013513Y033848D01*
D02*
G37*
G36*
X012963Y032724D02*
X012780D01*
Y032541D01*
X012818Y032548D01*
X012900Y032604D01*
X012955Y032686D01*
X012963Y032724D01*
D02*
G37*
G36*
X012660D02*
X012477D01*
X012485Y032686D01*
X012540Y032604D01*
X012622Y032548D01*
X012660Y032541D01*
Y032724D01*
D02*
G37*
G36*
X015163D02*
X014980D01*
Y032541D01*
X015018Y032548D01*
X015100Y032604D01*
X015156Y032686D01*
X015163Y032724D01*
D02*
G37*
G36*
X014860D02*
X014677D01*
X014684Y032686D01*
X014740Y032604D01*
X014822Y032548D01*
X014860Y032541D01*
Y032724D01*
D02*
G37*
G36*
X035733Y032690D02*
X035550D01*
Y032507D01*
X035588Y032515D01*
X035670Y032570D01*
X035726Y032652D01*
X035733Y032690D01*
D02*
G37*
G36*
X035430D02*
X035247D01*
X035254Y032652D01*
X035310Y032570D01*
X035392Y032515D01*
X035430Y032507D01*
Y032690D01*
D02*
G37*
G36*
X012413Y032724D02*
X012230D01*
Y032541D01*
X012268Y032548D01*
X012350Y032604D01*
X012406Y032686D01*
X012413Y032724D01*
D02*
G37*
G36*
X012110D02*
X011927D01*
X011934Y032686D01*
X011990Y032604D01*
X012072Y032548D01*
X012110Y032541D01*
Y032724D01*
D02*
G37*
G36*
X035550Y032993D02*
Y032810D01*
X035733D01*
X035726Y032848D01*
X035670Y032930D01*
X035588Y032985D01*
X035550Y032993D01*
D02*
G37*
G36*
X035430D02*
X035392Y032985D01*
X035310Y032930D01*
X035254Y032848D01*
X035247Y032810D01*
X035430D01*
Y032993D01*
D02*
G37*
G36*
X012230Y033027D02*
Y032844D01*
X012413D01*
X012406Y032882D01*
X012350Y032964D01*
X012268Y033019D01*
X012230Y033027D01*
D02*
G37*
G36*
X012110D02*
X012072Y033019D01*
X011990Y032964D01*
X011934Y032882D01*
X011927Y032844D01*
X012110D01*
Y033027D01*
D02*
G37*
G36*
X015713Y032724D02*
X015530D01*
Y032541D01*
X015568Y032548D01*
X015650Y032604D01*
X015705Y032686D01*
X015713Y032724D01*
D02*
G37*
G36*
X015410D02*
X015227D01*
X015235Y032686D01*
X015290Y032604D01*
X015372Y032548D01*
X015410Y032541D01*
Y032724D01*
D02*
G37*
G36*
X016263D02*
X016080D01*
Y032541D01*
X016118Y032548D01*
X016200Y032604D01*
X016256Y032686D01*
X016263Y032724D01*
D02*
G37*
G36*
X015960D02*
X015777D01*
X015784Y032686D01*
X015840Y032604D01*
X015922Y032548D01*
X015960Y032541D01*
Y032724D01*
D02*
G37*
G36*
X014980Y032465D02*
Y032282D01*
X015163D01*
X015156Y032320D01*
X015100Y032402D01*
X015018Y032457D01*
X014980Y032465D01*
D02*
G37*
G36*
X014860D02*
X014822Y032457D01*
X014740Y032402D01*
X014684Y032320D01*
X014677Y032282D01*
X014860D01*
Y032465D01*
D02*
G37*
G36*
X015530D02*
Y032282D01*
X015713D01*
X015705Y032320D01*
X015650Y032402D01*
X015568Y032457D01*
X015530Y032465D01*
D02*
G37*
G36*
X015410D02*
X015372Y032457D01*
X015290Y032402D01*
X015235Y032320D01*
X015227Y032282D01*
X015410D01*
Y032465D01*
D02*
G37*
G36*
X012230D02*
Y032282D01*
X012413D01*
X012406Y032320D01*
X012350Y032402D01*
X012268Y032457D01*
X012230Y032465D01*
D02*
G37*
G36*
X012110D02*
X012072Y032457D01*
X011990Y032402D01*
X011934Y032320D01*
X011927Y032282D01*
X012110D01*
Y032465D01*
D02*
G37*
G36*
X012780D02*
Y032282D01*
X012963D01*
X012955Y032320D01*
X012900Y032402D01*
X012818Y032457D01*
X012780Y032465D01*
D02*
G37*
G36*
X012660D02*
X012622Y032457D01*
X012540Y032402D01*
X012485Y032320D01*
X012477Y032282D01*
X012660D01*
Y032465D01*
D02*
G37*
G36*
X013880Y032473D02*
Y032290D01*
X014063D01*
X014056Y032328D01*
X014000Y032410D01*
X013918Y032466D01*
X013880Y032473D01*
D02*
G37*
G36*
X013760D02*
X013722Y032466D01*
X013640Y032410D01*
X013585Y032328D01*
X013577Y032290D01*
X013760D01*
Y032473D01*
D02*
G37*
G36*
X014430D02*
Y032290D01*
X014613D01*
X014605Y032328D01*
X014550Y032410D01*
X014468Y032466D01*
X014430Y032473D01*
D02*
G37*
G36*
X014310D02*
X014272Y032466D01*
X014190Y032410D01*
X014135Y032328D01*
X014127Y032290D01*
X014310D01*
Y032473D01*
D02*
G37*
G36*
X016080Y032465D02*
Y032282D01*
X016263D01*
X016256Y032320D01*
X016200Y032402D01*
X016118Y032457D01*
X016080Y032465D01*
D02*
G37*
G36*
X015960D02*
X015922Y032457D01*
X015840Y032402D01*
X015784Y032320D01*
X015777Y032282D01*
X015960D01*
Y032465D01*
D02*
G37*
G36*
X013330Y032473D02*
Y032290D01*
X013513D01*
X013506Y032328D01*
X013450Y032410D01*
X013368Y032466D01*
X013330Y032473D01*
D02*
G37*
G36*
X013210D02*
X013172Y032466D01*
X013090Y032410D01*
X013034Y032328D01*
X013027Y032290D01*
X013210D01*
Y032473D01*
D02*
G37*
G36*
X012660Y033027D02*
X012622Y033019D01*
X012540Y032964D01*
X012485Y032882D01*
X012477Y032844D01*
X012660D01*
Y033027D01*
D02*
G37*
G36*
X014860Y033589D02*
X014822Y033581D01*
X014740Y033526D01*
X014684Y033444D01*
X014677Y033406D01*
X014860D01*
Y033589D01*
D02*
G37*
G36*
X012780D02*
Y033406D01*
X012963D01*
X012955Y033444D01*
X012900Y033526D01*
X012818Y033581D01*
X012780Y033589D01*
D02*
G37*
G36*
X015410D02*
X015372Y033581D01*
X015290Y033526D01*
X015235Y033444D01*
X015227Y033406D01*
X015410D01*
Y033589D01*
D02*
G37*
G36*
X014980D02*
Y033406D01*
X015163D01*
X015156Y033444D01*
X015100Y033526D01*
X015018Y033581D01*
X014980Y033589D01*
D02*
G37*
G36*
X012110D02*
X012072Y033581D01*
X011990Y033526D01*
X011934Y033444D01*
X011927Y033406D01*
X012110D01*
Y033589D01*
D02*
G37*
G36*
X016263Y033286D02*
X016080D01*
Y033103D01*
X016118Y033110D01*
X016200Y033166D01*
X016256Y033248D01*
X016263Y033286D01*
D02*
G37*
G36*
X012660Y033589D02*
X012622Y033581D01*
X012540Y033526D01*
X012485Y033444D01*
X012477Y033406D01*
X012660D01*
Y033589D01*
D02*
G37*
G36*
X012230D02*
Y033406D01*
X012413D01*
X012406Y033444D01*
X012350Y033526D01*
X012268Y033581D01*
X012230Y033589D01*
D02*
G37*
G36*
X012660Y033848D02*
X012477D01*
X012485Y033810D01*
X012540Y033728D01*
X012622Y033672D01*
X012660Y033665D01*
Y033848D01*
D02*
G37*
G36*
X012413D02*
X012230D01*
Y033665D01*
X012268Y033672D01*
X012350Y033728D01*
X012406Y033810D01*
X012413Y033848D01*
D02*
G37*
G36*
X013210D02*
X013027D01*
X013034Y033810D01*
X013090Y033728D01*
X013172Y033672D01*
X013210Y033665D01*
Y033848D01*
D02*
G37*
G36*
X012963D02*
X012780D01*
Y033665D01*
X012818Y033672D01*
X012900Y033728D01*
X012955Y033810D01*
X012963Y033848D01*
D02*
G37*
G36*
X015960Y033589D02*
X015922Y033581D01*
X015840Y033526D01*
X015784Y033444D01*
X015777Y033406D01*
X015960D01*
Y033589D01*
D02*
G37*
G36*
X015530D02*
Y033406D01*
X015713D01*
X015705Y033444D01*
X015650Y033526D01*
X015568Y033581D01*
X015530Y033589D01*
D02*
G37*
G36*
X012110Y033848D02*
X011927D01*
X011934Y033810D01*
X011990Y033728D01*
X012072Y033672D01*
X012110Y033665D01*
Y033848D01*
D02*
G37*
G36*
X016080Y033589D02*
Y033406D01*
X016263D01*
X016256Y033444D01*
X016200Y033526D01*
X016118Y033581D01*
X016080Y033589D01*
D02*
G37*
G36*
X015960Y033027D02*
X015922Y033019D01*
X015840Y032964D01*
X015784Y032882D01*
X015777Y032844D01*
X015960D01*
Y033027D01*
D02*
G37*
G36*
X015530D02*
Y032844D01*
X015713D01*
X015705Y032882D01*
X015650Y032964D01*
X015568Y033019D01*
X015530Y033027D01*
D02*
G37*
G36*
X012110Y033286D02*
X011927D01*
X011934Y033248D01*
X011990Y033166D01*
X012072Y033110D01*
X012110Y033103D01*
Y033286D01*
D02*
G37*
G36*
X016080Y033027D02*
Y032844D01*
X016263D01*
X016256Y032882D01*
X016200Y032964D01*
X016118Y033019D01*
X016080Y033027D01*
D02*
G37*
G36*
X014860D02*
X014822Y033019D01*
X014740Y032964D01*
X014684Y032882D01*
X014677Y032844D01*
X014860D01*
Y033027D01*
D02*
G37*
G36*
X012780D02*
Y032844D01*
X012963D01*
X012955Y032882D01*
X012900Y032964D01*
X012818Y033019D01*
X012780Y033027D01*
D02*
G37*
G36*
X015410D02*
X015372Y033019D01*
X015290Y032964D01*
X015235Y032882D01*
X015227Y032844D01*
X015410D01*
Y033027D01*
D02*
G37*
G36*
X014980D02*
Y032844D01*
X015163D01*
X015156Y032882D01*
X015100Y032964D01*
X015018Y033019D01*
X014980Y033027D01*
D02*
G37*
G36*
X015410Y033286D02*
X015227D01*
X015235Y033248D01*
X015290Y033166D01*
X015372Y033110D01*
X015410Y033103D01*
Y033286D01*
D02*
G37*
G36*
X015163D02*
X014980D01*
Y033103D01*
X015018Y033110D01*
X015100Y033166D01*
X015156Y033248D01*
X015163Y033286D01*
D02*
G37*
G36*
X015960D02*
X015777D01*
X015784Y033248D01*
X015840Y033166D01*
X015922Y033110D01*
X015960Y033103D01*
Y033286D01*
D02*
G37*
G36*
X015713D02*
X015530D01*
Y033103D01*
X015568Y033110D01*
X015650Y033166D01*
X015705Y033248D01*
X015713Y033286D01*
D02*
G37*
G36*
X012660D02*
X012477D01*
X012485Y033248D01*
X012540Y033166D01*
X012622Y033110D01*
X012660Y033103D01*
Y033286D01*
D02*
G37*
G36*
X012413D02*
X012230D01*
Y033103D01*
X012268Y033110D01*
X012350Y033166D01*
X012406Y033248D01*
X012413Y033286D01*
D02*
G37*
G36*
X014860D02*
X014677D01*
X014684Y033248D01*
X014740Y033166D01*
X014822Y033110D01*
X014860Y033103D01*
Y033286D01*
D02*
G37*
G36*
X012963D02*
X012780D01*
Y033103D01*
X012818Y033110D01*
X012900Y033166D01*
X012955Y033248D01*
X012963Y033286D01*
D02*
G37*
%LPD*%
G36*
X020859Y031451D02*
X020868Y031449D01*
X020877Y031449D01*
X020884Y031447D01*
X020893Y031446D01*
X020899Y031444D01*
X020905Y031442D01*
X020912Y031440D01*
X020917Y031438D01*
X020921Y031437D01*
X020924Y031435D01*
X020927Y031434D01*
X020930Y031433D01*
X020931Y031432D01*
X020931D01*
X020940Y031427D01*
X020948Y031421D01*
X020956Y031416D01*
X020963Y031410D01*
X020970Y031404D01*
X020975Y031398D01*
X020981Y031393D01*
X020986Y031386D01*
X020991Y031381D01*
X020994Y031376D01*
X020997Y031372D01*
X021000Y031368D01*
X021002Y031365D01*
X021003Y031362D01*
X021004Y031360D01*
X021005Y031360D01*
X021009Y031351D01*
X021012Y031342D01*
X021016Y031333D01*
X021019Y031324D01*
X021023Y031306D01*
X021025Y031298D01*
X021026Y031290D01*
X021028Y031282D01*
X021028Y031275D01*
X021028Y031269D01*
X021029Y031263D01*
X021030Y031260D01*
Y031256D01*
Y031254D01*
Y031253D01*
X021029Y031243D01*
X021028Y031233D01*
X021026Y031214D01*
X021024Y031205D01*
X021023Y031196D01*
X021021Y031188D01*
X021018Y031181D01*
X021016Y031174D01*
X021014Y031168D01*
X021012Y031163D01*
X021010Y031159D01*
X021009Y031156D01*
X021008Y031153D01*
X021007Y031151D01*
Y031151D01*
X021003Y031142D01*
X020998Y031134D01*
X020993Y031126D01*
X020987Y031119D01*
X020982Y031113D01*
X020976Y031107D01*
X020970Y031102D01*
X020965Y031096D01*
X020960Y031093D01*
X020956Y031089D01*
X020951Y031086D01*
X020947Y031082D01*
X020944Y031081D01*
X020942Y031079D01*
X020940Y031079D01*
X020940Y031078D01*
X020931Y031074D01*
X020923Y031070D01*
X020914Y031067D01*
X020905Y031063D01*
X020887Y031059D01*
X020879Y031058D01*
X020870Y031056D01*
X020863Y031055D01*
X020856Y031054D01*
X020850Y031054D01*
X020845Y031054D01*
X020840Y031053D01*
X020835D01*
X020817Y031054D01*
X020800Y031056D01*
X020784Y031058D01*
X020777Y031061D01*
X020770Y031062D01*
X020763Y031063D01*
X020758Y031065D01*
X020753Y031067D01*
X020749Y031068D01*
X020745Y031070D01*
X020743Y031070D01*
X020742Y031071D01*
X020741D01*
X020733Y031075D01*
X020724Y031078D01*
X020717Y031082D01*
X020710Y031085D01*
X020704Y031089D01*
X020698Y031092D01*
X020693Y031095D01*
X020688Y031098D01*
X020684Y031102D01*
X020680Y031104D01*
X020677Y031107D01*
X020675Y031109D01*
X020673Y031110D01*
X020671Y031112D01*
X020670Y031112D01*
X020670Y031112D01*
Y031266D01*
X020838D01*
Y031201D01*
X020749D01*
Y031152D01*
X020756Y031147D01*
X020763Y031142D01*
X020770Y031139D01*
X020777Y031135D01*
X020782Y031133D01*
X020787Y031130D01*
X020790Y031130D01*
X020791Y031129D01*
X020791D01*
X020800Y031126D01*
X020809Y031123D01*
X020817Y031122D01*
X020824Y031121D01*
X020831Y031120D01*
X020835Y031119D01*
X020840D01*
X020849Y031120D01*
X020857Y031121D01*
X020865Y031123D01*
X020873Y031125D01*
X020880Y031128D01*
X020886Y031130D01*
X020893Y031133D01*
X020898Y031137D01*
X020903Y031140D01*
X020907Y031143D01*
X020911Y031146D01*
X020914Y031148D01*
X020917Y031151D01*
X020918Y031152D01*
X020919Y031153D01*
X020919Y031154D01*
X020925Y031161D01*
X020930Y031168D01*
X020933Y031176D01*
X020937Y031184D01*
X020940Y031193D01*
X020942Y031202D01*
X020945Y031218D01*
X020947Y031226D01*
X020948Y031233D01*
X020949Y031240D01*
X020949Y031246D01*
X020949Y031250D01*
Y031253D01*
Y031256D01*
Y031256D01*
X020949Y031268D01*
X020948Y031279D01*
X020947Y031289D01*
X020945Y031298D01*
X020942Y031307D01*
X020940Y031315D01*
X020938Y031322D01*
X020935Y031328D01*
X020931Y031334D01*
X020929Y031339D01*
X020926Y031343D01*
X020924Y031346D01*
X020923Y031349D01*
X020921Y031351D01*
X020920Y031352D01*
X020919Y031353D01*
X020914Y031358D01*
X020907Y031363D01*
X020901Y031367D01*
X020894Y031372D01*
X020887Y031374D01*
X020881Y031377D01*
X020868Y031381D01*
X020862Y031383D01*
X020856Y031384D01*
X020852Y031384D01*
X020847Y031384D01*
X020844Y031385D01*
X020839D01*
X020827Y031384D01*
X020816Y031383D01*
X020807Y031380D01*
X020798Y031377D01*
X020791Y031374D01*
X020787Y031371D01*
X020784Y031369D01*
X020783Y031369D01*
X020775Y031362D01*
X020768Y031354D01*
X020763Y031347D01*
X020759Y031340D01*
X020756Y031333D01*
X020754Y031328D01*
X020753Y031326D01*
X020752Y031326D01*
X020752Y031325D01*
Y031324D01*
X020675Y031339D01*
X020677Y031348D01*
X020680Y031357D01*
X020684Y031365D01*
X020688Y031374D01*
X020693Y031381D01*
X020697Y031388D01*
X020701Y031394D01*
X020705Y031400D01*
X020710Y031405D01*
X020714Y031409D01*
X020717Y031412D01*
X020721Y031416D01*
X020724Y031418D01*
X020726Y031419D01*
X020727Y031421D01*
X020728Y031421D01*
X020735Y031426D01*
X020744Y031431D01*
X020752Y031435D01*
X020762Y031439D01*
X020771Y031442D01*
X020780Y031444D01*
X020798Y031448D01*
X020807Y031449D01*
X020814Y031450D01*
X020821Y031451D01*
X020827Y031451D01*
X020832Y031451D01*
X020839D01*
X020859Y031451D01*
D02*
G37*
G36*
X022826Y031059D02*
X022828Y031051D01*
X022831Y031043D01*
X022834Y031037D01*
X022838Y031031D01*
X022840Y031026D01*
X022843Y031023D01*
X022844Y031021D01*
X022845Y031021D01*
X022850Y031016D01*
X022856Y031012D01*
X022862Y031009D01*
X022868Y031007D01*
X022874Y031006D01*
X022878Y031005D01*
X022882Y031005D01*
X022882D01*
X022893Y031005D01*
X022898Y031006D01*
X022903Y031007D01*
X022908Y031007D01*
X022910Y031008D01*
X022912Y031009D01*
X022913D01*
X022907Y030951D01*
X022892Y030949D01*
X022885Y030947D01*
X022878Y030947D01*
X022873D01*
X022869Y030947D01*
X022858D01*
X022851Y030947D01*
X022845Y030948D01*
X022839Y030949D01*
X022834Y030949D01*
X022831Y030951D01*
X022829Y030951D01*
X022828D01*
X022822Y030953D01*
X022817Y030955D01*
X022812Y030957D01*
X022808Y030959D01*
X022805Y030961D01*
X022802Y030962D01*
X022801Y030963D01*
X022800Y030963D01*
X022792Y030970D01*
X022789Y030973D01*
X022785Y030977D01*
X022783Y030980D01*
X022781Y030982D01*
X022780Y030984D01*
X022780Y030984D01*
X022776Y030990D01*
X022773Y030996D01*
X022769Y031002D01*
X022767Y031008D01*
X022764Y031013D01*
X022762Y031017D01*
X022761Y031021D01*
X022761Y031021D01*
Y031021D01*
X022743Y031070D01*
X022645Y031339D01*
X022721D01*
X022787Y031140D01*
X022853Y031339D01*
X022931D01*
X022826Y031059D01*
D02*
G37*
G36*
X024772Y031394D02*
Y031339D01*
X024806D01*
Y031280D01*
X024772D01*
Y031158D01*
Y031151D01*
Y031144D01*
Y031139D01*
X024771Y031133D01*
Y031128D01*
Y031124D01*
X024771Y031117D01*
X024771Y031112D01*
Y031109D01*
X024770Y031107D01*
Y031106D01*
X024769Y031100D01*
X024767Y031094D01*
X024766Y031089D01*
X024764Y031085D01*
X024762Y031082D01*
X024760Y031079D01*
X024760Y031077D01*
X024760Y031077D01*
X024757Y031074D01*
X024753Y031070D01*
X024745Y031065D01*
X024741Y031063D01*
X024739Y031061D01*
X024736Y031061D01*
X024736Y031060D01*
X024730Y031058D01*
X024723Y031056D01*
X024718Y031055D01*
X024712Y031054D01*
X024708Y031054D01*
X024704Y031054D01*
X024701D01*
X024688Y031054D01*
X024678Y031055D01*
X024667Y031057D01*
X024659Y031059D01*
X024652Y031061D01*
X024646Y031063D01*
X024644Y031063D01*
X024643Y031063D01*
X024643Y031064D01*
X024642D01*
X024648Y031121D01*
X024655Y031119D01*
X024662Y031117D01*
X024667Y031116D01*
X024671Y031116D01*
X024674Y031115D01*
X024676Y031114D01*
X024678D01*
X024683Y031115D01*
X024688Y031116D01*
X024690Y031117D01*
X024690Y031118D01*
X024691D01*
X024694Y031121D01*
X024696Y031124D01*
X024697Y031126D01*
X024697Y031127D01*
Y031128D01*
X024698Y031130D01*
Y031136D01*
Y031142D01*
X024699Y031149D01*
Y031156D01*
Y031161D01*
Y031164D01*
Y031165D01*
Y031167D01*
Y031167D01*
Y031280D01*
X024648D01*
Y031339D01*
X024699D01*
Y031437D01*
X024772Y031394D01*
D02*
G37*
G36*
X023575Y031344D02*
X023586Y031344D01*
X023595Y031342D01*
X023603Y031339D01*
X023612Y031336D01*
X023619Y031332D01*
X023626Y031329D01*
X023632Y031326D01*
X023637Y031321D01*
X023642Y031318D01*
X023647Y031314D01*
X023651Y031312D01*
X023654Y031309D01*
X023656Y031307D01*
X023656Y031306D01*
X023657Y031305D01*
X023663Y031298D01*
X023669Y031290D01*
X023674Y031281D01*
X023678Y031272D01*
X023681Y031263D01*
X023684Y031254D01*
X023686Y031245D01*
X023688Y031237D01*
X023690Y031228D01*
X023691Y031221D01*
X023692Y031214D01*
X023693Y031209D01*
Y031203D01*
X023693Y031200D01*
Y031198D01*
Y031197D01*
X023693Y031186D01*
X023692Y031176D01*
X023691Y031167D01*
X023688Y031158D01*
X023686Y031149D01*
X023684Y031141D01*
X023682Y031134D01*
X023679Y031128D01*
X023677Y031121D01*
X023674Y031116D01*
X023672Y031112D01*
X023670Y031108D01*
X023668Y031105D01*
X023667Y031103D01*
X023666Y031102D01*
X023665Y031101D01*
X023658Y031093D01*
X023651Y031086D01*
X023643Y031079D01*
X023634Y031074D01*
X023626Y031069D01*
X023616Y031065D01*
X023607Y031062D01*
X023599Y031060D01*
X023591Y031058D01*
X023583Y031056D01*
X023577Y031055D01*
X023570Y031054D01*
X023565Y031054D01*
X023561Y031054D01*
X023558D01*
X023542Y031054D01*
X023527Y031057D01*
X023514Y031060D01*
X023509Y031062D01*
X023503Y031064D01*
X023498Y031066D01*
X023494Y031068D01*
X023491Y031070D01*
X023488Y031071D01*
X023485Y031072D01*
X023484Y031074D01*
X023482Y031075D01*
X023482D01*
X023472Y031083D01*
X023462Y031093D01*
X023454Y031103D01*
X023448Y031113D01*
X023443Y031122D01*
X023442Y031126D01*
X023440Y031130D01*
X023438Y031132D01*
X023438Y031134D01*
X023437Y031135D01*
Y031136D01*
X023510Y031149D01*
X023513Y031141D01*
X023516Y031135D01*
X023519Y031130D01*
X023522Y031125D01*
X023525Y031121D01*
X023527Y031119D01*
X023528Y031118D01*
X023529Y031117D01*
X023533Y031114D01*
X023538Y031112D01*
X023543Y031110D01*
X023547Y031109D01*
X023551Y031109D01*
X023554Y031109D01*
X023558D01*
X023567Y031109D01*
X023575Y031112D01*
X023582Y031114D01*
X023589Y031117D01*
X023593Y031121D01*
X023597Y031123D01*
X023599Y031126D01*
X023600Y031126D01*
X023605Y031134D01*
X023610Y031142D01*
X023613Y031151D01*
X023615Y031159D01*
X023616Y031167D01*
X023617Y031172D01*
X023617Y031175D01*
Y031177D01*
Y031177D01*
Y031178D01*
X023433D01*
Y031193D01*
X023434Y031207D01*
X023435Y031221D01*
X023438Y031233D01*
X023440Y031244D01*
X023443Y031255D01*
X023447Y031264D01*
X023449Y031272D01*
X023453Y031280D01*
X023456Y031286D01*
X023459Y031291D01*
X023462Y031296D01*
X023464Y031299D01*
X023466Y031302D01*
X023467Y031303D01*
X023468Y031304D01*
X023475Y031311D01*
X023482Y031317D01*
X023490Y031323D01*
X023498Y031328D01*
X023506Y031332D01*
X023514Y031335D01*
X023523Y031337D01*
X023530Y031340D01*
X023537Y031342D01*
X023544Y031343D01*
X023550Y031344D01*
X023555Y031344D01*
X023560D01*
X023563Y031345D01*
X023565D01*
X023575Y031344D01*
D02*
G37*
G36*
X024324Y032612D02*
X024324Y032598D01*
X024323Y032585D01*
X024321Y032575D01*
X024319Y032566D01*
X024318Y032559D01*
X024316Y032554D01*
X024316Y032552D01*
X024315Y032551D01*
X024315Y032550D01*
Y032550D01*
X024310Y032542D01*
X024306Y032536D01*
X024300Y032529D01*
X024295Y032524D01*
X024290Y032520D01*
X024286Y032518D01*
X024284Y032516D01*
X024283Y032515D01*
X024274Y032511D01*
X024265Y032508D01*
X024257Y032506D01*
X024249Y032505D01*
X024242Y032504D01*
X024237Y032503D01*
X024232D01*
X024222Y032504D01*
X024213Y032506D01*
X024204Y032508D01*
X024196Y032510D01*
X024189Y032512D01*
X024184Y032514D01*
X024183Y032515D01*
X024181Y032515D01*
X024181Y032516D01*
X024180D01*
X024171Y032522D01*
X024164Y032527D01*
X024157Y032533D01*
X024151Y032538D01*
X024146Y032543D01*
X024143Y032548D01*
X024141Y032550D01*
X024140Y032552D01*
Y032510D01*
X024072D01*
Y032789D01*
X024145D01*
Y032671D01*
Y032661D01*
Y032650D01*
X024146Y032642D01*
X024146Y032634D01*
X024147Y032627D01*
Y032621D01*
X024147Y032615D01*
X024148Y032611D01*
X024148Y032607D01*
X024149Y032603D01*
X024149Y032601D01*
X024150Y032599D01*
X024150Y032597D01*
Y032596D01*
X024151Y032596D01*
X024153Y032590D01*
X024156Y032585D01*
X024160Y032581D01*
X024163Y032577D01*
X024166Y032574D01*
X024169Y032572D01*
X024171Y032571D01*
X024171Y032570D01*
X024177Y032566D01*
X024183Y032564D01*
X024189Y032562D01*
X024194Y032562D01*
X024198Y032561D01*
X024202Y032560D01*
X024205D01*
X024211Y032561D01*
X024216Y032561D01*
X024221Y032562D01*
X024225Y032564D01*
X024228Y032565D01*
X024230Y032566D01*
X024232Y032567D01*
X024232Y032568D01*
X024236Y032571D01*
X024239Y032574D01*
X024241Y032578D01*
X024243Y032580D01*
X024245Y032583D01*
X024246Y032586D01*
X024247Y032587D01*
Y032588D01*
X024247Y032591D01*
X024248Y032595D01*
X024249Y032599D01*
X024249Y032605D01*
X024250Y032617D01*
X024250Y032629D01*
X024251Y032641D01*
Y032647D01*
Y032651D01*
Y032655D01*
Y032658D01*
Y032660D01*
Y032661D01*
Y032789D01*
X024324D01*
Y032612D01*
D02*
G37*
G36*
X024544Y031060D02*
X024473D01*
X024426Y031239D01*
X024378Y031060D01*
X024307D01*
X024218Y031339D01*
X024290D01*
X024344Y031156D01*
X024390Y031339D01*
X024461D01*
X024509Y031156D01*
X024561Y031339D01*
X024632D01*
X024544Y031060D01*
D02*
G37*
G36*
X024090Y031344D02*
X024098Y031343D01*
X024107Y031342D01*
X024114Y031340D01*
X024121Y031339D01*
X024127Y031337D01*
X024132Y031335D01*
X024137Y031333D01*
X024141Y031332D01*
X024144Y031330D01*
X024148Y031328D01*
X024149Y031327D01*
X024151Y031326D01*
X024152Y031325D01*
X024153D01*
X024162Y031317D01*
X024170Y031307D01*
X024177Y031298D01*
X024182Y031288D01*
X024186Y031279D01*
X024188Y031275D01*
X024189Y031272D01*
X024190Y031269D01*
X024190Y031267D01*
X024191Y031265D01*
Y031265D01*
X024125Y031253D01*
X024122Y031260D01*
X024119Y031265D01*
X024116Y031270D01*
X024114Y031274D01*
X024111Y031277D01*
X024109Y031279D01*
X024107Y031280D01*
X024107Y031281D01*
X024102Y031283D01*
X024097Y031285D01*
X024093Y031286D01*
X024088Y031288D01*
X024083Y031288D01*
X024079Y031288D01*
X024076D01*
X024066Y031288D01*
X024058Y031287D01*
X024051Y031286D01*
X024046Y031284D01*
X024042Y031282D01*
X024039Y031281D01*
X024037Y031279D01*
X024037Y031279D01*
X024033Y031275D01*
X024030Y031270D01*
X024028Y031265D01*
X024027Y031260D01*
X024026Y031256D01*
X024025Y031251D01*
Y031249D01*
Y031249D01*
Y031248D01*
Y031241D01*
X024030Y031240D01*
X024035Y031238D01*
X024039Y031236D01*
X024045Y031235D01*
X024057Y031232D01*
X024069Y031228D01*
X024080Y031226D01*
X024085Y031225D01*
X024089Y031224D01*
X024093Y031223D01*
X024095Y031223D01*
X024097Y031223D01*
X024097D01*
X024111Y031220D01*
X024123Y031217D01*
X024132Y031214D01*
X024141Y031212D01*
X024148Y031209D01*
X024152Y031207D01*
X024155Y031206D01*
X024156Y031205D01*
X024163Y031202D01*
X024169Y031197D01*
X024174Y031193D01*
X024179Y031188D01*
X024183Y031184D01*
X024186Y031181D01*
X024187Y031179D01*
X024188Y031177D01*
X024191Y031170D01*
X024194Y031163D01*
X024196Y031156D01*
X024197Y031149D01*
X024198Y031144D01*
X024199Y031140D01*
Y031137D01*
Y031136D01*
Y031135D01*
X024198Y031129D01*
X024197Y031123D01*
X024195Y031112D01*
X024190Y031101D01*
X024186Y031093D01*
X024181Y031086D01*
X024178Y031081D01*
X024176Y031079D01*
X024175Y031077D01*
X024174Y031077D01*
X024174Y031077D01*
X024169Y031072D01*
X024164Y031069D01*
X024153Y031063D01*
X024141Y031059D01*
X024130Y031056D01*
X024121Y031054D01*
X024116Y031054D01*
X024113D01*
X024110Y031054D01*
X024106D01*
X024097Y031054D01*
X024088Y031055D01*
X024081Y031056D01*
X024074Y031058D01*
X024069Y031060D01*
X024064Y031061D01*
X024062Y031062D01*
X024060Y031063D01*
X024053Y031067D01*
X024045Y031070D01*
X024038Y031075D01*
X024032Y031079D01*
X024027Y031084D01*
X024023Y031087D01*
X024021Y031089D01*
X024020Y031090D01*
X024019Y031088D01*
X024018Y031085D01*
X024018Y031082D01*
Y031082D01*
Y031082D01*
X024016Y031077D01*
X024014Y031072D01*
X024013Y031068D01*
X024012Y031065D01*
X024011Y031063D01*
X024011Y031061D01*
X024010Y031061D01*
Y031060D01*
X023937D01*
X023940Y031067D01*
X023944Y031074D01*
X023946Y031081D01*
X023948Y031086D01*
X023949Y031091D01*
X023950Y031094D01*
X023951Y031096D01*
Y031097D01*
X023951Y031105D01*
X023953Y031113D01*
X023953Y031122D01*
X023953Y031131D01*
X023954Y031139D01*
Y031142D01*
Y031146D01*
Y031148D01*
Y031150D01*
Y031151D01*
Y031151D01*
X023953Y031237D01*
Y031246D01*
X023953Y031254D01*
X023954Y031261D01*
X023955Y031268D01*
X023956Y031274D01*
X023956Y031279D01*
X023957Y031284D01*
X023958Y031288D01*
X023959Y031292D01*
X023960Y031295D01*
X023960Y031298D01*
X023962Y031300D01*
X023963Y031302D01*
X023963Y031304D01*
X023967Y031310D01*
X023972Y031316D01*
X023978Y031321D01*
X023984Y031325D01*
X023989Y031328D01*
X023993Y031331D01*
X023996Y031332D01*
X023997Y031333D01*
X023997D01*
X024002Y031335D01*
X024007Y031337D01*
X024018Y031340D01*
X024031Y031342D01*
X024042Y031344D01*
X024049Y031344D01*
X024053Y031344D01*
X024058D01*
X024062Y031345D01*
X024081D01*
X024090Y031344D01*
D02*
G37*
G36*
X022448Y031060D02*
X022370D01*
Y031176D01*
X022307Y031240D01*
X022201Y031060D01*
X022101D01*
X022253Y031295D01*
X022108Y031444D01*
X022213D01*
X022370Y031274D01*
Y031444D01*
X022448D01*
Y031060D01*
D02*
G37*
G36*
X023899Y032794D02*
X023909Y032794D01*
X023918Y032792D01*
X023927Y032789D01*
X023935Y032786D01*
X023943Y032782D01*
X023949Y032779D01*
X023956Y032775D01*
X023961Y032771D01*
X023966Y032768D01*
X023971Y032764D01*
X023974Y032761D01*
X023977Y032759D01*
X023979Y032757D01*
X023980Y032756D01*
X023981Y032755D01*
X023987Y032748D01*
X023993Y032740D01*
X023997Y032731D01*
X024002Y032722D01*
X024005Y032713D01*
X024008Y032704D01*
X024010Y032695D01*
X024012Y032687D01*
X024014Y032678D01*
X024015Y032671D01*
X024016Y032664D01*
X024016Y032659D01*
Y032654D01*
X024017Y032650D01*
Y032648D01*
Y032647D01*
X024016Y032636D01*
X024016Y032626D01*
X024014Y032617D01*
X024012Y032608D01*
X024010Y032599D01*
X024008Y032591D01*
X024006Y032584D01*
X024003Y032578D01*
X024000Y032571D01*
X023998Y032566D01*
X023996Y032562D01*
X023994Y032558D01*
X023992Y032555D01*
X023990Y032553D01*
X023990Y032552D01*
X023989Y032551D01*
X023982Y032543D01*
X023975Y032536D01*
X023967Y032529D01*
X023958Y032524D01*
X023949Y032519D01*
X023940Y032515D01*
X023931Y032512D01*
X023923Y032510D01*
X023915Y032508D01*
X023907Y032506D01*
X023900Y032505D01*
X023894Y032504D01*
X023889Y032504D01*
X023885Y032503D01*
X023882D01*
X023866Y032504D01*
X023851Y032507D01*
X023838Y032510D01*
X023832Y032512D01*
X023827Y032514D01*
X023822Y032516D01*
X023818Y032518D01*
X023814Y032520D01*
X023811Y032521D01*
X023809Y032522D01*
X023807Y032524D01*
X023806Y032524D01*
X023806D01*
X023795Y032533D01*
X023786Y032543D01*
X023778Y032553D01*
X023772Y032563D01*
X023767Y032572D01*
X023765Y032576D01*
X023763Y032580D01*
X023762Y032582D01*
X023761Y032584D01*
X023761Y032585D01*
Y032586D01*
X023834Y032599D01*
X023837Y032591D01*
X023840Y032585D01*
X023843Y032580D01*
X023846Y032575D01*
X023849Y032571D01*
X023851Y032569D01*
X023852Y032568D01*
X023853Y032568D01*
X023857Y032564D01*
X023862Y032562D01*
X023867Y032561D01*
X023871Y032559D01*
X023875Y032559D01*
X023878Y032559D01*
X023881D01*
X023890Y032559D01*
X023899Y032562D01*
X023906Y032564D01*
X023912Y032568D01*
X023917Y032571D01*
X023921Y032573D01*
X023923Y032576D01*
X023924Y032576D01*
X023929Y032584D01*
X023934Y032592D01*
X023937Y032601D01*
X023939Y032609D01*
X023940Y032617D01*
X023941Y032622D01*
X023941Y032625D01*
Y032627D01*
Y032627D01*
Y032628D01*
X023757D01*
Y032643D01*
X023758Y032657D01*
X023759Y032671D01*
X023761Y032683D01*
X023764Y032694D01*
X023767Y032705D01*
X023770Y032714D01*
X023773Y032722D01*
X023777Y032730D01*
X023780Y032736D01*
X023783Y032741D01*
X023786Y032746D01*
X023788Y032749D01*
X023790Y032752D01*
X023791Y032753D01*
X023791Y032754D01*
X023798Y032761D01*
X023806Y032767D01*
X023814Y032773D01*
X023822Y032778D01*
X023830Y032782D01*
X023838Y032785D01*
X023846Y032787D01*
X023854Y032790D01*
X023861Y032792D01*
X023868Y032793D01*
X023874Y032794D01*
X023879Y032794D01*
X023883D01*
X023886Y032795D01*
X023889D01*
X023899Y032794D01*
D02*
G37*
G36*
X021962Y031060D02*
X021879D01*
X021741Y031444D01*
X021823D01*
X021918Y031160D01*
X022015Y031444D01*
X022099D01*
X021962Y031060D01*
D02*
G37*
G36*
X021423Y031451D02*
X021432Y031451D01*
X021439Y031449D01*
X021448Y031448D01*
X021455Y031446D01*
X021461Y031444D01*
X021467Y031442D01*
X021472Y031439D01*
X021477Y031437D01*
X021481Y031435D01*
X021485Y031432D01*
X021488Y031431D01*
X021490Y031430D01*
X021491Y031428D01*
X021493Y031428D01*
X021493Y031427D01*
X021498Y031423D01*
X021502Y031418D01*
X021505Y031412D01*
X021509Y031407D01*
X021514Y031398D01*
X021517Y031388D01*
X021519Y031380D01*
X021519Y031377D01*
X021520Y031374D01*
X021521Y031371D01*
Y031369D01*
Y031368D01*
Y031367D01*
X021520Y031360D01*
X021519Y031353D01*
X021518Y031346D01*
X021516Y031340D01*
X021514Y031335D01*
X021512Y031331D01*
X021511Y031328D01*
X021511Y031328D01*
Y031328D01*
X021507Y031319D01*
X021502Y031312D01*
X021497Y031304D01*
X021492Y031298D01*
X021488Y031291D01*
X021484Y031287D01*
X021482Y031284D01*
X021481Y031284D01*
Y031283D01*
X021489Y031279D01*
X021497Y031274D01*
X021503Y031270D01*
X021509Y031266D01*
X021516Y031261D01*
X021521Y031258D01*
X021525Y031253D01*
X021530Y031249D01*
X021534Y031246D01*
X021537Y031242D01*
X021540Y031239D01*
X021542Y031237D01*
X021544Y031235D01*
X021546Y031233D01*
X021546Y031232D01*
X021546Y031232D01*
X021551Y031226D01*
X021553Y031220D01*
X021559Y031209D01*
X021563Y031198D01*
X021565Y031187D01*
X021567Y031179D01*
X021568Y031174D01*
Y031172D01*
X021569Y031168D01*
Y031167D01*
Y031165D01*
Y031165D01*
X021568Y031158D01*
X021567Y031151D01*
X021564Y031137D01*
X021560Y031124D01*
X021555Y031114D01*
X021552Y031109D01*
X021549Y031105D01*
X021547Y031102D01*
X021545Y031098D01*
X021543Y031096D01*
X021542Y031095D01*
X021541Y031093D01*
X021541Y031093D01*
X021534Y031086D01*
X021525Y031080D01*
X021517Y031075D01*
X021509Y031070D01*
X021500Y031066D01*
X021490Y031063D01*
X021482Y031060D01*
X021473Y031058D01*
X021465Y031056D01*
X021458Y031055D01*
X021451Y031054D01*
X021444Y031054D01*
X021440D01*
X021436Y031053D01*
X021433D01*
X021420Y031054D01*
X021408Y031054D01*
X021397Y031056D01*
X021388Y031058D01*
X021381Y031060D01*
X021377Y031061D01*
X021375Y031061D01*
X021373Y031061D01*
X021372Y031062D01*
X021371Y031063D01*
X021370D01*
X021360Y031067D01*
X021351Y031072D01*
X021343Y031077D01*
X021336Y031082D01*
X021330Y031086D01*
X021325Y031091D01*
X021322Y031093D01*
X021321Y031094D01*
X021309Y031084D01*
X021298Y031075D01*
X021288Y031068D01*
X021278Y031061D01*
X021270Y031056D01*
X021266Y031054D01*
X021263Y031053D01*
X021260Y031051D01*
X021259Y031051D01*
X021258Y031050D01*
X021258D01*
X021212Y031107D01*
X021216Y031109D01*
X021221Y031111D01*
X021231Y031117D01*
X021235Y031120D01*
X021239Y031123D01*
X021241Y031124D01*
X021242Y031124D01*
X021249Y031130D01*
X021255Y031135D01*
X021260Y031139D01*
X021265Y031143D01*
X021268Y031146D01*
X021272Y031149D01*
X021273Y031150D01*
X021274Y031151D01*
X021267Y031160D01*
X021265Y031164D01*
X021263Y031168D01*
X021261Y031172D01*
X021260Y031175D01*
X021258Y031177D01*
X021258Y031177D01*
X021255Y031184D01*
X021252Y031193D01*
X021249Y031201D01*
X021247Y031209D01*
X021244Y031218D01*
X021243Y031221D01*
X021242Y031223D01*
X021242Y031226D01*
X021241Y031228D01*
X021240Y031229D01*
Y031230D01*
X021307Y031244D01*
X021310Y031235D01*
X021313Y031226D01*
X021316Y031219D01*
X021319Y031212D01*
X021321Y031207D01*
X021323Y031204D01*
X021323Y031202D01*
X021324Y031201D01*
X021377Y031272D01*
X021370Y031277D01*
X021363Y031281D01*
X021356Y031286D01*
X021351Y031291D01*
X021346Y031295D01*
X021341Y031298D01*
X021337Y031302D01*
X021333Y031305D01*
X021328Y031312D01*
X021324Y031316D01*
X021321Y031319D01*
X021321Y031319D01*
X021316Y031328D01*
X021313Y031335D01*
X021311Y031342D01*
X021309Y031349D01*
X021307Y031355D01*
X021307Y031360D01*
Y031363D01*
Y031363D01*
X021307Y031370D01*
X021308Y031377D01*
X021309Y031383D01*
X021312Y031389D01*
X021316Y031400D01*
X021321Y031409D01*
X021326Y031416D01*
X021329Y031419D01*
X021331Y031421D01*
X021333Y031423D01*
X021335Y031425D01*
X021335Y031425D01*
X021335Y031426D01*
X021341Y031430D01*
X021347Y031435D01*
X021353Y031438D01*
X021360Y031441D01*
X021372Y031446D01*
X021384Y031449D01*
X021391Y031449D01*
X021396Y031450D01*
X021400Y031451D01*
X021405Y031451D01*
X021408Y031451D01*
X021413D01*
X021423Y031451D01*
D02*
G37*
G36*
X021409Y032890D02*
X021412Y032884D01*
X021419Y032872D01*
X021426Y032861D01*
X021434Y032852D01*
X021441Y032845D01*
X021444Y032841D01*
X021447Y032839D01*
X021450Y032837D01*
X021451Y032836D01*
X021452Y032835D01*
X021453Y032834D01*
X021465Y032826D01*
X021477Y032818D01*
X021487Y032812D01*
X021496Y032807D01*
X021504Y032803D01*
X021507Y032802D01*
X021510Y032801D01*
X021512Y032800D01*
X021513Y032799D01*
X021514Y032799D01*
X021515D01*
Y032732D01*
X021495Y032740D01*
X021477Y032748D01*
X021469Y032753D01*
X021461Y032757D01*
X021453Y032762D01*
X021447Y032766D01*
X021441Y032771D01*
X021435Y032775D01*
X021431Y032778D01*
X021427Y032782D01*
X021424Y032784D01*
X021422Y032786D01*
X021420Y032787D01*
X021420Y032787D01*
Y032510D01*
X021346D01*
Y032896D01*
X021406D01*
X021409Y032890D01*
D02*
G37*
G36*
X022188Y032510D02*
X022122D01*
X022011Y032789D01*
X022087D01*
X022140Y032646D01*
X022143Y032638D01*
X022144Y032634D01*
X022145Y032630D01*
X022146Y032627D01*
X022147Y032624D01*
X022148Y032623D01*
Y032622D01*
X022148Y032620D01*
X022150Y032616D01*
X022152Y032608D01*
X022153Y032604D01*
X022154Y032601D01*
X022155Y032599D01*
X022155Y032599D01*
X022170Y032646D01*
X022223Y032789D01*
X022300D01*
X022188Y032510D01*
D02*
G37*
G36*
X021853Y032896D02*
X021864Y032894D01*
X021874Y032892D01*
X021884Y032889D01*
X021893Y032885D01*
X021901Y032882D01*
X021909Y032878D01*
X021915Y032873D01*
X021922Y032868D01*
X021927Y032864D01*
X021932Y032861D01*
X021936Y032857D01*
X021939Y032854D01*
X021941Y032852D01*
X021942Y032850D01*
X021943Y032850D01*
X021950Y032840D01*
X021956Y032829D01*
X021961Y032818D01*
X021965Y032806D01*
X021969Y032793D01*
X021972Y032780D01*
X021975Y032768D01*
X021977Y032755D01*
X021978Y032743D01*
X021980Y032733D01*
X021981Y032722D01*
X021981Y032714D01*
Y032706D01*
X021982Y032703D01*
Y032701D01*
Y032699D01*
Y032698D01*
Y032697D01*
Y032696D01*
X021981Y032678D01*
X021980Y032661D01*
X021978Y032645D01*
X021976Y032630D01*
X021973Y032617D01*
X021970Y032604D01*
X021967Y032594D01*
X021963Y032583D01*
X021960Y032575D01*
X021956Y032568D01*
X021953Y032562D01*
X021951Y032557D01*
X021948Y032553D01*
X021946Y032550D01*
X021945Y032548D01*
X021945Y032548D01*
X021937Y032540D01*
X021930Y032533D01*
X021922Y032527D01*
X021914Y032522D01*
X021906Y032517D01*
X021898Y032514D01*
X021890Y032511D01*
X021883Y032508D01*
X021876Y032507D01*
X021869Y032506D01*
X021863Y032504D01*
X021858Y032503D01*
X021854D01*
X021851Y032503D01*
X021849D01*
X021839Y032503D01*
X021829Y032504D01*
X021821Y032506D01*
X021812Y032508D01*
X021804Y032511D01*
X021797Y032514D01*
X021790Y032517D01*
X021784Y032521D01*
X021779Y032524D01*
X021774Y032527D01*
X021770Y032531D01*
X021766Y032533D01*
X021764Y032535D01*
X021762Y032537D01*
X021761Y032538D01*
X021760Y032538D01*
X021754Y032545D01*
X021749Y032553D01*
X021744Y032561D01*
X021740Y032569D01*
X021737Y032576D01*
X021734Y032585D01*
X021731Y032592D01*
X021730Y032599D01*
X021728Y032606D01*
X021727Y032613D01*
X021726Y032619D01*
X021726Y032624D01*
X021725Y032628D01*
Y032631D01*
Y032633D01*
Y032634D01*
X021726Y032644D01*
X021727Y032654D01*
X021728Y032662D01*
X021730Y032671D01*
X021733Y032680D01*
X021736Y032687D01*
X021739Y032694D01*
X021742Y032700D01*
X021745Y032706D01*
X021748Y032710D01*
X021751Y032715D01*
X021753Y032718D01*
X021755Y032721D01*
X021757Y032723D01*
X021758Y032724D01*
X021758Y032724D01*
X021765Y032731D01*
X021771Y032736D01*
X021778Y032741D01*
X021784Y032745D01*
X021791Y032748D01*
X021798Y032752D01*
X021804Y032754D01*
X021810Y032755D01*
X021816Y032757D01*
X021821Y032758D01*
X021826Y032759D01*
X021830Y032759D01*
X021833Y032760D01*
X021837D01*
X021845Y032759D01*
X021852Y032759D01*
X021859Y032757D01*
X021865Y032755D01*
X021877Y032750D01*
X021887Y032743D01*
X021891Y032740D01*
X021895Y032738D01*
X021898Y032734D01*
X021901Y032732D01*
X021903Y032730D01*
X021904Y032729D01*
X021905Y032727D01*
X021906Y032727D01*
X021905Y032739D01*
X021904Y032750D01*
X021902Y032760D01*
X021901Y032768D01*
X021899Y032777D01*
X021898Y032784D01*
X021896Y032790D01*
X021894Y032796D01*
X021893Y032801D01*
X021891Y032805D01*
X021890Y032808D01*
X021888Y032810D01*
X021887Y032812D01*
X021886Y032813D01*
X021886Y032815D01*
X021879Y032822D01*
X021873Y032826D01*
X021866Y032831D01*
X021860Y032833D01*
X021854Y032834D01*
X021850Y032835D01*
X021847Y032836D01*
X021846D01*
X021840Y032835D01*
X021834Y032834D01*
X021830Y032832D01*
X021825Y032831D01*
X021822Y032829D01*
X021820Y032826D01*
X021818Y032826D01*
X021818Y032825D01*
X021814Y032820D01*
X021811Y032815D01*
X021808Y032810D01*
X021807Y032805D01*
X021805Y032801D01*
X021804Y032796D01*
X021804Y032794D01*
Y032794D01*
Y032793D01*
X021732Y032801D01*
X021734Y032809D01*
X021736Y032817D01*
X021739Y032824D01*
X021741Y032831D01*
X021744Y032838D01*
X021747Y032843D01*
X021751Y032848D01*
X021754Y032854D01*
X021757Y032857D01*
X021760Y032861D01*
X021762Y032864D01*
X021765Y032867D01*
X021767Y032869D01*
X021768Y032871D01*
X021769Y032871D01*
X021769Y032871D01*
X021775Y032876D01*
X021781Y032880D01*
X021787Y032883D01*
X021793Y032886D01*
X021805Y032891D01*
X021816Y032894D01*
X021821Y032894D01*
X021826Y032895D01*
X021831Y032896D01*
X021834D01*
X021837Y032896D01*
X021842D01*
X021853Y032896D01*
D02*
G37*
G36*
X022951Y032794D02*
X022960Y032793D01*
X022968Y032792D01*
X022975Y032791D01*
X022982Y032789D01*
X022988Y032787D01*
X022993Y032785D01*
X022998Y032783D01*
X023002Y032782D01*
X023006Y032780D01*
X023009Y032778D01*
X023011Y032777D01*
X023012Y032776D01*
X023013Y032775D01*
X023014D01*
X023023Y032767D01*
X023031Y032757D01*
X023038Y032747D01*
X023043Y032738D01*
X023047Y032729D01*
X023049Y032725D01*
X023050Y032722D01*
X023051Y032719D01*
X023052Y032717D01*
X023052Y032715D01*
Y032715D01*
X022986Y032703D01*
X022983Y032710D01*
X022980Y032715D01*
X022977Y032720D01*
X022975Y032724D01*
X022972Y032727D01*
X022970Y032729D01*
X022969Y032730D01*
X022968Y032731D01*
X022964Y032733D01*
X022959Y032735D01*
X022954Y032736D01*
X022949Y032738D01*
X022944Y032738D01*
X022941Y032738D01*
X022937D01*
X022927Y032738D01*
X022919Y032737D01*
X022912Y032736D01*
X022907Y032734D01*
X022903Y032732D01*
X022900Y032731D01*
X022898Y032729D01*
X022898Y032729D01*
X022894Y032725D01*
X022891Y032720D01*
X022889Y032715D01*
X022888Y032710D01*
X022887Y032706D01*
X022887Y032701D01*
Y032699D01*
Y032699D01*
Y032698D01*
Y032691D01*
X022891Y032689D01*
X022896Y032688D01*
X022901Y032686D01*
X022906Y032685D01*
X022918Y032682D01*
X022930Y032678D01*
X022941Y032676D01*
X022946Y032675D01*
X022950Y032674D01*
X022954Y032673D01*
X022956Y032673D01*
X022958Y032673D01*
X022959D01*
X022972Y032670D01*
X022984Y032667D01*
X022994Y032664D01*
X023002Y032661D01*
X023009Y032659D01*
X023013Y032657D01*
X023016Y032656D01*
X023017Y032655D01*
X023024Y032652D01*
X023031Y032647D01*
X023036Y032643D01*
X023040Y032638D01*
X023044Y032634D01*
X023047Y032631D01*
X023048Y032629D01*
X023049Y032627D01*
X023052Y032620D01*
X023055Y032613D01*
X023057Y032606D01*
X023058Y032599D01*
X023059Y032594D01*
X023060Y032589D01*
Y032587D01*
Y032586D01*
Y032585D01*
X023059Y032579D01*
X023059Y032573D01*
X023056Y032562D01*
X023052Y032551D01*
X023047Y032543D01*
X023043Y032536D01*
X023039Y032531D01*
X023037Y032529D01*
X023036Y032527D01*
X023036Y032527D01*
X023035Y032527D01*
X023030Y032522D01*
X023025Y032519D01*
X023014Y032513D01*
X023003Y032509D01*
X022992Y032506D01*
X022982Y032504D01*
X022978Y032504D01*
X022974D01*
X022971Y032503D01*
X022967D01*
X022958Y032504D01*
X022950Y032505D01*
X022942Y032506D01*
X022935Y032508D01*
X022930Y032510D01*
X022925Y032511D01*
X022923Y032512D01*
X022922Y032513D01*
X022914Y032517D01*
X022906Y032520D01*
X022899Y032525D01*
X022893Y032529D01*
X022888Y032534D01*
X022885Y032537D01*
X022882Y032539D01*
X022881Y032540D01*
X022880Y032538D01*
X022880Y032535D01*
X022879Y032532D01*
Y032532D01*
Y032531D01*
X022877Y032527D01*
X022876Y032522D01*
X022874Y032518D01*
X022873Y032515D01*
X022872Y032513D01*
X022872Y032511D01*
X022871Y032510D01*
Y032510D01*
X022798D01*
X022802Y032517D01*
X022805Y032524D01*
X022807Y032531D01*
X022809Y032536D01*
X022810Y032541D01*
X022811Y032544D01*
X022812Y032546D01*
Y032547D01*
X022813Y032555D01*
X022814Y032563D01*
X022814Y032572D01*
X022815Y032581D01*
X022815Y032589D01*
Y032592D01*
Y032596D01*
Y032598D01*
Y032600D01*
Y032601D01*
Y032601D01*
X022814Y032687D01*
Y032696D01*
X022815Y032704D01*
X022815Y032712D01*
X022816Y032718D01*
X022817Y032724D01*
X022817Y032729D01*
X022818Y032734D01*
X022819Y032738D01*
X022820Y032742D01*
X022821Y032745D01*
X022822Y032748D01*
X022823Y032750D01*
X022824Y032752D01*
X022824Y032754D01*
X022829Y032760D01*
X022834Y032766D01*
X022839Y032771D01*
X022845Y032775D01*
X022850Y032778D01*
X022854Y032781D01*
X022857Y032782D01*
X022858Y032783D01*
X022858D01*
X022863Y032785D01*
X022868Y032787D01*
X022880Y032790D01*
X022892Y032792D01*
X022904Y032794D01*
X022910Y032794D01*
X022915Y032794D01*
X022920D01*
X022924Y032795D01*
X022942D01*
X022951Y032794D01*
D02*
G37*
G36*
X023249D02*
X023258Y032793D01*
X023266Y032792D01*
X023273Y032791D01*
X023280Y032789D01*
X023286Y032787D01*
X023292Y032785D01*
X023296Y032783D01*
X023301Y032782D01*
X023304Y032780D01*
X023307Y032778D01*
X023309Y032777D01*
X023311Y032776D01*
X023312Y032775D01*
X023312D01*
X023322Y032767D01*
X023330Y032757D01*
X023337Y032747D01*
X023342Y032738D01*
X023346Y032729D01*
X023347Y032725D01*
X023349Y032722D01*
X023350Y032719D01*
X023350Y032717D01*
X023351Y032715D01*
Y032715D01*
X023284Y032703D01*
X023282Y032710D01*
X023279Y032715D01*
X023276Y032720D01*
X023273Y032724D01*
X023271Y032727D01*
X023269Y032729D01*
X023267Y032730D01*
X023267Y032731D01*
X023262Y032733D01*
X023257Y032735D01*
X023252Y032736D01*
X023247Y032738D01*
X023243Y032738D01*
X023239Y032738D01*
X023236D01*
X023226Y032738D01*
X023217Y032737D01*
X023210Y032736D01*
X023205Y032734D01*
X023201Y032732D01*
X023198Y032731D01*
X023197Y032729D01*
X023196Y032729D01*
X023193Y032725D01*
X023190Y032720D01*
X023188Y032715D01*
X023187Y032710D01*
X023186Y032706D01*
X023185Y032701D01*
Y032699D01*
Y032699D01*
Y032698D01*
Y032691D01*
X023189Y032689D01*
X023194Y032688D01*
X023199Y032686D01*
X023205Y032685D01*
X023217Y032682D01*
X023229Y032678D01*
X023240Y032676D01*
X023245Y032675D01*
X023249Y032674D01*
X023252Y032673D01*
X023255Y032673D01*
X023257Y032673D01*
X023257D01*
X023271Y032670D01*
X023282Y032667D01*
X023292Y032664D01*
X023301Y032661D01*
X023307Y032659D01*
X023312Y032657D01*
X023315Y032656D01*
X023316Y032655D01*
X023323Y032652D01*
X023329Y032647D01*
X023334Y032643D01*
X023339Y032638D01*
X023343Y032634D01*
X023345Y032631D01*
X023347Y032629D01*
X023347Y032627D01*
X023351Y032620D01*
X023354Y032613D01*
X023356Y032606D01*
X023357Y032599D01*
X023358Y032594D01*
X023358Y032589D01*
Y032587D01*
Y032586D01*
Y032585D01*
X023358Y032579D01*
X023357Y032573D01*
X023354Y032562D01*
X023350Y032551D01*
X023346Y032543D01*
X023341Y032536D01*
X023338Y032531D01*
X023336Y032529D01*
X023335Y032527D01*
X023334Y032527D01*
X023334Y032527D01*
X023329Y032522D01*
X023324Y032519D01*
X023313Y032513D01*
X023301Y032509D01*
X023290Y032506D01*
X023281Y032504D01*
X023276Y032504D01*
X023273D01*
X023270Y032503D01*
X023266D01*
X023257Y032504D01*
X023248Y032505D01*
X023241Y032506D01*
X023234Y032508D01*
X023228Y032510D01*
X023224Y032511D01*
X023221Y032512D01*
X023220Y032513D01*
X023212Y032517D01*
X023205Y032520D01*
X023198Y032525D01*
X023192Y032529D01*
X023187Y032534D01*
X023183Y032537D01*
X023181Y032539D01*
X023180Y032540D01*
X023179Y032538D01*
X023178Y032535D01*
X023177Y032532D01*
Y032532D01*
Y032531D01*
X023176Y032527D01*
X023174Y032522D01*
X023173Y032518D01*
X023172Y032515D01*
X023171Y032513D01*
X023170Y032511D01*
X023170Y032510D01*
Y032510D01*
X023097D01*
X023100Y032517D01*
X023103Y032524D01*
X023105Y032531D01*
X023107Y032536D01*
X023109Y032541D01*
X023110Y032544D01*
X023110Y032546D01*
Y032547D01*
X023111Y032555D01*
X023112Y032563D01*
X023113Y032572D01*
X023113Y032581D01*
X023114Y032589D01*
Y032592D01*
Y032596D01*
Y032598D01*
Y032600D01*
Y032601D01*
Y032601D01*
X023113Y032687D01*
Y032696D01*
X023113Y032704D01*
X023114Y032712D01*
X023114Y032718D01*
X023115Y032724D01*
X023116Y032729D01*
X023117Y032734D01*
X023118Y032738D01*
X023119Y032742D01*
X023120Y032745D01*
X023120Y032748D01*
X023121Y032750D01*
X023122Y032752D01*
X023123Y032754D01*
X023127Y032760D01*
X023132Y032766D01*
X023138Y032771D01*
X023143Y032775D01*
X023149Y032778D01*
X023153Y032781D01*
X023156Y032782D01*
X023156Y032783D01*
X023157D01*
X023162Y032785D01*
X023167Y032787D01*
X023178Y032790D01*
X023191Y032792D01*
X023202Y032794D01*
X023208Y032794D01*
X023213Y032794D01*
X023218D01*
X023222Y032795D01*
X023240D01*
X023249Y032794D01*
D02*
G37*
G36*
X022745Y032510D02*
X022676D01*
Y032550D01*
X022670Y032543D01*
X022663Y032536D01*
X022656Y032529D01*
X022650Y032524D01*
X022645Y032520D01*
X022641Y032518D01*
X022638Y032516D01*
X022637Y032515D01*
X022628Y032511D01*
X022619Y032508D01*
X022611Y032506D01*
X022604Y032505D01*
X022598Y032504D01*
X022593Y032503D01*
X022589D01*
X022580Y032504D01*
X022572Y032505D01*
X022564Y032507D01*
X022556Y032510D01*
X022549Y032513D01*
X022542Y032515D01*
X022536Y032519D01*
X022530Y032523D01*
X022525Y032527D01*
X022520Y032530D01*
X022516Y032533D01*
X022513Y032536D01*
X022510Y032538D01*
X022508Y032541D01*
X022507Y032541D01*
X022507Y032542D01*
X022501Y032550D01*
X022496Y032558D01*
X022491Y032566D01*
X022487Y032576D01*
X022484Y032585D01*
X022481Y032594D01*
X022477Y032611D01*
X022476Y032620D01*
X022475Y032627D01*
X022474Y032634D01*
X022473Y032640D01*
X022473Y032645D01*
Y032649D01*
Y032651D01*
Y032652D01*
X022473Y032664D01*
X022474Y032676D01*
X022476Y032687D01*
X022478Y032698D01*
X022481Y032707D01*
X022483Y032716D01*
X022486Y032724D01*
X022489Y032731D01*
X022493Y032737D01*
X022496Y032743D01*
X022498Y032747D01*
X022501Y032751D01*
X022503Y032754D01*
X022505Y032757D01*
X022506Y032757D01*
X022506Y032758D01*
X022513Y032764D01*
X022519Y032770D01*
X022526Y032775D01*
X022534Y032780D01*
X022541Y032783D01*
X022548Y032786D01*
X022555Y032789D01*
X022561Y032791D01*
X022567Y032792D01*
X022573Y032793D01*
X022578Y032794D01*
X022582Y032794D01*
X022586Y032795D01*
X022591D01*
X022599Y032794D01*
X022608Y032794D01*
X022615Y032792D01*
X022623Y032789D01*
X022637Y032782D01*
X022643Y032779D01*
X022648Y032775D01*
X022654Y032772D01*
X022658Y032768D01*
X022662Y032765D01*
X022665Y032762D01*
X022668Y032759D01*
X022670Y032757D01*
X022671Y032757D01*
X022671Y032756D01*
Y032894D01*
X022745D01*
Y032510D01*
D02*
G37*
G36*
X023758Y031344D02*
X023765Y031344D01*
X023770Y031342D01*
X023774Y031340D01*
X023778Y031339D01*
X023781Y031337D01*
X023783Y031336D01*
X023784Y031335D01*
X023789Y031332D01*
X023795Y031326D01*
X023800Y031320D01*
X023805Y031314D01*
X023809Y031308D01*
X023812Y031303D01*
X023814Y031301D01*
X023814Y031300D01*
X023815Y031299D01*
Y031339D01*
X023884D01*
Y031060D01*
X023810D01*
Y031146D01*
Y031159D01*
X023809Y031170D01*
Y031181D01*
X023809Y031191D01*
X023809Y031199D01*
X023808Y031207D01*
X023807Y031214D01*
X023807Y031219D01*
X023807Y031224D01*
X023806Y031228D01*
X023805Y031232D01*
X023805Y031235D01*
X023805Y031237D01*
X023804Y031238D01*
Y031239D01*
X023802Y031247D01*
X023799Y031253D01*
X023796Y031258D01*
X023793Y031263D01*
X023791Y031266D01*
X023789Y031268D01*
X023788Y031270D01*
X023788Y031270D01*
X023783Y031273D01*
X023779Y031275D01*
X023774Y031277D01*
X023770Y031278D01*
X023766Y031279D01*
X023763Y031279D01*
X023760D01*
X023754Y031279D01*
X023749Y031277D01*
X023742Y031275D01*
X023737Y031273D01*
X023733Y031270D01*
X023729Y031268D01*
X023727Y031267D01*
X023726Y031267D01*
X023703Y031331D01*
X023712Y031335D01*
X023721Y031339D01*
X023729Y031342D01*
X023737Y031344D01*
X023742Y031344D01*
X023747Y031345D01*
X023752D01*
X023758Y031344D01*
D02*
G37*
G36*
X024871Y031451D02*
X024881Y031450D01*
X024890Y031448D01*
X024897Y031446D01*
X024903Y031444D01*
X024908Y031442D01*
X024910Y031441D01*
X024911Y031440D01*
X024918Y031436D01*
X024924Y031432D01*
X024929Y031426D01*
X024932Y031422D01*
X024935Y031418D01*
X024937Y031415D01*
X024938Y031413D01*
X024938Y031412D01*
X024941Y031405D01*
X024943Y031397D01*
X024944Y031388D01*
X024945Y031379D01*
X024945Y031372D01*
X024945Y031368D01*
Y031365D01*
Y031363D01*
Y031361D01*
Y031360D01*
Y031360D01*
Y031339D01*
X024987D01*
Y031281D01*
X024945D01*
Y031060D01*
X024872D01*
Y031281D01*
X024817D01*
Y031339D01*
X024872D01*
Y031358D01*
X024871Y031365D01*
X024871Y031372D01*
X024870Y031377D01*
X024869Y031381D01*
X024867Y031384D01*
X024866Y031386D01*
X024866Y031386D01*
X024865Y031387D01*
X024862Y031390D01*
X024859Y031391D01*
X024855Y031393D01*
X024851Y031394D01*
X024848Y031395D01*
X024845Y031395D01*
X024842D01*
X024829Y031395D01*
X024824Y031393D01*
X024818Y031393D01*
X024814Y031392D01*
X024811Y031391D01*
X024808Y031391D01*
X024808D01*
X024798Y031442D01*
X024810Y031445D01*
X024820Y031448D01*
X024831Y031449D01*
X024841Y031451D01*
X024848Y031451D01*
X024852D01*
X024855Y031451D01*
X024860D01*
X024871Y031451D01*
D02*
G37*
G36*
X020596Y031060D02*
X020326D01*
Y031125D01*
X020519D01*
Y031442D01*
X020596D01*
Y031060D01*
D02*
G37*
G36*
X025522Y031451D02*
X025536Y031449D01*
X025549Y031447D01*
X025555Y031446D01*
X025560Y031445D01*
X025565Y031444D01*
X025569Y031442D01*
X025573Y031441D01*
X025576Y031440D01*
X025578Y031439D01*
X025580Y031439D01*
X025581Y031438D01*
X025582D01*
X025593Y031432D01*
X025602Y031426D01*
X025610Y031419D01*
X025617Y031413D01*
X025622Y031407D01*
X025626Y031403D01*
X025628Y031400D01*
X025629Y031399D01*
Y031398D01*
X025635Y031389D01*
X025638Y031379D01*
X025642Y031370D01*
X025643Y031361D01*
X025645Y031354D01*
X025645Y031349D01*
X025645Y031347D01*
Y031346D01*
Y031344D01*
Y031344D01*
X025645Y031335D01*
X025644Y031328D01*
X025642Y031319D01*
X025640Y031312D01*
X025635Y031299D01*
X025631Y031293D01*
X025628Y031288D01*
X025624Y031283D01*
X025622Y031279D01*
X025619Y031275D01*
X025616Y031272D01*
X025614Y031270D01*
X025612Y031267D01*
X025611Y031267D01*
X025610Y031266D01*
X025605Y031262D01*
X025600Y031258D01*
X025593Y031254D01*
X025587Y031251D01*
X025572Y031244D01*
X025557Y031239D01*
X025550Y031236D01*
X025544Y031234D01*
X025538Y031233D01*
X025533Y031231D01*
X025529Y031230D01*
X025526Y031228D01*
X025524Y031228D01*
X025523D01*
X025515Y031226D01*
X025506Y031224D01*
X025499Y031222D01*
X025493Y031221D01*
X025487Y031219D01*
X025482Y031218D01*
X025477Y031216D01*
X025474Y031215D01*
X025470Y031214D01*
X025468Y031213D01*
X025466Y031212D01*
X025464Y031212D01*
X025461Y031212D01*
X025461Y031211D01*
X025454Y031209D01*
X025448Y031205D01*
X025443Y031202D01*
X025440Y031200D01*
X025436Y031198D01*
X025435Y031196D01*
X025433Y031195D01*
X025433Y031195D01*
X025431Y031191D01*
X025429Y031187D01*
X025427Y031183D01*
X025426Y031179D01*
X025426Y031176D01*
X025425Y031174D01*
Y031172D01*
Y031171D01*
X025426Y031163D01*
X025428Y031156D01*
X025431Y031150D01*
X025435Y031144D01*
X025438Y031140D01*
X025442Y031137D01*
X025443Y031135D01*
X025445Y031134D01*
X025452Y031129D01*
X025461Y031125D01*
X025470Y031123D01*
X025480Y031121D01*
X025488Y031119D01*
X025491Y031119D01*
X025495D01*
X025498Y031119D01*
X025501D01*
X025514Y031119D01*
X025524Y031121D01*
X025534Y031124D01*
X025542Y031128D01*
X025549Y031130D01*
X025553Y031133D01*
X025556Y031135D01*
X025557Y031136D01*
X025564Y031144D01*
X025570Y031153D01*
X025575Y031161D01*
X025578Y031171D01*
X025582Y031179D01*
X025582Y031182D01*
X025583Y031186D01*
X025584Y031188D01*
X025584Y031191D01*
X025584Y031191D01*
Y031192D01*
X025660Y031184D01*
X025658Y031173D01*
X025656Y031162D01*
X025653Y031151D01*
X025649Y031142D01*
X025646Y031133D01*
X025642Y031125D01*
X025638Y031118D01*
X025634Y031112D01*
X025630Y031105D01*
X025626Y031100D01*
X025623Y031096D01*
X025619Y031093D01*
X025617Y031090D01*
X025615Y031088D01*
X025614Y031087D01*
X025614Y031086D01*
X025606Y031081D01*
X025598Y031075D01*
X025589Y031071D01*
X025580Y031067D01*
X025570Y031064D01*
X025561Y031061D01*
X025543Y031057D01*
X025535Y031056D01*
X025526Y031055D01*
X025519Y031054D01*
X025514Y031054D01*
X025508Y031053D01*
X025501D01*
X025484Y031054D01*
X025468Y031055D01*
X025460Y031056D01*
X025453Y031058D01*
X025447Y031058D01*
X025441Y031060D01*
X025436Y031061D01*
X025431Y031063D01*
X025427Y031064D01*
X025424Y031065D01*
X025422Y031065D01*
X025419Y031067D01*
X025419Y031067D01*
X025418D01*
X025406Y031073D01*
X025396Y031079D01*
X025387Y031086D01*
X025380Y031093D01*
X025373Y031100D01*
X025370Y031105D01*
X025368Y031107D01*
X025367Y031109D01*
X025366Y031109D01*
Y031109D01*
X025360Y031121D01*
X025356Y031131D01*
X025352Y031142D01*
X025350Y031151D01*
X025348Y031160D01*
X025348Y031163D01*
Y031167D01*
X025347Y031168D01*
Y031170D01*
Y031172D01*
Y031172D01*
X025348Y031185D01*
X025350Y031197D01*
X025352Y031207D01*
X025355Y031216D01*
X025358Y031223D01*
X025359Y031226D01*
X025361Y031228D01*
X025361Y031230D01*
X025363Y031232D01*
X025363Y031233D01*
Y031233D01*
X025370Y031242D01*
X025376Y031249D01*
X025383Y031256D01*
X025390Y031262D01*
X025396Y031267D01*
X025401Y031270D01*
X025403Y031271D01*
X025405Y031272D01*
X025405Y031272D01*
X025405D01*
X025411Y031275D01*
X025417Y031278D01*
X025430Y031283D01*
X025444Y031288D01*
X025457Y031292D01*
X025464Y031294D01*
X025470Y031295D01*
X025475Y031297D01*
X025480Y031298D01*
X025484Y031299D01*
X025487Y031300D01*
X025489Y031300D01*
X025489D01*
X025499Y031303D01*
X025508Y031305D01*
X025517Y031308D01*
X025524Y031310D01*
X025531Y031312D01*
X025536Y031314D01*
X025542Y031316D01*
X025545Y031319D01*
X025549Y031320D01*
X025552Y031321D01*
X025555Y031323D01*
X025557Y031324D01*
X025559Y031325D01*
X025559Y031326D01*
X025560Y031326D01*
X025564Y031330D01*
X025566Y031334D01*
X025568Y031338D01*
X025570Y031342D01*
X025571Y031344D01*
X025571Y031347D01*
Y031349D01*
Y031349D01*
X025571Y031355D01*
X025570Y031360D01*
X025568Y031363D01*
X025566Y031367D01*
X025563Y031370D01*
X025561Y031372D01*
X025560Y031373D01*
X025559Y031374D01*
X025552Y031378D01*
X025543Y031381D01*
X025535Y031384D01*
X025526Y031386D01*
X025518Y031387D01*
X025515D01*
X025512Y031388D01*
X025506D01*
X025495Y031387D01*
X025485Y031386D01*
X025477Y031384D01*
X025470Y031381D01*
X025464Y031379D01*
X025461Y031377D01*
X025459Y031375D01*
X025457Y031374D01*
X025452Y031369D01*
X025447Y031363D01*
X025443Y031356D01*
X025440Y031349D01*
X025438Y031342D01*
X025437Y031337D01*
X025436Y031335D01*
X025436Y031333D01*
Y031332D01*
Y031332D01*
X025359Y031335D01*
X025359Y031344D01*
X025361Y031354D01*
X025363Y031363D01*
X025366Y031370D01*
X025368Y031378D01*
X025371Y031385D01*
X025375Y031391D01*
X025378Y031397D01*
X025382Y031402D01*
X025385Y031407D01*
X025389Y031411D01*
X025391Y031414D01*
X025394Y031416D01*
X025396Y031418D01*
X025396Y031419D01*
X025397Y031419D01*
X025404Y031425D01*
X025412Y031430D01*
X025420Y031435D01*
X025429Y031438D01*
X025438Y031441D01*
X025447Y031444D01*
X025465Y031448D01*
X025473Y031449D01*
X025481Y031450D01*
X025488Y031451D01*
X025494Y031451D01*
X025499Y031451D01*
X025506D01*
X025522Y031451D01*
D02*
G37*
G36*
X025171Y031344D02*
X025185Y031342D01*
X025198Y031339D01*
X025208Y031336D01*
X025213Y031334D01*
X025217Y031332D01*
X025222Y031331D01*
X025224Y031330D01*
X025227Y031328D01*
X025229Y031328D01*
X025230Y031326D01*
X025231D01*
X025242Y031319D01*
X025252Y031311D01*
X025261Y031302D01*
X025268Y031293D01*
X025274Y031286D01*
X025277Y031282D01*
X025278Y031279D01*
X025280Y031277D01*
X025280Y031275D01*
X025282Y031274D01*
Y031274D01*
X025287Y031261D01*
X025292Y031249D01*
X025295Y031237D01*
X025297Y031226D01*
X025298Y031221D01*
X025299Y031216D01*
X025299Y031212D01*
Y031209D01*
X025299Y031207D01*
Y031205D01*
Y031203D01*
Y031203D01*
X025299Y031186D01*
X025296Y031170D01*
X025296Y031163D01*
X025294Y031156D01*
X025292Y031150D01*
X025291Y031144D01*
X025289Y031139D01*
X025287Y031135D01*
X025285Y031131D01*
X025285Y031128D01*
X025283Y031125D01*
X025282Y031123D01*
X025282Y031122D01*
Y031121D01*
X025274Y031109D01*
X025266Y031100D01*
X025257Y031091D01*
X025248Y031084D01*
X025241Y031078D01*
X025238Y031075D01*
X025234Y031074D01*
X025233Y031072D01*
X025231Y031072D01*
X025229Y031070D01*
X025229D01*
X025216Y031065D01*
X025203Y031061D01*
X025190Y031058D01*
X025179Y031056D01*
X025174Y031055D01*
X025169Y031054D01*
X025166Y031054D01*
X025162D01*
X025159Y031054D01*
X025155D01*
X025144Y031054D01*
X025134Y031056D01*
X025123Y031058D01*
X025113Y031060D01*
X025104Y031063D01*
X025096Y031067D01*
X025089Y031070D01*
X025081Y031075D01*
X025075Y031078D01*
X025069Y031082D01*
X025064Y031086D01*
X025061Y031089D01*
X025057Y031091D01*
X025055Y031093D01*
X025054Y031095D01*
X025053Y031095D01*
X025046Y031103D01*
X025040Y031112D01*
X025034Y031120D01*
X025029Y031129D01*
X025025Y031138D01*
X025022Y031147D01*
X025020Y031155D01*
X025017Y031163D01*
X025015Y031170D01*
X025014Y031177D01*
X025013Y031184D01*
X025013Y031189D01*
Y031194D01*
X025012Y031197D01*
Y031200D01*
Y031200D01*
X025013Y031212D01*
X025013Y031223D01*
X025015Y031233D01*
X025018Y031242D01*
X025022Y031251D01*
X025025Y031260D01*
X025029Y031268D01*
X025032Y031275D01*
X025036Y031281D01*
X025040Y031287D01*
X025043Y031292D01*
X025046Y031296D01*
X025048Y031300D01*
X025050Y031302D01*
X025052Y031303D01*
X025052Y031304D01*
X025061Y031311D01*
X025069Y031317D01*
X025077Y031323D01*
X025086Y031328D01*
X025094Y031332D01*
X025103Y031335D01*
X025111Y031337D01*
X025120Y031340D01*
X025127Y031342D01*
X025134Y031343D01*
X025141Y031344D01*
X025146Y031344D01*
X025150D01*
X025154Y031345D01*
X025157D01*
X025171Y031344D01*
D02*
G37*
G36*
X023790Y031838D02*
X023718D01*
X023671Y032017D01*
X023623Y031838D01*
X023552D01*
X023463Y032116D01*
X023536D01*
X023589Y031934D01*
X023635Y032116D01*
X023706D01*
X023754Y031934D01*
X023806Y032116D01*
X023878D01*
X023790Y031838D01*
D02*
G37*
G36*
X023578Y032901D02*
X023593Y032899D01*
X023605Y032897D01*
X023611Y032896D01*
X023616Y032895D01*
X023621Y032894D01*
X023625Y032892D01*
X023629Y032891D01*
X023632Y032890D01*
X023635Y032889D01*
X023636Y032889D01*
X023637Y032888D01*
X023638D01*
X023649Y032882D01*
X023658Y032876D01*
X023666Y032870D01*
X023673Y032863D01*
X023678Y032857D01*
X023682Y032853D01*
X023684Y032850D01*
X023685Y032849D01*
Y032848D01*
X023691Y032839D01*
X023695Y032829D01*
X023698Y032820D01*
X023700Y032812D01*
X023701Y032805D01*
X023701Y032799D01*
X023702Y032797D01*
Y032796D01*
Y032794D01*
Y032794D01*
X023701Y032785D01*
X023700Y032778D01*
X023699Y032769D01*
X023696Y032762D01*
X023691Y032749D01*
X023687Y032743D01*
X023684Y032738D01*
X023681Y032733D01*
X023678Y032729D01*
X023675Y032725D01*
X023672Y032722D01*
X023670Y032720D01*
X023668Y032717D01*
X023667Y032717D01*
X023667Y032716D01*
X023662Y032712D01*
X023656Y032708D01*
X023649Y032704D01*
X023643Y032701D01*
X023628Y032694D01*
X023614Y032689D01*
X023607Y032686D01*
X023600Y032684D01*
X023594Y032682D01*
X023589Y032681D01*
X023585Y032680D01*
X023582Y032678D01*
X023580Y032678D01*
X023579D01*
X023571Y032676D01*
X023563Y032674D01*
X023556Y032672D01*
X023549Y032671D01*
X023543Y032669D01*
X023538Y032668D01*
X023534Y032666D01*
X023530Y032665D01*
X023527Y032664D01*
X023524Y032663D01*
X023522Y032662D01*
X023520Y032662D01*
X023518Y032661D01*
X023517Y032661D01*
X023510Y032659D01*
X023504Y032655D01*
X023500Y032652D01*
X023496Y032650D01*
X023493Y032648D01*
X023491Y032646D01*
X023490Y032645D01*
X023489Y032645D01*
X023487Y032641D01*
X023485Y032637D01*
X023483Y032633D01*
X023482Y032629D01*
X023482Y032626D01*
X023481Y032624D01*
Y032622D01*
Y032621D01*
X023482Y032613D01*
X023484Y032606D01*
X023487Y032600D01*
X023491Y032594D01*
X023495Y032590D01*
X023498Y032587D01*
X023500Y032585D01*
X023501Y032584D01*
X023509Y032579D01*
X023518Y032575D01*
X023527Y032573D01*
X023536Y032571D01*
X023544Y032569D01*
X023548Y032569D01*
X023551D01*
X023554Y032569D01*
X023557D01*
X023570Y032569D01*
X023581Y032571D01*
X023590Y032574D01*
X023598Y032578D01*
X023605Y032580D01*
X023609Y032583D01*
X023612Y032585D01*
X023613Y032586D01*
X023620Y032594D01*
X023626Y032603D01*
X023631Y032611D01*
X023635Y032621D01*
X023638Y032629D01*
X023639Y032633D01*
X023639Y032636D01*
X023640Y032638D01*
X023640Y032641D01*
X023641Y032641D01*
Y032642D01*
X023716Y032634D01*
X023714Y032623D01*
X023712Y032612D01*
X023709Y032601D01*
X023706Y032592D01*
X023702Y032583D01*
X023698Y032575D01*
X023694Y032568D01*
X023690Y032562D01*
X023686Y032555D01*
X023682Y032550D01*
X023679Y032547D01*
X023676Y032543D01*
X023673Y032540D01*
X023671Y032538D01*
X023670Y032537D01*
X023670Y032536D01*
X023662Y032531D01*
X023654Y032525D01*
X023645Y032521D01*
X023636Y032517D01*
X023626Y032514D01*
X023617Y032511D01*
X023599Y032507D01*
X023591Y032506D01*
X023583Y032505D01*
X023576Y032504D01*
X023570Y032503D01*
X023565Y032503D01*
X023558D01*
X023540Y032503D01*
X023524Y032505D01*
X023516Y032506D01*
X023509Y032508D01*
X023503Y032508D01*
X023497Y032510D01*
X023492Y032511D01*
X023487Y032513D01*
X023484Y032514D01*
X023480Y032515D01*
X023478Y032515D01*
X023476Y032517D01*
X023475Y032517D01*
X023474D01*
X023462Y032523D01*
X023452Y032529D01*
X023443Y032536D01*
X023436Y032543D01*
X023430Y032550D01*
X023426Y032555D01*
X023424Y032557D01*
X023423Y032559D01*
X023422Y032559D01*
Y032559D01*
X023416Y032571D01*
X023412Y032582D01*
X023408Y032592D01*
X023406Y032601D01*
X023405Y032610D01*
X023404Y032613D01*
Y032617D01*
X023404Y032619D01*
Y032620D01*
Y032622D01*
Y032622D01*
X023404Y032635D01*
X023406Y032647D01*
X023409Y032657D01*
X023411Y032666D01*
X023414Y032673D01*
X023416Y032676D01*
X023417Y032678D01*
X023418Y032680D01*
X023419Y032682D01*
X023419Y032682D01*
Y032683D01*
X023426Y032692D01*
X023432Y032699D01*
X023439Y032706D01*
X023446Y032712D01*
X023452Y032717D01*
X023457Y032720D01*
X023459Y032721D01*
X023461Y032722D01*
X023461Y032722D01*
X023462D01*
X023467Y032725D01*
X023473Y032728D01*
X023486Y032733D01*
X023500Y032738D01*
X023514Y032742D01*
X023520Y032744D01*
X023526Y032745D01*
X023531Y032747D01*
X023536Y032748D01*
X023540Y032749D01*
X023543Y032750D01*
X023545Y032750D01*
X023545D01*
X023555Y032753D01*
X023565Y032755D01*
X023573Y032758D01*
X023580Y032760D01*
X023587Y032762D01*
X023593Y032764D01*
X023598Y032766D01*
X023602Y032768D01*
X023606Y032770D01*
X023609Y032771D01*
X023611Y032773D01*
X023613Y032774D01*
X023615Y032775D01*
X023616Y032775D01*
X023616Y032776D01*
X023620Y032780D01*
X023623Y032784D01*
X023625Y032788D01*
X023626Y032792D01*
X023627Y032794D01*
X023628Y032798D01*
Y032799D01*
Y032799D01*
X023627Y032805D01*
X023626Y032810D01*
X023624Y032813D01*
X023622Y032817D01*
X023620Y032820D01*
X023618Y032822D01*
X023616Y032823D01*
X023616Y032824D01*
X023608Y032828D01*
X023599Y032831D01*
X023591Y032834D01*
X023582Y032836D01*
X023574Y032837D01*
X023571D01*
X023568Y032838D01*
X023563D01*
X023551Y032837D01*
X023541Y032836D01*
X023533Y032833D01*
X023526Y032831D01*
X023521Y032829D01*
X023517Y032826D01*
X023515Y032825D01*
X023514Y032824D01*
X023508Y032819D01*
X023503Y032812D01*
X023500Y032806D01*
X023497Y032799D01*
X023495Y032792D01*
X023493Y032787D01*
X023493Y032785D01*
X023492Y032784D01*
Y032782D01*
Y032782D01*
X023415Y032785D01*
X023415Y032794D01*
X023417Y032804D01*
X023419Y032812D01*
X023422Y032820D01*
X023425Y032828D01*
X023428Y032835D01*
X023431Y032841D01*
X023435Y032847D01*
X023438Y032852D01*
X023442Y032857D01*
X023445Y032861D01*
X023447Y032864D01*
X023450Y032866D01*
X023452Y032868D01*
X023453Y032869D01*
X023453Y032870D01*
X023460Y032875D01*
X023468Y032880D01*
X023477Y032885D01*
X023486Y032888D01*
X023495Y032891D01*
X023504Y032894D01*
X023521Y032898D01*
X023530Y032899D01*
X023537Y032900D01*
X023544Y032901D01*
X023550Y032901D01*
X023555Y032901D01*
X023562D01*
X023578Y032901D01*
D02*
G37*
G36*
X023335Y032122D02*
X023344Y032121D01*
X023352Y032120D01*
X023359Y032118D01*
X023366Y032116D01*
X023372Y032115D01*
X023377Y032113D01*
X023382Y032111D01*
X023386Y032109D01*
X023390Y032108D01*
X023393Y032106D01*
X023395Y032105D01*
X023396Y032104D01*
X023397Y032103D01*
X023398D01*
X023407Y032095D01*
X023415Y032085D01*
X023422Y032076D01*
X023427Y032065D01*
X023431Y032057D01*
X023433Y032053D01*
X023434Y032050D01*
X023435Y032047D01*
X023436Y032045D01*
X023436Y032043D01*
Y032043D01*
X023370Y032031D01*
X023367Y032038D01*
X023364Y032043D01*
X023361Y032048D01*
X023359Y032052D01*
X023356Y032055D01*
X023354Y032057D01*
X023353Y032058D01*
X023352Y032058D01*
X023348Y032061D01*
X023343Y032063D01*
X023338Y032064D01*
X023333Y032065D01*
X023328Y032066D01*
X023325Y032067D01*
X023321D01*
X023311Y032066D01*
X023303Y032065D01*
X023296Y032064D01*
X023291Y032062D01*
X023287Y032060D01*
X023284Y032058D01*
X023282Y032057D01*
X023282Y032057D01*
X023278Y032053D01*
X023275Y032048D01*
X023273Y032043D01*
X023272Y032038D01*
X023271Y032034D01*
X023271Y032030D01*
Y032027D01*
Y032027D01*
Y032026D01*
Y032019D01*
X023275Y032018D01*
X023280Y032016D01*
X023285Y032014D01*
X023290Y032013D01*
X023302Y032009D01*
X023314Y032006D01*
X023325Y032004D01*
X023330Y032003D01*
X023334Y032002D01*
X023338Y032002D01*
X023340Y032001D01*
X023342Y032001D01*
X023343D01*
X023356Y031998D01*
X023368Y031995D01*
X023378Y031992D01*
X023386Y031990D01*
X023393Y031987D01*
X023397Y031985D01*
X023400Y031984D01*
X023401Y031983D01*
X023408Y031979D01*
X023415Y031975D01*
X023420Y031971D01*
X023424Y031966D01*
X023428Y031962D01*
X023431Y031958D01*
X023432Y031957D01*
X023433Y031955D01*
X023436Y031948D01*
X023439Y031941D01*
X023441Y031934D01*
X023442Y031927D01*
X023443Y031922D01*
X023444Y031918D01*
Y031915D01*
Y031914D01*
Y031913D01*
X023443Y031907D01*
X023443Y031901D01*
X023440Y031890D01*
X023436Y031879D01*
X023431Y031871D01*
X023427Y031864D01*
X023423Y031858D01*
X023421Y031857D01*
X023420Y031855D01*
X023420Y031855D01*
X023419Y031855D01*
X023414Y031851D01*
X023409Y031847D01*
X023398Y031841D01*
X023387Y031837D01*
X023376Y031834D01*
X023366Y031832D01*
X023362Y031832D01*
X023358D01*
X023355Y031832D01*
X023351D01*
X023342Y031832D01*
X023334Y031833D01*
X023326Y031834D01*
X023319Y031836D01*
X023314Y031837D01*
X023309Y031839D01*
X023307Y031840D01*
X023306Y031841D01*
X023298Y031844D01*
X023290Y031848D01*
X023283Y031853D01*
X023277Y031858D01*
X023272Y031862D01*
X023269Y031865D01*
X023266Y031867D01*
X023265Y031868D01*
X023264Y031866D01*
X023264Y031863D01*
X023263Y031860D01*
Y031860D01*
Y031860D01*
X023261Y031855D01*
X023260Y031850D01*
X023258Y031846D01*
X023257Y031844D01*
X023256Y031841D01*
X023256Y031839D01*
X023255Y031839D01*
Y031838D01*
X023182D01*
X023186Y031845D01*
X023189Y031852D01*
X023191Y031858D01*
X023193Y031864D01*
X023194Y031869D01*
X023195Y031872D01*
X023196Y031874D01*
Y031875D01*
X023197Y031883D01*
X023198Y031891D01*
X023198Y031900D01*
X023199Y031909D01*
X023199Y031917D01*
Y031920D01*
Y031923D01*
Y031926D01*
Y031928D01*
Y031929D01*
Y031930D01*
X023198Y032016D01*
Y032024D01*
X023199Y032032D01*
X023199Y032039D01*
X023200Y032046D01*
X023201Y032052D01*
X023201Y032057D01*
X023202Y032062D01*
X023203Y032067D01*
X023204Y032070D01*
X023205Y032074D01*
X023206Y032076D01*
X023207Y032078D01*
X023208Y032081D01*
X023208Y032081D01*
X023213Y032088D01*
X023218Y032094D01*
X023223Y032099D01*
X023229Y032103D01*
X023234Y032106D01*
X023238Y032109D01*
X023241Y032111D01*
X023242Y032111D01*
X023242D01*
X023247Y032113D01*
X023252Y032115D01*
X023264Y032118D01*
X023276Y032120D01*
X023288Y032122D01*
X023294Y032122D01*
X023299Y032122D01*
X023304D01*
X023308Y032123D01*
X023326D01*
X023335Y032122D01*
D02*
G37*
G36*
X024472Y032510D02*
X024399D01*
Y032894D01*
X024472D01*
Y032510D01*
D02*
G37*
G36*
X021668D02*
X021594D01*
Y032583D01*
X021668D01*
Y032510D01*
D02*
G37*
G36*
X022071Y031837D02*
X022073Y031828D01*
X022076Y031821D01*
X022080Y031814D01*
X022083Y031809D01*
X022085Y031804D01*
X022088Y031801D01*
X022089Y031799D01*
X022090Y031799D01*
X022095Y031793D01*
X022101Y031790D01*
X022107Y031787D01*
X022113Y031785D01*
X022119Y031784D01*
X022124Y031783D01*
X022127Y031783D01*
X022128D01*
X022138Y031783D01*
X022144Y031784D01*
X022148Y031785D01*
X022153Y031786D01*
X022156Y031786D01*
X022158Y031786D01*
X022159D01*
X022152Y031729D01*
X022137Y031727D01*
X022130Y031725D01*
X022124Y031725D01*
X022119D01*
X022114Y031725D01*
X022103D01*
X022096Y031725D01*
X022090Y031726D01*
X022084Y031727D01*
X022080Y031727D01*
X022076Y031728D01*
X022074Y031729D01*
X022073D01*
X022067Y031731D01*
X022062Y031733D01*
X022057Y031735D01*
X022053Y031737D01*
X022050Y031739D01*
X022047Y031740D01*
X022046Y031741D01*
X022045Y031741D01*
X022037Y031748D01*
X022034Y031751D01*
X022031Y031755D01*
X022028Y031758D01*
X022026Y031760D01*
X022025Y031762D01*
X022025Y031762D01*
X022021Y031768D01*
X022018Y031774D01*
X022015Y031780D01*
X022012Y031786D01*
X022010Y031791D01*
X022008Y031795D01*
X022007Y031799D01*
X022006Y031799D01*
Y031799D01*
X021988Y031848D01*
X021890Y032116D01*
X021966D01*
X022032Y031918D01*
X022098Y032116D01*
X022177D01*
X022071Y031837D01*
D02*
G37*
G36*
X015486Y014140D02*
X015515Y014136D01*
X015541Y014129D01*
X015553Y014126D01*
X015565Y014122D01*
X015575Y014118D01*
X015584Y014115D01*
X015591Y014111D01*
X015598Y014108D01*
X015603Y014106D01*
X015607Y014104D01*
X015610Y014103D01*
X015611Y014102D01*
X015623Y014095D01*
X015636Y014086D01*
X015657Y014068D01*
X015676Y014050D01*
X015691Y014031D01*
X015698Y014022D01*
X015704Y014015D01*
X015709Y014007D01*
X015712Y014001D01*
X015716Y013996D01*
X015718Y013992D01*
X015719Y013990D01*
X015720Y013989D01*
X015726Y013975D01*
X015732Y013960D01*
X015741Y013931D01*
X015748Y013901D01*
X015751Y013887D01*
X015752Y013874D01*
X015754Y013862D01*
X015756Y013851D01*
X015756Y013841D01*
Y013832D01*
X015757Y013825D01*
Y013819D01*
Y013816D01*
Y013815D01*
X015756Y013782D01*
X015752Y013749D01*
X015750Y013735D01*
X015746Y013721D01*
X015744Y013707D01*
X015741Y013695D01*
X015737Y013683D01*
X015735Y013673D01*
X015731Y013665D01*
X015729Y013657D01*
X015727Y013652D01*
X015726Y013647D01*
X015724Y013644D01*
Y013643D01*
X015717Y013629D01*
X015710Y013615D01*
X015702Y013602D01*
X015694Y013591D01*
X015686Y013579D01*
X015677Y013569D01*
X015670Y013560D01*
X015661Y013552D01*
X015654Y013545D01*
X015647Y013538D01*
X015641Y013533D01*
X015636Y013529D01*
X015631Y013525D01*
X015627Y013522D01*
X015626Y013522D01*
X015625Y013521D01*
X015612Y013513D01*
X015599Y013507D01*
X015585Y013502D01*
X015571Y013497D01*
X015542Y013489D01*
X015516Y013484D01*
X015503Y013483D01*
X015492Y013482D01*
X015481Y013481D01*
X015473Y013480D01*
X015466Y013479D01*
X015456D01*
X015437Y013480D01*
X015420Y013482D01*
X015403Y013484D01*
X015387Y013487D01*
X015372Y013492D01*
X015358Y013497D01*
X015346Y013501D01*
X015333Y013507D01*
X015323Y013512D01*
X015314Y013516D01*
X015306Y013521D01*
X015299Y013525D01*
X015293Y013528D01*
X015290Y013531D01*
X015287Y013532D01*
X015287Y013533D01*
X015274Y013544D01*
X015262Y013556D01*
X015252Y013568D01*
X015242Y013582D01*
X015233Y013595D01*
X015226Y013607D01*
X015218Y013621D01*
X015212Y013633D01*
X015207Y013646D01*
X015202Y013657D01*
X015198Y013667D01*
X015195Y013675D01*
X015193Y013682D01*
X015192Y013688D01*
X015190Y013692D01*
Y013692D01*
X015275Y013714D01*
X015279Y013699D01*
X015283Y013686D01*
X015288Y013673D01*
X015293Y013661D01*
X015299Y013650D01*
X015304Y013640D01*
X015310Y013631D01*
X015316Y013623D01*
X015321Y013616D01*
X015326Y013610D01*
X015331Y013604D01*
X015334Y013600D01*
X015337Y013597D01*
X015340Y013594D01*
X015342Y013593D01*
X015342Y013592D01*
X015352Y013585D01*
X015361Y013579D01*
X015372Y013573D01*
X015382Y013569D01*
X015402Y013562D01*
X015421Y013557D01*
X015430Y013555D01*
X015438Y013554D01*
X015445Y013553D01*
X015451Y013552D01*
X015456Y013552D01*
X015463D01*
X015485Y013553D01*
X015505Y013557D01*
X015523Y013561D01*
X015540Y013567D01*
X015553Y013572D01*
X015559Y013575D01*
X015563Y013577D01*
X015567Y013579D01*
X015570Y013580D01*
X015571Y013582D01*
X015572D01*
X015590Y013594D01*
X015605Y013608D01*
X015617Y013623D01*
X015628Y013638D01*
X015636Y013652D01*
X015639Y013657D01*
X015641Y013662D01*
X015644Y013667D01*
X015646Y013670D01*
X015646Y013672D01*
Y013672D01*
X015654Y013696D01*
X015660Y013721D01*
X015664Y013744D01*
X015666Y013767D01*
X015668Y013777D01*
Y013786D01*
X015669Y013794D01*
X015670Y013802D01*
Y013807D01*
Y013812D01*
Y013814D01*
Y013815D01*
X015669Y013838D01*
X015666Y013861D01*
X015663Y013882D01*
X015660Y013901D01*
X015658Y013908D01*
X015656Y013916D01*
X015655Y013922D01*
X015653Y013928D01*
X015651Y013932D01*
X015651Y013936D01*
X015650Y013937D01*
Y013938D01*
X015641Y013960D01*
X015631Y013978D01*
X015619Y013995D01*
X015607Y014008D01*
X015597Y014019D01*
X015589Y014026D01*
X015586Y014030D01*
X015583Y014031D01*
X015581Y014033D01*
X015581D01*
X015571Y014040D01*
X015561Y014045D01*
X015540Y014054D01*
X015519Y014061D01*
X015500Y014065D01*
X015491Y014066D01*
X015482Y014067D01*
X015475Y014068D01*
X015469D01*
X015464Y014069D01*
X015456D01*
X015433Y014067D01*
X015412Y014064D01*
X015394Y014059D01*
X015378Y014053D01*
X015366Y014046D01*
X015361Y014044D01*
X015357Y014041D01*
X015353Y014040D01*
X015351Y014038D01*
X015350Y014036D01*
X015349D01*
X015342Y014030D01*
X015334Y014023D01*
X015321Y014007D01*
X015310Y013991D01*
X015301Y013974D01*
X015293Y013959D01*
X015291Y013952D01*
X015288Y013946D01*
X015287Y013941D01*
X015285Y013938D01*
X015284Y013936D01*
Y013935D01*
X015201Y013955D01*
X015206Y013971D01*
X015212Y013986D01*
X015219Y014001D01*
X015227Y014014D01*
X015234Y014026D01*
X015242Y014037D01*
X015249Y014047D01*
X015257Y014056D01*
X015264Y014065D01*
X015271Y014072D01*
X015277Y014078D01*
X015282Y014083D01*
X015287Y014087D01*
X015291Y014090D01*
X015292Y014091D01*
X015293Y014092D01*
X015306Y014101D01*
X015319Y014109D01*
X015332Y014115D01*
X015346Y014121D01*
X015360Y014126D01*
X015373Y014130D01*
X015398Y014136D01*
X015410Y014137D01*
X015421Y014139D01*
X015431Y014140D01*
X015439Y014141D01*
X015446Y014141D01*
X015471D01*
X015486Y014140D01*
D02*
G37*
G36*
X016132D02*
X016161Y014136D01*
X016188Y014129D01*
X016200Y014126D01*
X016211Y014122D01*
X016221Y014118D01*
X016230Y014115D01*
X016238Y014111D01*
X016244Y014108D01*
X016249Y014106D01*
X016254Y014104D01*
X016256Y014103D01*
X016257Y014102D01*
X016269Y014095D01*
X016282Y014086D01*
X016304Y014068D01*
X016323Y014050D01*
X016338Y014031D01*
X016344Y014022D01*
X016350Y014015D01*
X016355Y014007D01*
X016359Y014001D01*
X016362Y013996D01*
X016364Y013992D01*
X016365Y013990D01*
X016366Y013989D01*
X016373Y013975D01*
X016379Y013960D01*
X016388Y013931D01*
X016394Y013901D01*
X016397Y013887D01*
X016399Y013874D01*
X016400Y013862D01*
X016402Y013851D01*
X016403Y013841D01*
Y013832D01*
X016404Y013825D01*
Y013819D01*
Y013816D01*
Y013815D01*
X016402Y013782D01*
X016399Y013749D01*
X016396Y013735D01*
X016393Y013721D01*
X016390Y013707D01*
X016387Y013695D01*
X016384Y013683D01*
X016381Y013673D01*
X016378Y013665D01*
X016375Y013657D01*
X016374Y013652D01*
X016372Y013647D01*
X016370Y013644D01*
Y013643D01*
X016364Y013629D01*
X016356Y013615D01*
X016349Y013602D01*
X016340Y013591D01*
X016332Y013579D01*
X016324Y013569D01*
X016316Y013560D01*
X016308Y013552D01*
X016300Y013545D01*
X016294Y013538D01*
X016287Y013533D01*
X016282Y013529D01*
X016277Y013525D01*
X016274Y013522D01*
X016272Y013522D01*
X016271Y013521D01*
X016259Y013513D01*
X016245Y013507D01*
X016231Y013502D01*
X016217Y013497D01*
X016189Y013489D01*
X016162Y013484D01*
X016150Y013483D01*
X016139Y013482D01*
X016128Y013481D01*
X016120Y013480D01*
X016112Y013479D01*
X016102D01*
X016084Y013480D01*
X016066Y013482D01*
X016050Y013484D01*
X016034Y013487D01*
X016019Y013492D01*
X016005Y013497D01*
X015992Y013501D01*
X015980Y013507D01*
X015970Y013512D01*
X015960Y013516D01*
X015952Y013521D01*
X015945Y013525D01*
X015940Y013528D01*
X015936Y013531D01*
X015934Y013532D01*
X015933Y013533D01*
X015920Y013544D01*
X015909Y013556D01*
X015898Y013568D01*
X015889Y013582D01*
X015880Y013595D01*
X015872Y013607D01*
X015865Y013621D01*
X015859Y013633D01*
X015853Y013646D01*
X015849Y013657D01*
X015845Y013667D01*
X015841Y013675D01*
X015840Y013682D01*
X015838Y013688D01*
X015836Y013692D01*
Y013692D01*
X015921Y013714D01*
X015925Y013699D01*
X015930Y013686D01*
X015935Y013673D01*
X015940Y013661D01*
X015945Y013650D01*
X015950Y013640D01*
X015956Y013631D01*
X015962Y013623D01*
X015967Y013616D01*
X015972Y013610D01*
X015977Y013604D01*
X015980Y013600D01*
X015984Y013597D01*
X015986Y013594D01*
X015988Y013593D01*
X015989Y013592D01*
X015998Y013585D01*
X016008Y013579D01*
X016018Y013573D01*
X016029Y013569D01*
X016049Y013562D01*
X016068Y013557D01*
X016076Y013555D01*
X016085Y013554D01*
X016091Y013553D01*
X016098Y013552D01*
X016103Y013552D01*
X016110D01*
X016131Y013553D01*
X016151Y013557D01*
X016170Y013561D01*
X016186Y013567D01*
X016200Y013572D01*
X016205Y013575D01*
X016209Y013577D01*
X016214Y013579D01*
X016216Y013580D01*
X016218Y013582D01*
X016219D01*
X016236Y013594D01*
X016251Y013608D01*
X016264Y013623D01*
X016274Y013638D01*
X016283Y013652D01*
X016285Y013657D01*
X016288Y013662D01*
X016290Y013667D01*
X016292Y013670D01*
X016293Y013672D01*
Y013672D01*
X016300Y013696D01*
X016306Y013721D01*
X016310Y013744D01*
X016313Y013767D01*
X016314Y013777D01*
Y013786D01*
X016315Y013794D01*
X016316Y013802D01*
Y013807D01*
Y013812D01*
Y013814D01*
Y013815D01*
X016315Y013838D01*
X016313Y013861D01*
X016309Y013882D01*
X016306Y013901D01*
X016304Y013908D01*
X016303Y013916D01*
X016301Y013922D01*
X016299Y013928D01*
X016298Y013932D01*
X016297Y013936D01*
X016296Y013937D01*
Y013938D01*
X016288Y013960D01*
X016277Y013978D01*
X016265Y013995D01*
X016254Y014008D01*
X016244Y014019D01*
X016235Y014026D01*
X016232Y014030D01*
X016229Y014031D01*
X016228Y014033D01*
X016227D01*
X016217Y014040D01*
X016207Y014045D01*
X016186Y014054D01*
X016165Y014061D01*
X016146Y014065D01*
X016137Y014066D01*
X016129Y014067D01*
X016121Y014068D01*
X016115D01*
X016110Y014069D01*
X016103D01*
X016080Y014067D01*
X016059Y014064D01*
X016040Y014059D01*
X016025Y014053D01*
X016012Y014046D01*
X016007Y014044D01*
X016003Y014041D01*
X016000Y014040D01*
X015997Y014038D01*
X015996Y014036D01*
X015995D01*
X015988Y014030D01*
X015980Y014023D01*
X015967Y014007D01*
X015956Y013991D01*
X015947Y013974D01*
X015940Y013959D01*
X015937Y013952D01*
X015935Y013946D01*
X015933Y013941D01*
X015931Y013938D01*
X015930Y013936D01*
Y013935D01*
X015847Y013955D01*
X015852Y013971D01*
X015859Y013986D01*
X015865Y014001D01*
X015873Y014014D01*
X015880Y014026D01*
X015888Y014037D01*
X015895Y014047D01*
X015903Y014056D01*
X015910Y014065D01*
X015917Y014072D01*
X015924Y014078D01*
X015929Y014083D01*
X015933Y014087D01*
X015937Y014090D01*
X015939Y014091D01*
X015940Y014092D01*
X015952Y014101D01*
X015965Y014109D01*
X015979Y014115D01*
X015992Y014121D01*
X016006Y014126D01*
X016020Y014130D01*
X016045Y014136D01*
X016056Y014137D01*
X016067Y014139D01*
X016077Y014140D01*
X016085Y014141D01*
X016092Y014141D01*
X016117D01*
X016132Y014140D01*
D02*
G37*
G36*
X016793Y013490D02*
X016704D01*
X016454Y014131D01*
X016540D01*
X016713Y013665D01*
X016721Y013646D01*
X016728Y013627D01*
X016733Y013608D01*
X016738Y013592D01*
X016743Y013579D01*
X016744Y013574D01*
X016746Y013569D01*
X016747Y013565D01*
X016748Y013562D01*
X016748Y013561D01*
Y013560D01*
X016753Y013578D01*
X016759Y013597D01*
X016765Y013615D01*
X016770Y013631D01*
X016775Y013645D01*
X016777Y013651D01*
X016778Y013656D01*
X016780Y013659D01*
X016781Y013662D01*
X016782Y013664D01*
Y013665D01*
X016948Y014131D01*
X017041D01*
X016793Y013490D01*
D02*
G37*
G36*
X024588Y032122D02*
X024597Y032121D01*
X024605Y032120D01*
X024612Y032118D01*
X024619Y032116D01*
X024625Y032115D01*
X024630Y032113D01*
X024635Y032111D01*
X024639Y032109D01*
X024643Y032108D01*
X024646Y032106D01*
X024648Y032105D01*
X024649Y032104D01*
X024650Y032103D01*
X024651D01*
X024660Y032095D01*
X024668Y032085D01*
X024675Y032076D01*
X024680Y032065D01*
X024684Y032057D01*
X024686Y032053D01*
X024687Y032050D01*
X024688Y032047D01*
X024689Y032045D01*
X024689Y032043D01*
Y032043D01*
X024623Y032031D01*
X024620Y032038D01*
X024617Y032043D01*
X024614Y032048D01*
X024612Y032052D01*
X024609Y032055D01*
X024607Y032057D01*
X024606Y032058D01*
X024605Y032058D01*
X024601Y032061D01*
X024596Y032063D01*
X024591Y032064D01*
X024586Y032065D01*
X024581Y032066D01*
X024578Y032067D01*
X024574D01*
X024564Y032066D01*
X024556Y032065D01*
X024549Y032064D01*
X024544Y032062D01*
X024540Y032060D01*
X024537Y032058D01*
X024535Y032057D01*
X024535Y032057D01*
X024531Y032053D01*
X024528Y032048D01*
X024526Y032043D01*
X024525Y032038D01*
X024524Y032034D01*
X024524Y032030D01*
Y032027D01*
Y032027D01*
Y032026D01*
Y032019D01*
X024528Y032018D01*
X024533Y032016D01*
X024538Y032014D01*
X024543Y032013D01*
X024555Y032009D01*
X024567Y032006D01*
X024578Y032004D01*
X024583Y032003D01*
X024587Y032002D01*
X024591Y032002D01*
X024593Y032001D01*
X024595Y032001D01*
X024596D01*
X024609Y031998D01*
X024621Y031995D01*
X024631Y031992D01*
X024639Y031990D01*
X024646Y031987D01*
X024650Y031985D01*
X024653Y031984D01*
X024654Y031983D01*
X024661Y031979D01*
X024668Y031975D01*
X024673Y031971D01*
X024677Y031966D01*
X024681Y031962D01*
X024684Y031958D01*
X024685Y031957D01*
X024686Y031955D01*
X024689Y031948D01*
X024692Y031941D01*
X024694Y031934D01*
X024695Y031927D01*
X024696Y031922D01*
X024697Y031918D01*
Y031915D01*
Y031914D01*
Y031913D01*
X024696Y031907D01*
X024696Y031901D01*
X024693Y031890D01*
X024689Y031879D01*
X024684Y031871D01*
X024680Y031864D01*
X024676Y031858D01*
X024674Y031857D01*
X024673Y031855D01*
X024673Y031855D01*
X024672Y031855D01*
X024667Y031851D01*
X024662Y031847D01*
X024651Y031841D01*
X024640Y031837D01*
X024629Y031834D01*
X024619Y031832D01*
X024615Y031832D01*
X024611D01*
X024608Y031832D01*
X024604D01*
X024595Y031832D01*
X024587Y031833D01*
X024579Y031834D01*
X024572Y031836D01*
X024567Y031837D01*
X024562Y031839D01*
X024560Y031840D01*
X024559Y031841D01*
X024551Y031844D01*
X024543Y031848D01*
X024536Y031853D01*
X024530Y031858D01*
X024525Y031862D01*
X024522Y031865D01*
X024519Y031867D01*
X024518Y031868D01*
X024517Y031866D01*
X024517Y031863D01*
X024516Y031860D01*
Y031860D01*
Y031860D01*
X024514Y031855D01*
X024513Y031850D01*
X024511Y031846D01*
X024510Y031844D01*
X024509Y031841D01*
X024509Y031839D01*
X024508Y031839D01*
Y031838D01*
X024435D01*
X024439Y031845D01*
X024442Y031852D01*
X024444Y031858D01*
X024446Y031864D01*
X024447Y031869D01*
X024448Y031872D01*
X024449Y031874D01*
Y031875D01*
X024450Y031883D01*
X024451Y031891D01*
X024451Y031900D01*
X024452Y031909D01*
X024452Y031917D01*
Y031920D01*
Y031923D01*
Y031926D01*
Y031928D01*
Y031929D01*
Y031930D01*
X024451Y032016D01*
Y032024D01*
X024452Y032032D01*
X024452Y032039D01*
X024453Y032046D01*
X024454Y032052D01*
X024454Y032057D01*
X024455Y032062D01*
X024456Y032067D01*
X024457Y032070D01*
X024458Y032074D01*
X024459Y032076D01*
X024460Y032078D01*
X024461Y032081D01*
X024461Y032081D01*
X024466Y032088D01*
X024471Y032094D01*
X024476Y032099D01*
X024482Y032103D01*
X024487Y032106D01*
X024491Y032109D01*
X024494Y032111D01*
X024495Y032111D01*
X024495D01*
X024500Y032113D01*
X024505Y032115D01*
X024517Y032118D01*
X024529Y032120D01*
X024541Y032122D01*
X024547Y032122D01*
X024552Y032122D01*
X024557D01*
X024561Y032123D01*
X024579D01*
X024588Y032122D01*
D02*
G37*
G36*
X025064Y031838D02*
X024987D01*
Y032006D01*
X024834D01*
Y031838D01*
X024757D01*
Y032222D01*
X024834D01*
Y032071D01*
X024987D01*
Y032222D01*
X025064D01*
Y031838D01*
D02*
G37*
G36*
X022472D02*
X022404D01*
Y031878D01*
X022397Y031871D01*
X022391Y031864D01*
X022384Y031858D01*
X022378Y031853D01*
X022372Y031848D01*
X022368Y031846D01*
X022365Y031844D01*
X022364Y031844D01*
X022355Y031839D01*
X022347Y031837D01*
X022339Y031834D01*
X022332Y031833D01*
X022326Y031832D01*
X022321Y031832D01*
X022317D01*
X022308Y031832D01*
X022299Y031833D01*
X022291Y031835D01*
X022283Y031837D01*
X022276Y031841D01*
X022269Y031844D01*
X022263Y031847D01*
X022257Y031851D01*
X022252Y031855D01*
X022248Y031858D01*
X022244Y031861D01*
X022240Y031864D01*
X022238Y031867D01*
X022236Y031869D01*
X022235Y031869D01*
X022234Y031870D01*
X022228Y031878D01*
X022223Y031886D01*
X022218Y031895D01*
X022215Y031904D01*
X022211Y031913D01*
X022209Y031922D01*
X022204Y031939D01*
X022203Y031948D01*
X022202Y031955D01*
X022201Y031962D01*
X022201Y031968D01*
X022200Y031973D01*
Y031977D01*
Y031979D01*
Y031980D01*
X022201Y031992D01*
X022202Y032004D01*
X022203Y032016D01*
X022205Y032025D01*
X022208Y032035D01*
X022211Y032044D01*
X022214Y032052D01*
X022217Y032059D01*
X022220Y032065D01*
X022223Y032071D01*
X022226Y032076D01*
X022228Y032079D01*
X022231Y032082D01*
X022232Y032085D01*
X022233Y032085D01*
X022234Y032086D01*
X022240Y032092D01*
X022247Y032098D01*
X022254Y032103D01*
X022261Y032108D01*
X022268Y032111D01*
X022275Y032114D01*
X022282Y032116D01*
X022289Y032118D01*
X022295Y032120D01*
X022300Y032121D01*
X022305Y032122D01*
X022310Y032122D01*
X022313Y032123D01*
X022318D01*
X022327Y032122D01*
X022335Y032122D01*
X022343Y032120D01*
X022350Y032117D01*
X022364Y032111D01*
X022370Y032107D01*
X022376Y032104D01*
X022381Y032100D01*
X022386Y032097D01*
X022389Y032093D01*
X022393Y032090D01*
X022395Y032088D01*
X022397Y032085D01*
X022398Y032085D01*
X022399Y032084D01*
Y032222D01*
X022472D01*
Y031838D01*
D02*
G37*
G36*
X021335D02*
X021043D01*
Y031903D01*
X021257D01*
Y032008D01*
X021065D01*
Y032073D01*
X021257D01*
Y032157D01*
X021050D01*
Y032222D01*
X021335D01*
Y031838D01*
D02*
G37*
G36*
X023004Y032122D02*
X023010Y032122D01*
X023015Y032120D01*
X023020Y032118D01*
X023023Y032116D01*
X023026Y032115D01*
X023028Y032114D01*
X023029Y032113D01*
X023034Y032109D01*
X023040Y032104D01*
X023045Y032098D01*
X023050Y032092D01*
X023054Y032086D01*
X023057Y032081D01*
X023059Y032079D01*
X023059Y032078D01*
X023060Y032077D01*
Y032116D01*
X023129D01*
Y031838D01*
X023055D01*
Y031924D01*
Y031937D01*
X023055Y031948D01*
Y031959D01*
X023054Y031969D01*
X023054Y031977D01*
X023053Y031985D01*
X023053Y031992D01*
X023052Y031997D01*
X023052Y032002D01*
X023051Y032006D01*
X023051Y032009D01*
X023050Y032013D01*
X023050Y032015D01*
X023049Y032016D01*
Y032017D01*
X023047Y032025D01*
X023044Y032032D01*
X023041Y032036D01*
X023039Y032041D01*
X023036Y032044D01*
X023034Y032046D01*
X023033Y032048D01*
X023033Y032048D01*
X023028Y032051D01*
X023024Y032053D01*
X023019Y032055D01*
X023015Y032056D01*
X023011Y032057D01*
X023008Y032057D01*
X023006D01*
X023000Y032057D01*
X022994Y032055D01*
X022988Y032053D01*
X022982Y032051D01*
X022978Y032048D01*
X022974Y032046D01*
X022972Y032045D01*
X022971Y032044D01*
X022948Y032109D01*
X022957Y032113D01*
X022966Y032117D01*
X022974Y032120D01*
X022982Y032122D01*
X022988Y032122D01*
X022993Y032123D01*
X022997D01*
X023004Y032122D01*
D02*
G37*
G36*
X024257D02*
X024263Y032122D01*
X024268Y032120D01*
X024273Y032118D01*
X024276Y032116D01*
X024279Y032115D01*
X024281Y032114D01*
X024282Y032113D01*
X024287Y032109D01*
X024293Y032104D01*
X024298Y032098D01*
X024303Y032092D01*
X024307Y032086D01*
X024310Y032081D01*
X024312Y032079D01*
X024312Y032078D01*
X024313Y032077D01*
Y032116D01*
X024382D01*
Y031838D01*
X024308D01*
Y031924D01*
Y031937D01*
X024308Y031948D01*
Y031959D01*
X024307Y031969D01*
X024307Y031977D01*
X024306Y031985D01*
X024306Y031992D01*
X024305Y031997D01*
X024305Y032002D01*
X024304Y032006D01*
X024304Y032009D01*
X024303Y032013D01*
X024303Y032015D01*
X024302Y032016D01*
Y032017D01*
X024300Y032025D01*
X024297Y032032D01*
X024294Y032036D01*
X024292Y032041D01*
X024289Y032044D01*
X024287Y032046D01*
X024286Y032048D01*
X024286Y032048D01*
X024281Y032051D01*
X024277Y032053D01*
X024272Y032055D01*
X024268Y032056D01*
X024264Y032057D01*
X024261Y032057D01*
X024259D01*
X024253Y032057D01*
X024247Y032055D01*
X024241Y032053D01*
X024235Y032051D01*
X024231Y032048D01*
X024227Y032046D01*
X024225Y032045D01*
X024224Y032044D01*
X024201Y032109D01*
X024210Y032113D01*
X024219Y032117D01*
X024227Y032120D01*
X024235Y032122D01*
X024241Y032122D01*
X024246Y032123D01*
X024250D01*
X024257Y032122D01*
D02*
G37*
G36*
X023227Y031060D02*
X023159D01*
Y031100D01*
X023152Y031093D01*
X023145Y031086D01*
X023138Y031079D01*
X023133Y031075D01*
X023127Y031070D01*
X023123Y031068D01*
X023120Y031066D01*
X023119Y031065D01*
X023110Y031061D01*
X023101Y031058D01*
X023094Y031056D01*
X023087Y031055D01*
X023080Y031054D01*
X023075Y031054D01*
X023071D01*
X023063Y031054D01*
X023054Y031055D01*
X023046Y031057D01*
X023038Y031060D01*
X023031Y031063D01*
X023024Y031065D01*
X023018Y031069D01*
X023012Y031073D01*
X023007Y031077D01*
X023003Y031080D01*
X022998Y031083D01*
X022995Y031086D01*
X022992Y031089D01*
X022991Y031091D01*
X022989Y031091D01*
X022989Y031092D01*
X022983Y031100D01*
X022978Y031108D01*
X022973Y031116D01*
X022970Y031126D01*
X022966Y031135D01*
X022964Y031144D01*
X022959Y031161D01*
X022958Y031170D01*
X022957Y031177D01*
X022956Y031184D01*
X022956Y031190D01*
X022955Y031195D01*
Y031199D01*
Y031201D01*
Y031202D01*
X022956Y031214D01*
X022957Y031226D01*
X022958Y031237D01*
X022960Y031247D01*
X022963Y031257D01*
X022966Y031266D01*
X022968Y031274D01*
X022971Y031281D01*
X022975Y031287D01*
X022978Y031293D01*
X022980Y031298D01*
X022983Y031301D01*
X022985Y031304D01*
X022987Y031307D01*
X022988Y031307D01*
X022989Y031308D01*
X022995Y031314D01*
X023001Y031320D01*
X023008Y031325D01*
X023016Y031330D01*
X023023Y031333D01*
X023030Y031336D01*
X023037Y031339D01*
X023043Y031340D01*
X023049Y031342D01*
X023055Y031343D01*
X023060Y031344D01*
X023064Y031344D01*
X023068Y031345D01*
X023073D01*
X023082Y031344D01*
X023090Y031344D01*
X023098Y031342D01*
X023105Y031339D01*
X023119Y031332D01*
X023125Y031329D01*
X023131Y031326D01*
X023136Y031322D01*
X023140Y031319D01*
X023144Y031315D01*
X023147Y031312D01*
X023150Y031309D01*
X023152Y031307D01*
X023153Y031307D01*
X023154Y031306D01*
Y031444D01*
X023227D01*
Y031060D01*
D02*
G37*
G36*
X021575Y032229D02*
X021590Y032227D01*
X021602Y032225D01*
X021608Y032224D01*
X021613Y032223D01*
X021618Y032222D01*
X021622Y032220D01*
X021626Y032219D01*
X021629Y032218D01*
X021632Y032218D01*
X021633Y032216D01*
X021634Y032216D01*
X021635D01*
X021646Y032211D01*
X021655Y032204D01*
X021663Y032197D01*
X021670Y032191D01*
X021675Y032185D01*
X021679Y032181D01*
X021681Y032178D01*
X021682Y032177D01*
Y032176D01*
X021688Y032167D01*
X021692Y032157D01*
X021695Y032148D01*
X021697Y032139D01*
X021698Y032132D01*
X021698Y032127D01*
X021699Y032125D01*
Y032123D01*
Y032122D01*
Y032122D01*
X021698Y032113D01*
X021697Y032106D01*
X021696Y032097D01*
X021693Y032090D01*
X021688Y032077D01*
X021684Y032071D01*
X021681Y032066D01*
X021678Y032061D01*
X021675Y032057D01*
X021672Y032053D01*
X021669Y032050D01*
X021667Y032048D01*
X021665Y032046D01*
X021664Y032044D01*
X021664Y032044D01*
X021659Y032040D01*
X021653Y032036D01*
X021646Y032032D01*
X021640Y032029D01*
X021625Y032022D01*
X021611Y032016D01*
X021604Y032014D01*
X021597Y032012D01*
X021591Y032011D01*
X021586Y032009D01*
X021582Y032008D01*
X021579Y032006D01*
X021577Y032006D01*
X021576D01*
X021568Y032004D01*
X021560Y032002D01*
X021553Y032000D01*
X021546Y031999D01*
X021540Y031997D01*
X021535Y031995D01*
X021531Y031994D01*
X021527Y031993D01*
X021524Y031992D01*
X021521Y031991D01*
X021519Y031990D01*
X021517Y031990D01*
X021515Y031990D01*
X021514Y031989D01*
X021507Y031986D01*
X021501Y031983D01*
X021497Y031981D01*
X021493Y031978D01*
X021490Y031976D01*
X021488Y031974D01*
X021487Y031973D01*
X021486Y031972D01*
X021484Y031969D01*
X021482Y031965D01*
X021480Y031961D01*
X021479Y031957D01*
X021479Y031954D01*
X021478Y031951D01*
Y031950D01*
Y031949D01*
X021479Y031941D01*
X021481Y031934D01*
X021484Y031928D01*
X021488Y031923D01*
X021492Y031918D01*
X021495Y031915D01*
X021497Y031913D01*
X021498Y031912D01*
X021506Y031907D01*
X021515Y031903D01*
X021524Y031900D01*
X021533Y031899D01*
X021541Y031897D01*
X021545Y031897D01*
X021548D01*
X021551Y031897D01*
X021554D01*
X021567Y031897D01*
X021578Y031899D01*
X021587Y031902D01*
X021595Y031906D01*
X021602Y031909D01*
X021606Y031911D01*
X021609Y031913D01*
X021610Y031914D01*
X021617Y031922D01*
X021623Y031930D01*
X021628Y031939D01*
X021632Y031949D01*
X021635Y031957D01*
X021636Y031960D01*
X021636Y031964D01*
X021637Y031967D01*
X021637Y031969D01*
X021638Y031969D01*
Y031970D01*
X021713Y031962D01*
X021711Y031951D01*
X021709Y031940D01*
X021706Y031930D01*
X021703Y031920D01*
X021699Y031911D01*
X021695Y031903D01*
X021691Y031896D01*
X021687Y031890D01*
X021683Y031883D01*
X021679Y031878D01*
X021676Y031874D01*
X021673Y031871D01*
X021670Y031868D01*
X021668Y031866D01*
X021667Y031865D01*
X021667Y031865D01*
X021659Y031858D01*
X021651Y031853D01*
X021642Y031849D01*
X021633Y031845D01*
X021623Y031842D01*
X021614Y031839D01*
X021596Y031835D01*
X021588Y031834D01*
X021580Y031833D01*
X021573Y031832D01*
X021567Y031832D01*
X021562Y031831D01*
X021555D01*
X021537Y031832D01*
X021521Y031833D01*
X021513Y031834D01*
X021506Y031835D01*
X021500Y031837D01*
X021494Y031838D01*
X021489Y031839D01*
X021484Y031841D01*
X021481Y031842D01*
X021477Y031843D01*
X021475Y031844D01*
X021473Y031844D01*
X021472Y031845D01*
X021471D01*
X021459Y031851D01*
X021449Y031858D01*
X021440Y031865D01*
X021433Y031872D01*
X021427Y031878D01*
X021423Y031883D01*
X021421Y031885D01*
X021420Y031886D01*
X021419Y031887D01*
Y031888D01*
X021413Y031899D01*
X021409Y031909D01*
X021405Y031920D01*
X021403Y031930D01*
X021402Y031938D01*
X021401Y031941D01*
Y031944D01*
X021401Y031946D01*
Y031948D01*
Y031950D01*
Y031950D01*
X021401Y031963D01*
X021403Y031975D01*
X021406Y031985D01*
X021408Y031994D01*
X021411Y032002D01*
X021413Y032004D01*
X021414Y032006D01*
X021415Y032009D01*
X021416Y032010D01*
X021416Y032011D01*
Y032011D01*
X021423Y032020D01*
X021429Y032027D01*
X021436Y032034D01*
X021443Y032040D01*
X021449Y032044D01*
X021454Y032048D01*
X021456Y032049D01*
X021458Y032050D01*
X021458Y032050D01*
X021459D01*
X021464Y032053D01*
X021470Y032056D01*
X021483Y032061D01*
X021497Y032065D01*
X021511Y032070D01*
X021517Y032072D01*
X021523Y032074D01*
X021528Y032075D01*
X021533Y032076D01*
X021537Y032077D01*
X021540Y032078D01*
X021542Y032078D01*
X021542D01*
X021552Y032081D01*
X021562Y032083D01*
X021570Y032086D01*
X021577Y032088D01*
X021584Y032090D01*
X021590Y032092D01*
X021595Y032095D01*
X021599Y032097D01*
X021603Y032098D01*
X021606Y032099D01*
X021608Y032101D01*
X021610Y032102D01*
X021612Y032103D01*
X021613Y032104D01*
X021613Y032104D01*
X021617Y032108D01*
X021620Y032112D01*
X021622Y032116D01*
X021623Y032120D01*
X021624Y032122D01*
X021625Y032125D01*
Y032127D01*
Y032127D01*
X021624Y032133D01*
X021623Y032137D01*
X021621Y032141D01*
X021619Y032145D01*
X021617Y032148D01*
X021615Y032150D01*
X021613Y032151D01*
X021613Y032152D01*
X021605Y032156D01*
X021596Y032160D01*
X021588Y032162D01*
X021579Y032164D01*
X021571Y032165D01*
X021568D01*
X021565Y032166D01*
X021560D01*
X021548Y032165D01*
X021538Y032164D01*
X021530Y032162D01*
X021523Y032159D01*
X021518Y032157D01*
X021514Y032155D01*
X021512Y032153D01*
X021511Y032153D01*
X021505Y032147D01*
X021500Y032141D01*
X021497Y032134D01*
X021494Y032127D01*
X021492Y032120D01*
X021490Y032115D01*
X021490Y032113D01*
X021489Y032111D01*
Y032111D01*
Y032110D01*
X021412Y032113D01*
X021412Y032122D01*
X021414Y032132D01*
X021416Y032141D01*
X021419Y032148D01*
X021422Y032156D01*
X021425Y032163D01*
X021428Y032169D01*
X021432Y032175D01*
X021435Y032181D01*
X021439Y032185D01*
X021442Y032188D01*
X021444Y032192D01*
X021447Y032194D01*
X021449Y032196D01*
X021450Y032197D01*
X021450Y032197D01*
X021457Y032203D01*
X021465Y032208D01*
X021474Y032213D01*
X021483Y032216D01*
X021492Y032219D01*
X021501Y032222D01*
X021518Y032225D01*
X021527Y032227D01*
X021534Y032228D01*
X021541Y032229D01*
X021547Y032229D01*
X021552Y032229D01*
X021559D01*
X021575Y032229D01*
D02*
G37*
G36*
X023988Y032084D02*
X023994Y032091D01*
X024001Y032097D01*
X024008Y032102D01*
X024015Y032106D01*
X024022Y032111D01*
X024029Y032113D01*
X024035Y032116D01*
X024041Y032118D01*
X024047Y032120D01*
X024052Y032121D01*
X024057Y032122D01*
X024061Y032122D01*
X024064Y032123D01*
X024069D01*
X024078Y032122D01*
X024087Y032122D01*
X024095Y032120D01*
X024103Y032117D01*
X024111Y032115D01*
X024118Y032111D01*
X024124Y032108D01*
X024130Y032104D01*
X024135Y032101D01*
X024140Y032097D01*
X024144Y032095D01*
X024147Y032092D01*
X024150Y032090D01*
X024152Y032088D01*
X024153Y032087D01*
X024153Y032086D01*
X024159Y032078D01*
X024164Y032071D01*
X024169Y032062D01*
X024172Y032053D01*
X024176Y032044D01*
X024178Y032036D01*
X024182Y032018D01*
X024183Y032010D01*
X024184Y032002D01*
X024185Y031995D01*
X024186Y031990D01*
X024186Y031985D01*
Y031981D01*
Y031979D01*
Y031978D01*
X024186Y031965D01*
X024185Y031953D01*
X024183Y031942D01*
X024181Y031932D01*
X024178Y031922D01*
X024175Y031913D01*
X024172Y031905D01*
X024169Y031898D01*
X024166Y031892D01*
X024163Y031886D01*
X024160Y031881D01*
X024158Y031877D01*
X024155Y031874D01*
X024154Y031872D01*
X024153Y031871D01*
X024152Y031870D01*
X024146Y031863D01*
X024139Y031858D01*
X024132Y031852D01*
X024125Y031848D01*
X024118Y031844D01*
X024111Y031841D01*
X024105Y031839D01*
X024098Y031837D01*
X024093Y031834D01*
X024087Y031834D01*
X024082Y031832D01*
X024078Y031832D01*
X024075D01*
X024072Y031832D01*
X024070D01*
X024061Y031832D01*
X024053Y031834D01*
X024045Y031835D01*
X024038Y031837D01*
X024032Y031839D01*
X024027Y031841D01*
X024024Y031843D01*
X024023Y031843D01*
X024015Y031848D01*
X024007Y031853D01*
X024000Y031860D01*
X023994Y031865D01*
X023989Y031871D01*
X023986Y031874D01*
X023984Y031878D01*
X023983Y031878D01*
Y031838D01*
X023914D01*
Y032222D01*
X023988D01*
Y032084D01*
D02*
G37*
G36*
X022821Y032122D02*
X022831Y032122D01*
X022840Y032120D01*
X022848Y032117D01*
X022857Y032114D01*
X022864Y032111D01*
X022871Y032107D01*
X022877Y032104D01*
X022883Y032099D01*
X022888Y032096D01*
X022892Y032092D01*
X022896Y032090D01*
X022899Y032087D01*
X022901Y032085D01*
X022902Y032084D01*
X022902Y032083D01*
X022909Y032076D01*
X022914Y032067D01*
X022919Y032059D01*
X022923Y032050D01*
X022927Y032041D01*
X022929Y032032D01*
X022932Y032023D01*
X022934Y032015D01*
X022935Y032006D01*
X022936Y031999D01*
X022937Y031992D01*
X022938Y031986D01*
Y031981D01*
X022938Y031978D01*
Y031976D01*
Y031975D01*
X022938Y031964D01*
X022937Y031954D01*
X022936Y031944D01*
X022934Y031936D01*
X022932Y031927D01*
X022930Y031919D01*
X022927Y031912D01*
X022924Y031906D01*
X022922Y031899D01*
X022919Y031894D01*
X022917Y031890D01*
X022915Y031886D01*
X022913Y031883D01*
X022912Y031881D01*
X022911Y031879D01*
X022911Y031879D01*
X022904Y031871D01*
X022896Y031864D01*
X022888Y031857D01*
X022879Y031851D01*
X022871Y031847D01*
X022862Y031843D01*
X022853Y031840D01*
X022844Y031837D01*
X022836Y031835D01*
X022828Y031834D01*
X022822Y031833D01*
X022816Y031832D01*
X022811Y031832D01*
X022807Y031832D01*
X022804D01*
X022787Y031832D01*
X022772Y031835D01*
X022759Y031838D01*
X022754Y031840D01*
X022748Y031842D01*
X022743Y031844D01*
X022739Y031846D01*
X022736Y031848D01*
X022733Y031849D01*
X022730Y031851D01*
X022729Y031851D01*
X022728Y031853D01*
X022727D01*
X022717Y031861D01*
X022707Y031871D01*
X022700Y031881D01*
X022693Y031891D01*
X022688Y031900D01*
X022687Y031904D01*
X022685Y031907D01*
X022684Y031910D01*
X022683Y031912D01*
X022682Y031913D01*
Y031914D01*
X022756Y031927D01*
X022758Y031919D01*
X022761Y031913D01*
X022764Y031907D01*
X022767Y031903D01*
X022770Y031899D01*
X022772Y031897D01*
X022774Y031896D01*
X022774Y031895D01*
X022779Y031892D01*
X022784Y031890D01*
X022788Y031888D01*
X022793Y031888D01*
X022797Y031887D01*
X022800Y031886D01*
X022803D01*
X022812Y031888D01*
X022820Y031890D01*
X022827Y031892D01*
X022834Y031895D01*
X022839Y031899D01*
X022842Y031902D01*
X022844Y031904D01*
X022845Y031904D01*
X022851Y031912D01*
X022855Y031920D01*
X022858Y031929D01*
X022860Y031937D01*
X022862Y031944D01*
X022862Y031951D01*
X022863Y031953D01*
Y031955D01*
Y031955D01*
Y031956D01*
X022678D01*
Y031971D01*
X022679Y031985D01*
X022681Y031999D01*
X022683Y032011D01*
X022686Y032023D01*
X022688Y032033D01*
X022692Y032042D01*
X022695Y032050D01*
X022698Y032058D01*
X022701Y032064D01*
X022704Y032069D01*
X022707Y032074D01*
X022709Y032077D01*
X022711Y032080D01*
X022712Y032081D01*
X022713Y032081D01*
X022720Y032089D01*
X022727Y032095D01*
X022735Y032101D01*
X022743Y032106D01*
X022751Y032109D01*
X022760Y032113D01*
X022768Y032115D01*
X022775Y032118D01*
X022783Y032120D01*
X022789Y032121D01*
X022795Y032122D01*
X022800Y032122D01*
X022805D01*
X022808Y032123D01*
X022811D01*
X022821Y032122D01*
D02*
G37*
G36*
X024859Y032510D02*
X024715D01*
X024703Y032510D01*
X024683D01*
X024674Y032511D01*
X024660D01*
X024654Y032511D01*
X024649D01*
X024645Y032512D01*
X024639D01*
X024637Y032513D01*
X024635D01*
X024624Y032515D01*
X024614Y032517D01*
X024605Y032520D01*
X024598Y032523D01*
X024592Y032525D01*
X024587Y032528D01*
X024584Y032530D01*
X024583Y032531D01*
X024576Y032536D01*
X024569Y032543D01*
X024563Y032550D01*
X024558Y032556D01*
X024555Y032562D01*
X024552Y032566D01*
X024550Y032569D01*
X024550Y032569D01*
Y032570D01*
X024546Y032580D01*
X024543Y032589D01*
X024540Y032597D01*
X024539Y032605D01*
X024538Y032611D01*
X024537Y032617D01*
Y032619D01*
Y032620D01*
Y032620D01*
Y032621D01*
X024538Y032633D01*
X024540Y032644D01*
X024543Y032654D01*
X024547Y032662D01*
X024550Y032669D01*
X024553Y032675D01*
X024554Y032676D01*
X024555Y032678D01*
X024556Y032678D01*
Y032679D01*
X024564Y032687D01*
X024573Y032695D01*
X024582Y032701D01*
X024590Y032706D01*
X024598Y032710D01*
X024602Y032711D01*
X024604Y032712D01*
X024607Y032713D01*
X024609Y032713D01*
X024610Y032714D01*
X024610D01*
X024601Y032719D01*
X024594Y032724D01*
X024587Y032730D01*
X024581Y032736D01*
X024577Y032740D01*
X024573Y032745D01*
X024571Y032747D01*
X024571Y032748D01*
X024566Y032757D01*
X024562Y032765D01*
X024560Y032773D01*
X024558Y032781D01*
X024557Y032788D01*
X024556Y032793D01*
Y032795D01*
Y032796D01*
Y032797D01*
Y032798D01*
X024557Y032806D01*
X024558Y032815D01*
X024560Y032822D01*
X024562Y032829D01*
X024564Y032835D01*
X024566Y032839D01*
X024568Y032841D01*
X024568Y032843D01*
X024573Y032850D01*
X024578Y032856D01*
X024583Y032861D01*
X024587Y032866D01*
X024592Y032870D01*
X024595Y032873D01*
X024597Y032874D01*
X024598Y032875D01*
X024604Y032878D01*
X024611Y032882D01*
X024618Y032885D01*
X024624Y032887D01*
X024630Y032889D01*
X024634Y032889D01*
X024637Y032891D01*
X024638D01*
X024642Y032891D01*
X024647Y032892D01*
X024658Y032893D01*
X024669Y032894D01*
X024680Y032894D01*
X024690Y032894D01*
X024859D01*
Y032510D01*
D02*
G37*
%LPC*%
G36*
X023186Y032643D02*
X023185D01*
Y032628D01*
Y032619D01*
X023186Y032611D01*
X023186Y032606D01*
X023187Y032601D01*
X023187Y032597D01*
X023188Y032594D01*
X023188Y032593D01*
Y032592D01*
X023190Y032587D01*
X023193Y032582D01*
X023196Y032578D01*
X023199Y032575D01*
X023201Y032573D01*
X023204Y032570D01*
X023205Y032569D01*
X023206Y032569D01*
X023213Y032564D01*
X023220Y032561D01*
X023226Y032559D01*
X023232Y032557D01*
X023237Y032556D01*
X023241Y032555D01*
X023244D01*
X023251Y032556D01*
X023256Y032557D01*
X023261Y032559D01*
X023265Y032561D01*
X023269Y032563D01*
X023271Y032565D01*
X023273Y032566D01*
X023273Y032566D01*
X023277Y032571D01*
X023280Y032576D01*
X023282Y032580D01*
X023283Y032584D01*
X023284Y032587D01*
X023285Y032590D01*
Y032592D01*
Y032593D01*
X023284Y032599D01*
X023283Y032603D01*
X023280Y032608D01*
X023278Y032612D01*
X023275Y032615D01*
X023273Y032617D01*
X023271Y032619D01*
X023271Y032619D01*
X023266Y032622D01*
X023260Y032624D01*
X023254Y032626D01*
X023247Y032627D01*
X023241Y032629D01*
X023236Y032631D01*
X023234Y032631D01*
X023232D01*
X023231Y032631D01*
X023231D01*
X023220Y032634D01*
X023211Y032636D01*
X023203Y032638D01*
X023196Y032640D01*
X023191Y032641D01*
X023188Y032642D01*
X023186Y032643D01*
D02*
G37*
G36*
X021852Y032706D02*
X021849D01*
X021841Y032705D01*
X021834Y032703D01*
X021828Y032700D01*
X021822Y032696D01*
X021818Y032693D01*
X021815Y032690D01*
X021813Y032689D01*
X021812Y032687D01*
X021807Y032680D01*
X021804Y032671D01*
X021801Y032662D01*
X021799Y032654D01*
X021798Y032645D01*
X021798Y032641D01*
X021797Y032638D01*
Y032636D01*
Y032634D01*
Y032633D01*
Y032633D01*
X021798Y032620D01*
X021799Y032609D01*
X021802Y032600D01*
X021804Y032592D01*
X021807Y032587D01*
X021809Y032583D01*
X021811Y032581D01*
X021811Y032580D01*
X021817Y032575D01*
X021822Y032571D01*
X021828Y032568D01*
X021833Y032566D01*
X021838Y032565D01*
X021842Y032564D01*
X021844Y032564D01*
X021845D01*
X021853Y032565D01*
X021860Y032567D01*
X021866Y032570D01*
X021872Y032574D01*
X021876Y032578D01*
X021880Y032580D01*
X021882Y032582D01*
X021883Y032583D01*
X021888Y032592D01*
X021892Y032601D01*
X021895Y032610D01*
X021897Y032619D01*
X021898Y032627D01*
X021899Y032630D01*
Y032633D01*
X021899Y032636D01*
Y032638D01*
Y032638D01*
Y032639D01*
X021899Y032650D01*
X021897Y032661D01*
X021895Y032669D01*
X021892Y032676D01*
X021889Y032682D01*
X021887Y032685D01*
X021885Y032687D01*
X021885Y032689D01*
X021879Y032694D01*
X021873Y032699D01*
X021867Y032701D01*
X021861Y032703D01*
X021856Y032705D01*
X021852Y032706D01*
D02*
G37*
G36*
X024782Y032678D02*
X024701D01*
X024693Y032677D01*
X024686Y032676D01*
X024680Y032676D01*
X024674D01*
X024669Y032675D01*
X024665Y032675D01*
X024661Y032675D01*
X024658Y032674D01*
X024656Y032673D01*
X024654Y032673D01*
X024651Y032673D01*
X024650Y032672D01*
X024645Y032669D01*
X024640Y032667D01*
X024635Y032664D01*
X024632Y032661D01*
X024629Y032659D01*
X024627Y032656D01*
X024626Y032655D01*
X024626Y032654D01*
X024623Y032650D01*
X024621Y032645D01*
X024619Y032640D01*
X024618Y032635D01*
X024618Y032631D01*
X024617Y032628D01*
Y032626D01*
Y032625D01*
X024618Y032617D01*
X024619Y032611D01*
X024621Y032606D01*
X024623Y032601D01*
X024625Y032597D01*
X024627Y032594D01*
X024628Y032592D01*
X024628Y032592D01*
X024633Y032588D01*
X024637Y032585D01*
X024642Y032582D01*
X024647Y032580D01*
X024651Y032578D01*
X024654Y032578D01*
X024656Y032577D01*
X024657D01*
X024659Y032576D01*
X024662D01*
X024666Y032576D01*
X024670D01*
X024678Y032576D01*
X024687D01*
X024696Y032575D01*
X024782D01*
Y032678D01*
D02*
G37*
G36*
X022887Y032643D02*
X022887D01*
Y032628D01*
Y032619D01*
X022887Y032611D01*
X022888Y032606D01*
X022888Y032601D01*
X022889Y032597D01*
X022889Y032594D01*
X022890Y032593D01*
Y032592D01*
X022892Y032587D01*
X022894Y032582D01*
X022897Y032578D01*
X022900Y032575D01*
X022903Y032573D01*
X022905Y032570D01*
X022907Y032569D01*
X022907Y032569D01*
X022914Y032564D01*
X022921Y032561D01*
X022928Y032559D01*
X022933Y032557D01*
X022938Y032556D01*
X022942Y032555D01*
X022946D01*
X022952Y032556D01*
X022958Y032557D01*
X022963Y032559D01*
X022967Y032561D01*
X022970Y032563D01*
X022973Y032565D01*
X022974Y032566D01*
X022975Y032566D01*
X022979Y032571D01*
X022981Y032576D01*
X022983Y032580D01*
X022985Y032584D01*
X022986Y032587D01*
X022986Y032590D01*
Y032592D01*
Y032593D01*
X022986Y032599D01*
X022984Y032603D01*
X022982Y032608D01*
X022979Y032612D01*
X022977Y032615D01*
X022974Y032617D01*
X022973Y032619D01*
X022972Y032619D01*
X022968Y032622D01*
X022962Y032624D01*
X022955Y032626D01*
X022949Y032627D01*
X022942Y032629D01*
X022937Y032631D01*
X022935Y032631D01*
X022934D01*
X022933Y032631D01*
X022932D01*
X022921Y032634D01*
X022912Y032636D01*
X022904Y032638D01*
X022898Y032640D01*
X022893Y032641D01*
X022889Y032642D01*
X022887Y032643D01*
D02*
G37*
G36*
X022613Y032738D02*
X022605D01*
X022601Y032738D01*
X022592Y032735D01*
X022584Y032731D01*
X022578Y032728D01*
X022573Y032724D01*
X022569Y032720D01*
X022567Y032718D01*
X022566Y032717D01*
Y032717D01*
X022563Y032713D01*
X022560Y032708D01*
X022556Y032698D01*
X022553Y032686D01*
X022550Y032675D01*
X022549Y032664D01*
X022549Y032660D01*
Y032656D01*
X022548Y032652D01*
Y032650D01*
Y032648D01*
Y032648D01*
Y032640D01*
X022549Y032633D01*
X022550Y032625D01*
X022551Y032619D01*
X022552Y032613D01*
X022554Y032608D01*
X022555Y032603D01*
X022557Y032598D01*
X022559Y032594D01*
X022560Y032591D01*
X022562Y032589D01*
X022563Y032586D01*
X022564Y032585D01*
X022565Y032583D01*
X022566Y032582D01*
Y032582D01*
X022573Y032575D01*
X022580Y032570D01*
X022587Y032566D01*
X022593Y032564D01*
X022599Y032562D01*
X022604Y032562D01*
X022607Y032562D01*
X022608D01*
X022614Y032562D01*
X022619Y032563D01*
X022624Y032564D01*
X022629Y032566D01*
X022638Y032571D01*
X022645Y032576D01*
X022651Y032582D01*
X022655Y032586D01*
X022657Y032588D01*
X022658Y032589D01*
X022659Y032590D01*
Y032590D01*
X022661Y032594D01*
X022663Y032599D01*
X022667Y032610D01*
X022669Y032620D01*
X022671Y032631D01*
X022672Y032640D01*
Y032645D01*
X022672Y032648D01*
Y032651D01*
Y032653D01*
Y032655D01*
Y032655D01*
Y032662D01*
X022671Y032670D01*
X022671Y032676D01*
X022669Y032682D01*
X022667Y032693D01*
X022663Y032702D01*
X022660Y032709D01*
X022657Y032713D01*
X022655Y032717D01*
X022655Y032717D01*
X022648Y032724D01*
X022640Y032729D01*
X022633Y032734D01*
X022626Y032736D01*
X022620Y032738D01*
X022615Y032738D01*
X022613Y032738D01*
D02*
G37*
G36*
X023886D02*
X023885D01*
X023877Y032738D01*
X023869Y032736D01*
X023863Y032733D01*
X023857Y032730D01*
X023853Y032727D01*
X023850Y032724D01*
X023847Y032722D01*
X023847Y032722D01*
X023841Y032715D01*
X023837Y032707D01*
X023834Y032699D01*
X023832Y032691D01*
X023831Y032684D01*
X023830Y032678D01*
X023830Y032676D01*
Y032675D01*
Y032673D01*
Y032673D01*
X023940D01*
X023940Y032683D01*
X023938Y032693D01*
X023935Y032701D01*
X023932Y032708D01*
X023930Y032713D01*
X023927Y032717D01*
X023925Y032720D01*
X023925Y032720D01*
X023918Y032727D01*
X023912Y032731D01*
X023905Y032734D01*
X023899Y032736D01*
X023893Y032738D01*
X023889Y032738D01*
X023886Y032738D01*
D02*
G37*
G36*
X024524Y031971D02*
X024524D01*
Y031956D01*
Y031947D01*
X024524Y031939D01*
X024525Y031934D01*
X024525Y031929D01*
X024526Y031925D01*
X024526Y031923D01*
X024527Y031921D01*
Y031920D01*
X024529Y031916D01*
X024531Y031911D01*
X024534Y031906D01*
X024537Y031903D01*
X024540Y031900D01*
X024542Y031898D01*
X024544Y031897D01*
X024544Y031897D01*
X024551Y031892D01*
X024558Y031889D01*
X024565Y031886D01*
X024570Y031885D01*
X024575Y031884D01*
X024579Y031883D01*
X024583D01*
X024589Y031884D01*
X024595Y031885D01*
X024600Y031887D01*
X024604Y031889D01*
X024607Y031891D01*
X024610Y031893D01*
X024611Y031894D01*
X024612Y031895D01*
X024616Y031899D01*
X024618Y031904D01*
X024620Y031907D01*
X024622Y031912D01*
X024623Y031916D01*
X024623Y031918D01*
Y031920D01*
Y031921D01*
X024623Y031927D01*
X024621Y031932D01*
X024619Y031936D01*
X024616Y031940D01*
X024614Y031943D01*
X024611Y031945D01*
X024610Y031946D01*
X024609Y031947D01*
X024605Y031950D01*
X024599Y031951D01*
X024592Y031953D01*
X024586Y031955D01*
X024579Y031957D01*
X024574Y031958D01*
X024572Y031959D01*
X024571D01*
X024570Y031960D01*
X024569D01*
X024558Y031962D01*
X024549Y031964D01*
X024541Y031966D01*
X024535Y031967D01*
X024530Y031969D01*
X024526Y031970D01*
X024524Y031971D01*
D02*
G37*
G36*
X023271D02*
X023271D01*
Y031956D01*
Y031947D01*
X023271Y031939D01*
X023272Y031934D01*
X023272Y031929D01*
X023273Y031925D01*
X023273Y031923D01*
X023274Y031921D01*
Y031920D01*
X023276Y031916D01*
X023278Y031911D01*
X023281Y031906D01*
X023284Y031903D01*
X023287Y031900D01*
X023289Y031898D01*
X023291Y031897D01*
X023291Y031897D01*
X023298Y031892D01*
X023305Y031889D01*
X023312Y031886D01*
X023317Y031885D01*
X023322Y031884D01*
X023326Y031883D01*
X023330D01*
X023336Y031884D01*
X023342Y031885D01*
X023347Y031887D01*
X023351Y031889D01*
X023354Y031891D01*
X023357Y031893D01*
X023358Y031894D01*
X023359Y031895D01*
X023363Y031899D01*
X023365Y031904D01*
X023367Y031907D01*
X023369Y031912D01*
X023370Y031916D01*
X023370Y031918D01*
Y031920D01*
Y031921D01*
X023370Y031927D01*
X023368Y031932D01*
X023366Y031936D01*
X023363Y031940D01*
X023361Y031943D01*
X023358Y031945D01*
X023357Y031946D01*
X023356Y031947D01*
X023352Y031950D01*
X023346Y031951D01*
X023339Y031953D01*
X023333Y031955D01*
X023326Y031957D01*
X023321Y031958D01*
X023319Y031959D01*
X023318D01*
X023317Y031960D01*
X023316D01*
X023305Y031962D01*
X023296Y031964D01*
X023288Y031966D01*
X023282Y031967D01*
X023277Y031969D01*
X023273Y031970D01*
X023271Y031971D01*
D02*
G37*
G36*
X021414Y031400D02*
X021411D01*
X021405Y031399D01*
X021400Y031398D01*
X021395Y031397D01*
X021391Y031395D01*
X021388Y031393D01*
X021385Y031391D01*
X021384Y031390D01*
X021383Y031390D01*
X021379Y031386D01*
X021377Y031381D01*
X021374Y031377D01*
X021374Y031374D01*
X021372Y031370D01*
X021372Y031367D01*
Y031365D01*
Y031365D01*
Y031362D01*
X021373Y031359D01*
X021376Y031353D01*
X021379Y031347D01*
X021383Y031342D01*
X021387Y031337D01*
X021391Y031334D01*
X021393Y031332D01*
X021393Y031331D01*
X021394D01*
X021414Y031316D01*
X021432Y031337D01*
X021437Y031344D01*
X021442Y031351D01*
X021444Y031356D01*
X021446Y031361D01*
X021448Y031365D01*
X021448Y031367D01*
X021449Y031370D01*
Y031370D01*
X021448Y031374D01*
X021447Y031378D01*
X021446Y031381D01*
X021444Y031384D01*
X021442Y031387D01*
X021440Y031389D01*
X021439Y031390D01*
X021439Y031391D01*
X021435Y031393D01*
X021430Y031395D01*
X021426Y031398D01*
X021421Y031398D01*
X021418Y031399D01*
X021414Y031400D01*
D02*
G37*
G36*
X022807Y032067D02*
X022806D01*
X022798Y032066D01*
X022791Y032064D01*
X022784Y032061D01*
X022779Y032058D01*
X022774Y032055D01*
X022771Y032052D01*
X022769Y032050D01*
X022768Y032050D01*
X022763Y032043D01*
X022759Y032035D01*
X022756Y032027D01*
X022754Y032019D01*
X022752Y032012D01*
X022752Y032006D01*
X022751Y032004D01*
Y032002D01*
Y032002D01*
Y032001D01*
X022862D01*
X022861Y032011D01*
X022859Y032021D01*
X022857Y032029D01*
X022854Y032036D01*
X022851Y032041D01*
X022849Y032046D01*
X022847Y032048D01*
X022846Y032048D01*
X022840Y032055D01*
X022833Y032059D01*
X022827Y032062D01*
X022820Y032064D01*
X022815Y032065D01*
X022810Y032066D01*
X022807Y032067D01*
D02*
G37*
G36*
X024052D02*
X024044D01*
X024040Y032065D01*
X024031Y032063D01*
X024023Y032060D01*
X024017Y032056D01*
X024012Y032052D01*
X024008Y032048D01*
X024006Y032046D01*
X024005Y032046D01*
Y032045D01*
X024002Y032041D01*
X023999Y032036D01*
X023995Y032025D01*
X023992Y032014D01*
X023989Y032002D01*
X023988Y031992D01*
X023988Y031988D01*
Y031984D01*
X023987Y031981D01*
Y031978D01*
Y031976D01*
Y031976D01*
Y031968D01*
X023988Y031960D01*
X023989Y031954D01*
X023990Y031948D01*
X023991Y031941D01*
X023993Y031937D01*
X023995Y031932D01*
X023996Y031927D01*
X023998Y031923D01*
X024000Y031920D01*
X024001Y031918D01*
X024002Y031915D01*
X024004Y031913D01*
X024004Y031912D01*
X024005Y031911D01*
Y031911D01*
X024009Y031907D01*
X024012Y031904D01*
X024020Y031899D01*
X024027Y031895D01*
X024034Y031892D01*
X024040Y031890D01*
X024044Y031890D01*
X024046Y031890D01*
X024049D01*
X024055Y031890D01*
X024060Y031890D01*
X024065Y031892D01*
X024070Y031894D01*
X024079Y031899D01*
X024086Y031904D01*
X024091Y031909D01*
X024095Y031913D01*
X024097Y031916D01*
X024098Y031917D01*
X024099Y031918D01*
Y031918D01*
X024101Y031922D01*
X024103Y031927D01*
X024106Y031937D01*
X024108Y031948D01*
X024109Y031958D01*
X024110Y031967D01*
Y031972D01*
X024111Y031976D01*
Y031978D01*
Y031981D01*
Y031983D01*
Y031983D01*
X024110Y031997D01*
X024108Y032011D01*
X024105Y032021D01*
X024102Y032030D01*
X024099Y032036D01*
X024096Y032041D01*
X024094Y032044D01*
X024093Y032046D01*
X024086Y032053D01*
X024079Y032057D01*
X024072Y032062D01*
X024065Y032064D01*
X024059Y032065D01*
X024054Y032066D01*
X024052Y032067D01*
D02*
G37*
G36*
X022340D02*
X022333D01*
X022328Y032065D01*
X022319Y032063D01*
X022312Y032060D01*
X022305Y032056D01*
X022300Y032052D01*
X022296Y032048D01*
X022294Y032046D01*
X022293Y032046D01*
Y032045D01*
X022290Y032041D01*
X022287Y032036D01*
X022283Y032025D01*
X022280Y032014D01*
X022278Y032002D01*
X022277Y031992D01*
X022276Y031988D01*
Y031984D01*
X022276Y031981D01*
Y031978D01*
Y031976D01*
Y031976D01*
Y031968D01*
X022276Y031960D01*
X022277Y031953D01*
X022278Y031946D01*
X022280Y031941D01*
X022281Y031936D01*
X022283Y031930D01*
X022284Y031926D01*
X022286Y031923D01*
X022288Y031919D01*
X022289Y031916D01*
X022290Y031914D01*
X022292Y031913D01*
X022292Y031911D01*
X022293Y031911D01*
Y031910D01*
X022300Y031903D01*
X022307Y031898D01*
X022314Y031895D01*
X022321Y031892D01*
X022327Y031890D01*
X022331Y031890D01*
X022334Y031890D01*
X022335D01*
X022341Y031890D01*
X022347Y031891D01*
X022352Y031892D01*
X022357Y031894D01*
X022365Y031899D01*
X022373Y031904D01*
X022379Y031909D01*
X022383Y031914D01*
X022384Y031916D01*
X022385Y031918D01*
X022386Y031918D01*
Y031918D01*
X022389Y031923D01*
X022391Y031927D01*
X022394Y031937D01*
X022396Y031948D01*
X022398Y031958D01*
X022399Y031968D01*
Y031972D01*
X022400Y031976D01*
Y031979D01*
Y031981D01*
Y031983D01*
Y031983D01*
Y031990D01*
X022399Y031998D01*
X022398Y032004D01*
X022397Y032011D01*
X022394Y032021D01*
X022391Y032030D01*
X022388Y032037D01*
X022385Y032041D01*
X022383Y032044D01*
X022382Y032046D01*
X022375Y032053D01*
X022368Y032057D01*
X022360Y032062D01*
X022353Y032064D01*
X022347Y032065D01*
X022342Y032066D01*
X022340Y032067D01*
D02*
G37*
G36*
X023095Y031288D02*
X023087D01*
X023083Y031288D01*
X023074Y031285D01*
X023066Y031281D01*
X023060Y031278D01*
X023055Y031274D01*
X023051Y031270D01*
X023049Y031268D01*
X023048Y031267D01*
Y031267D01*
X023045Y031263D01*
X023042Y031258D01*
X023038Y031247D01*
X023035Y031236D01*
X023033Y031225D01*
X023031Y031214D01*
X023031Y031210D01*
Y031206D01*
X023031Y031202D01*
Y031200D01*
Y031198D01*
Y031198D01*
Y031190D01*
X023031Y031182D01*
X023032Y031175D01*
X023033Y031168D01*
X023035Y031163D01*
X023036Y031158D01*
X023038Y031153D01*
X023039Y031148D01*
X023041Y031144D01*
X023043Y031141D01*
X023044Y031139D01*
X023045Y031136D01*
X023047Y031135D01*
X023047Y031133D01*
X023048Y031133D01*
Y031132D01*
X023055Y031125D01*
X023062Y031120D01*
X023069Y031116D01*
X023075Y031114D01*
X023082Y031112D01*
X023086Y031112D01*
X023089Y031112D01*
X023090D01*
X023096Y031112D01*
X023101Y031113D01*
X023107Y031114D01*
X023112Y031116D01*
X023120Y031121D01*
X023128Y031126D01*
X023133Y031131D01*
X023138Y031136D01*
X023139Y031138D01*
X023140Y031140D01*
X023141Y031140D01*
Y031140D01*
X023143Y031144D01*
X023145Y031149D01*
X023149Y031160D01*
X023151Y031170D01*
X023153Y031181D01*
X023154Y031190D01*
Y031195D01*
X023154Y031198D01*
Y031201D01*
Y031203D01*
Y031205D01*
Y031205D01*
Y031212D01*
X023154Y031220D01*
X023153Y031226D01*
X023152Y031233D01*
X023149Y031243D01*
X023145Y031252D01*
X023142Y031259D01*
X023140Y031263D01*
X023138Y031267D01*
X023137Y031267D01*
X023130Y031274D01*
X023122Y031279D01*
X023115Y031284D01*
X023108Y031286D01*
X023102Y031288D01*
X023097Y031288D01*
X023095Y031288D01*
D02*
G37*
G36*
X024026Y031193D02*
X024025D01*
Y031178D01*
Y031169D01*
X024026Y031161D01*
X024027Y031156D01*
X024027Y031151D01*
X024028Y031147D01*
X024028Y031144D01*
X024028Y031143D01*
Y031142D01*
X024030Y031137D01*
X024033Y031133D01*
X024036Y031128D01*
X024039Y031125D01*
X024042Y031123D01*
X024044Y031120D01*
X024046Y031119D01*
X024046Y031119D01*
X024053Y031114D01*
X024060Y031111D01*
X024067Y031109D01*
X024072Y031107D01*
X024077Y031106D01*
X024081Y031105D01*
X024084D01*
X024091Y031106D01*
X024097Y031107D01*
X024102Y031109D01*
X024106Y031111D01*
X024109Y031113D01*
X024111Y031115D01*
X024113Y031116D01*
X024114Y031116D01*
X024118Y031121D01*
X024120Y031126D01*
X024122Y031130D01*
X024123Y031134D01*
X024125Y031137D01*
X024125Y031140D01*
Y031142D01*
Y031143D01*
X024125Y031149D01*
X024123Y031154D01*
X024121Y031158D01*
X024118Y031162D01*
X024116Y031165D01*
X024113Y031167D01*
X024111Y031168D01*
X024111Y031169D01*
X024107Y031172D01*
X024100Y031174D01*
X024094Y031175D01*
X024088Y031177D01*
X024081Y031179D01*
X024076Y031181D01*
X024074Y031181D01*
X024072D01*
X024072Y031181D01*
X024071D01*
X024060Y031184D01*
X024051Y031186D01*
X024043Y031188D01*
X024037Y031189D01*
X024032Y031191D01*
X024028Y031192D01*
X024026Y031193D01*
D02*
G37*
G36*
X024782Y032831D02*
X024704D01*
X024698Y032830D01*
X024684D01*
X024680Y032829D01*
X024674D01*
X024672Y032829D01*
X024671D01*
X024664Y032827D01*
X024658Y032826D01*
X024653Y032824D01*
X024649Y032822D01*
X024646Y032819D01*
X024644Y032817D01*
X024642Y032816D01*
X024642Y032815D01*
X024638Y032811D01*
X024636Y032806D01*
X024634Y032801D01*
X024633Y032797D01*
X024632Y032793D01*
X024632Y032789D01*
Y032787D01*
Y032787D01*
X024632Y032780D01*
X024634Y032774D01*
X024635Y032769D01*
X024637Y032764D01*
X024640Y032761D01*
X024641Y032759D01*
X024643Y032757D01*
X024643Y032757D01*
X024648Y032752D01*
X024653Y032750D01*
X024658Y032747D01*
X024663Y032745D01*
X024668Y032744D01*
X024671Y032743D01*
X024674Y032743D01*
X024677D01*
X024680Y032742D01*
X024697D01*
X024707Y032741D01*
X024782D01*
Y032831D01*
D02*
G37*
G36*
X023562Y031288D02*
X023561D01*
X023553Y031288D01*
X023545Y031286D01*
X023539Y031283D01*
X023533Y031280D01*
X023529Y031277D01*
X023526Y031274D01*
X023523Y031272D01*
X023523Y031272D01*
X023517Y031265D01*
X023514Y031257D01*
X023510Y031249D01*
X023509Y031241D01*
X023507Y031234D01*
X023507Y031228D01*
X023506Y031226D01*
Y031225D01*
Y031223D01*
Y031223D01*
X023616D01*
X023616Y031233D01*
X023614Y031243D01*
X023612Y031251D01*
X023609Y031258D01*
X023606Y031263D01*
X023603Y031267D01*
X023602Y031270D01*
X023601Y031270D01*
X023595Y031277D01*
X023588Y031281D01*
X023582Y031284D01*
X023575Y031286D01*
X023570Y031288D01*
X023565Y031288D01*
X023562Y031288D01*
D02*
G37*
G36*
X021444Y031236D02*
X021443D01*
X021368Y031143D01*
X021375Y031137D01*
X021381Y031133D01*
X021388Y031129D01*
X021393Y031126D01*
X021397Y031123D01*
X021400Y031122D01*
X021402Y031121D01*
X021403Y031121D01*
X021409Y031119D01*
X021414Y031117D01*
X021420Y031116D01*
X021425Y031115D01*
X021430Y031114D01*
X021433Y031114D01*
X021436D01*
X021445Y031114D01*
X021453Y031116D01*
X021460Y031119D01*
X021467Y031121D01*
X021471Y031124D01*
X021474Y031126D01*
X021477Y031128D01*
X021477Y031129D01*
X021483Y031135D01*
X021486Y031142D01*
X021489Y031148D01*
X021491Y031154D01*
X021492Y031160D01*
X021493Y031164D01*
X021493Y031167D01*
Y031168D01*
Y031168D01*
X021493Y031175D01*
X021491Y031182D01*
X021489Y031188D01*
X021486Y031193D01*
X021484Y031198D01*
X021483Y031202D01*
X021481Y031204D01*
X021481Y031205D01*
X021476Y031212D01*
X021470Y031218D01*
X021463Y031223D01*
X021457Y031228D01*
X021451Y031231D01*
X021447Y031233D01*
X021444Y031235D01*
X021444Y031236D01*
D02*
G37*
G36*
X025159Y031285D02*
X025150D01*
X025145Y031284D01*
X025136Y031281D01*
X025129Y031278D01*
X025122Y031274D01*
X025115Y031270D01*
X025111Y031266D01*
X025109Y031263D01*
X025108Y031263D01*
Y031263D01*
X025101Y031253D01*
X025096Y031244D01*
X025093Y031233D01*
X025090Y031223D01*
X025089Y031214D01*
X025089Y031209D01*
Y031207D01*
X025088Y031203D01*
Y031202D01*
Y031200D01*
Y031200D01*
X025089Y031184D01*
X025091Y031172D01*
X025094Y031161D01*
X025098Y031152D01*
X025101Y031144D01*
X025103Y031142D01*
X025105Y031140D01*
X025106Y031138D01*
X025107Y031137D01*
X025108Y031136D01*
Y031135D01*
X025111Y031131D01*
X025115Y031128D01*
X025124Y031123D01*
X025131Y031119D01*
X025140Y031116D01*
X025146Y031114D01*
X025151Y031114D01*
X025153Y031114D01*
X025156D01*
X025161Y031114D01*
X025166Y031114D01*
X025176Y031117D01*
X025184Y031121D01*
X025191Y031124D01*
X025197Y031128D01*
X025201Y031132D01*
X025203Y031135D01*
X025205Y031135D01*
X025211Y031144D01*
X025216Y031154D01*
X025219Y031165D01*
X025222Y031175D01*
X025223Y031184D01*
X025224Y031188D01*
Y031192D01*
X025224Y031195D01*
Y031197D01*
Y031198D01*
Y031199D01*
X025223Y031214D01*
X025221Y031226D01*
X025218Y031237D01*
X025214Y031247D01*
X025210Y031253D01*
X025209Y031256D01*
X025208Y031258D01*
X025206Y031260D01*
X025206Y031261D01*
X025205Y031263D01*
X025201Y031267D01*
X025197Y031270D01*
X025189Y031275D01*
X025180Y031279D01*
X025173Y031282D01*
X025166Y031284D01*
X025161Y031284D01*
X025159Y031285D01*
D02*
G37*
%LPD*%
D10*
X025290Y016580D02*
X028440Y019730D01*
X020640Y016580D02*
X025290D01*
X019800Y017420D02*
X020640Y016580D01*
X024930Y016970D02*
X028920Y020960D01*
X021360Y016970D02*
X024930D01*
X020160Y018170D02*
X021360Y016970D01*
X026310Y024400D02*
X027900Y025990D01*
X019680Y022490D02*
Y022680D01*
Y022490D02*
X023090Y019080D01*
X020260Y022530D02*
X020640Y022910D01*
X023090Y019080D02*
X023460D01*
X022800Y018080D02*
X023460D01*
X019080Y021800D02*
X022800Y018080D01*
X019080Y021800D02*
Y022780D01*
X020640Y022910D02*
Y023330D01*
X022720Y017580D02*
X023460D01*
X018638Y021662D02*
X022720Y017580D01*
X018638Y021662D02*
Y023028D01*
X019080Y022780D02*
X019510Y023210D01*
X020080D01*
X018638Y023028D02*
X019290Y023680D01*
X020290D01*
X020640Y023330D01*
X019745Y021830D02*
X022995Y018580D01*
X023460D01*
X024660Y022700D02*
X024690D01*
X024675Y022295D02*
X026310Y023930D01*
Y024400D01*
X024690Y022700D02*
X026040Y024050D01*
Y025130D01*
X027900Y026990D01*
D35*
X018204Y015130D02*
X025540D01*
X035550Y017300D02*
Y024910D01*
X034390Y026070D02*
X035550Y024910D01*
X029889Y025550D02*
X030409Y026070D01*
X035050Y017300D02*
Y024660D01*
X034160Y025550D02*
X035050Y024660D01*
X033089Y025550D02*
X034160D01*
X034600Y017300D02*
Y024380D01*
X033897Y024280D02*
X034117Y024060D01*
X033890Y024280D02*
X033897D01*
X034117Y017300D02*
Y024060D01*
X018605Y017415D02*
Y019030D01*
X029880Y015260D02*
X030320Y015700D01*
X029880Y013500D02*
Y015260D01*
X030055Y018840D02*
Y018855D01*
X018605Y017415D02*
X019940Y016080D01*
X025790D01*
X028560Y018850D01*
X020280Y015610D02*
X026810D01*
X030055Y018855D01*
X019730Y014470D02*
X027020D01*
X031329Y018779D01*
X030409Y026070D02*
X034390D01*
X018020Y021910D02*
X018030Y021920D01*
Y027040D01*
X016110Y017224D02*
X018204Y015130D01*
X016110Y017224D02*
Y018910D01*
X034080Y024900D02*
X034600Y024380D01*
X033090Y024900D02*
X034080D01*
D36*
X030870Y014360D02*
X030980Y014470D01*
D39*
X017430Y031860D02*
X019090Y030200D01*
X024450D01*
D40*
X030690Y014180D02*
X030980Y014470D01*
X033040D02*
X033390Y014120D01*
X030980Y014470D02*
X033040D01*
X030540Y016310D02*
X030980Y015870D01*
Y014470D02*
Y015870D01*
X015290Y016870D02*
X018530Y013630D01*
X027240D01*
X029920Y016310D02*
X030540D01*
X027240Y013630D02*
X029920Y016310D01*
X018860Y036700D02*
X019263D01*
X015290Y016870D02*
Y028160D01*
X016680Y029550D01*
Y034520D01*
X018860Y036700D01*
D41*
X024820Y024580D02*
D03*
X014160Y017690D02*
D03*
X013050Y025550D02*
D03*
D42*
X024820Y025580D02*
D03*
X014160Y016690D02*
D03*
X013050Y024550D02*
D03*
D43*
X028880Y013500D02*
D03*
X029880D02*
D03*
X030880D02*
D03*
X031880D02*
D03*
X032880D02*
D03*
D44*
X029106Y036700D02*
D03*
X023200D02*
D03*
X024184Y034732D02*
D03*
X022216D02*
D03*
X031133Y035716D02*
D03*
X016271D02*
D03*
X032010Y015029D02*
D03*
Y016220D02*
D03*
X023960Y019080D02*
D03*
X013270Y014670D02*
D03*
Y035920D02*
D03*
X034520D02*
D03*
Y014670D02*
D03*
D45*
X027137Y036700D02*
D03*
X025168D02*
D03*
X021232D02*
D03*
X019263D02*
D03*
X028121Y034732D02*
D03*
X026153D02*
D03*
X020247D02*
D03*
X018279D02*
D03*
D46*
X023460Y019580D02*
D03*
X023960D02*
D03*
X023460Y019080D02*
D03*
Y018580D02*
D03*
X023960D02*
D03*
X023460Y018080D02*
D03*
X023960D02*
D03*
X023460Y017580D02*
D03*
D47*
X023960D02*
D03*
D48*
X026607Y027480D02*
D03*
X023793D02*
D03*
D49*
X024688Y027393D02*
D03*
X025200D02*
D03*
X025712D02*
D03*
X025456Y027787D02*
D03*
X024944D02*
D03*
D50*
X027900Y026990D02*
D03*
Y028990D02*
D03*
Y027990D02*
D03*
Y025990D02*
D03*
Y024990D02*
D03*
D51*
Y029990D02*
D03*
D52*
X031770Y031580D02*
D03*
X022950Y028010D02*
D03*
X030690Y014180D02*
D03*
X035490Y032750D02*
D03*
X021900Y017480D02*
D03*
X019800Y017420D02*
D03*
X028440Y019730D02*
D03*
X020160Y018170D02*
D03*
X028920Y020960D02*
D03*
X025540Y015130D02*
D03*
X019680Y022680D02*
D03*
X026730Y015090D02*
D03*
X033390Y014120D02*
D03*
X020260Y022530D02*
D03*
X033890Y024280D02*
D03*
X018605Y019030D02*
D03*
X030320Y015700D02*
D03*
X029889Y025550D02*
D03*
X013530Y022010D02*
D03*
X033089Y025550D02*
D03*
X030055Y018840D02*
D03*
X028560Y018850D02*
D03*
X034117Y017300D02*
D03*
X034600D02*
D03*
X035050D02*
D03*
X035550D02*
D03*
X014920Y033346D02*
D03*
X020280Y015610D02*
D03*
X018020Y021910D02*
D03*
X012720Y032222D02*
D03*
Y032784D02*
D03*
Y033346D02*
D03*
X013820Y031660D02*
D03*
X013270D02*
D03*
X014920D02*
D03*
X014370D02*
D03*
X012720D02*
D03*
X016020D02*
D03*
X015470D02*
D03*
X016020Y032222D02*
D03*
X015470D02*
D03*
X016020Y032784D02*
D03*
X015470D02*
D03*
X016020Y033346D02*
D03*
X015470D02*
D03*
X016020Y033908D02*
D03*
X015470D02*
D03*
X016020Y034470D02*
D03*
X015470Y034470D02*
D03*
X013820Y033908D02*
D03*
X012720D02*
D03*
X013270D02*
D03*
X014370D02*
D03*
X014920D02*
D03*
X012720Y034470D02*
D03*
X014370Y034470D02*
D03*
X014920D02*
D03*
X012170Y033346D02*
D03*
Y032222D02*
D03*
Y032784D02*
D03*
Y033908D02*
D03*
Y034470D02*
D03*
Y031660D02*
D03*
X014920Y032784D02*
D03*
Y032222D02*
D03*
X019730Y014470D02*
D03*
X016060Y023930D02*
D03*
X020080Y023210D02*
D03*
X019745Y021830D02*
D03*
X031329Y018779D02*
D03*
X014370Y032230D02*
D03*
X013270D02*
D03*
X013820D02*
D03*
X020400Y029010D02*
D03*
X018030Y027040D02*
D03*
X016110Y018910D02*
D03*
X021480Y024350D02*
D03*
X024450Y030200D02*
D03*
X026190Y019640D02*
D03*
X016710Y026780D02*
D03*
X017658Y016760D02*
D03*
X017430Y031860D02*
D03*
X033090Y024900D02*
D03*
X024675Y022295D02*
D03*
X024660Y022700D02*
D03*
M02*
