G04 Layer_Color=16711935*
%FSAX24Y24*%
%MOIN*%
G70*
G01*
G75*
G04:AMPARAMS|DCode=86|XSize=67.1mil|YSize=86.7mil|CornerRadius=18.8mil|HoleSize=0mil|Usage=FLASHONLY|Rotation=90.000|XOffset=0mil|YOffset=0mil|HoleType=Round|Shape=RoundedRectangle|*
%AMROUNDEDRECTD86*
21,1,0.0671,0.0492,0,0,90.0*
21,1,0.0295,0.0867,0,0,90.0*
1,1,0.0375,0.0246,0.0148*
1,1,0.0375,0.0246,-0.0148*
1,1,0.0375,-0.0246,-0.0148*
1,1,0.0375,-0.0246,0.0148*
%
%ADD86ROUNDEDRECTD86*%
%ADD87O,0.0867X0.0671*%
%ADD88C,0.0780*%
%ADD89C,0.0130*%
%ADD90C,0.0946*%
%ADD91C,0.0493*%
%ADD92C,0.0493*%
%ADD93O,0.0671X0.0671*%
%ADD94C,0.0360*%
%ADD95C,0.0631*%
%ADD96R,0.0631X0.0631*%
%ADD97C,0.0380*%
D86*
X024820Y024580D02*
D03*
X014160Y017690D02*
D03*
X013050Y025550D02*
D03*
D87*
X024820Y025580D02*
D03*
X014160Y016690D02*
D03*
X013050Y024550D02*
D03*
D88*
X028880Y013500D02*
D03*
X029880D02*
D03*
X030880D02*
D03*
X031880D02*
D03*
X032880D02*
D03*
D89*
X029106Y036700D02*
D03*
X023200D02*
D03*
X024184Y034732D02*
D03*
X022216D02*
D03*
X031133Y035716D02*
D03*
X016271D02*
D03*
X032010Y015029D02*
D03*
Y016220D02*
D03*
X023960Y019080D02*
D03*
X013270Y014670D02*
D03*
Y035920D02*
D03*
X034520D02*
D03*
Y014670D02*
D03*
D90*
X027137Y036700D02*
D03*
X025168D02*
D03*
X021232D02*
D03*
X019263D02*
D03*
X028121Y034732D02*
D03*
X026153D02*
D03*
X020247D02*
D03*
X018279D02*
D03*
D91*
X023460Y019580D02*
D03*
X023960D02*
D03*
X023460Y019080D02*
D03*
Y018580D02*
D03*
X023960D02*
D03*
X023460Y018080D02*
D03*
X023960D02*
D03*
X023460Y017580D02*
D03*
D92*
X023960D02*
D03*
D93*
X026607Y027480D02*
D03*
X023793D02*
D03*
D94*
X024688Y027393D02*
D03*
X025200D02*
D03*
X025712D02*
D03*
X025456Y027787D02*
D03*
X024944D02*
D03*
D95*
X027900Y026990D02*
D03*
Y028990D02*
D03*
Y027990D02*
D03*
Y025990D02*
D03*
Y024990D02*
D03*
D96*
Y029990D02*
D03*
D97*
X014920Y033346D02*
D03*
X012720Y032222D02*
D03*
Y032784D02*
D03*
Y033346D02*
D03*
X013820Y031660D02*
D03*
X013270D02*
D03*
X014920D02*
D03*
X014370D02*
D03*
X012720D02*
D03*
X016020D02*
D03*
X015470D02*
D03*
X016020Y032222D02*
D03*
X015470D02*
D03*
X016020Y032784D02*
D03*
X015470D02*
D03*
X016020Y033346D02*
D03*
X015470D02*
D03*
X016020Y033908D02*
D03*
X015470D02*
D03*
X016020Y034470D02*
D03*
X015470Y034470D02*
D03*
X013820Y033908D02*
D03*
X012720D02*
D03*
X013270D02*
D03*
X014370D02*
D03*
X014920D02*
D03*
X012720Y034470D02*
D03*
X014370Y034470D02*
D03*
X014920D02*
D03*
X012170Y033346D02*
D03*
Y032222D02*
D03*
Y032784D02*
D03*
Y033908D02*
D03*
Y034470D02*
D03*
Y031660D02*
D03*
X014920Y032784D02*
D03*
Y032222D02*
D03*
X014370Y032230D02*
D03*
X013270D02*
D03*
X013820D02*
D03*
M02*
