G04 Layer_Color=8388736*
%FSAX24Y24*%
%MOIN*%
G70*
G01*
G75*
%ADD62R,0.0434X0.0454*%
G04:AMPARAMS|DCode=63|XSize=67.1mil|YSize=47.4mil|CornerRadius=8.9mil|HoleSize=0mil|Usage=FLASHONLY|Rotation=90.000|XOffset=0mil|YOffset=0mil|HoleType=Round|Shape=RoundedRectangle|*
%AMROUNDEDRECTD63*
21,1,0.0671,0.0295,0,0,90.0*
21,1,0.0492,0.0474,0,0,90.0*
1,1,0.0178,0.0148,0.0246*
1,1,0.0178,0.0148,-0.0246*
1,1,0.0178,-0.0148,-0.0246*
1,1,0.0178,-0.0148,0.0246*
%
%ADD63ROUNDEDRECTD63*%
G04:AMPARAMS|DCode=64|XSize=48mil|YSize=63mil|CornerRadius=9mil|HoleSize=0mil|Usage=FLASHONLY|Rotation=0.000|XOffset=0mil|YOffset=0mil|HoleType=Round|Shape=RoundedRectangle|*
%AMROUNDEDRECTD64*
21,1,0.0480,0.0450,0,0,0.0*
21,1,0.0300,0.0630,0,0,0.0*
1,1,0.0180,0.0150,-0.0225*
1,1,0.0180,-0.0150,-0.0225*
1,1,0.0180,-0.0150,0.0225*
1,1,0.0180,0.0150,0.0225*
%
%ADD64ROUNDEDRECTD64*%
G04:AMPARAMS|DCode=65|XSize=55.2mil|YSize=43.4mil|CornerRadius=12.9mil|HoleSize=0mil|Usage=FLASHONLY|Rotation=90.000|XOffset=0mil|YOffset=0mil|HoleType=Round|Shape=RoundedRectangle|*
%AMROUNDEDRECTD65*
21,1,0.0552,0.0177,0,0,90.0*
21,1,0.0295,0.0434,0,0,90.0*
1,1,0.0257,0.0089,0.0148*
1,1,0.0257,0.0089,-0.0148*
1,1,0.0257,-0.0089,-0.0148*
1,1,0.0257,-0.0089,0.0148*
%
%ADD65ROUNDEDRECTD65*%
G04:AMPARAMS|DCode=66|XSize=55.2mil|YSize=43.4mil|CornerRadius=12.9mil|HoleSize=0mil|Usage=FLASHONLY|Rotation=0.000|XOffset=0mil|YOffset=0mil|HoleType=Round|Shape=RoundedRectangle|*
%AMROUNDEDRECTD66*
21,1,0.0552,0.0177,0,0,0.0*
21,1,0.0295,0.0434,0,0,0.0*
1,1,0.0257,0.0148,-0.0089*
1,1,0.0257,-0.0148,-0.0089*
1,1,0.0257,-0.0148,0.0089*
1,1,0.0257,0.0148,0.0089*
%
%ADD66ROUNDEDRECTD66*%
G04:AMPARAMS|DCode=67|XSize=43mil|YSize=48mil|CornerRadius=12.8mil|HoleSize=0mil|Usage=FLASHONLY|Rotation=180.000|XOffset=0mil|YOffset=0mil|HoleType=Round|Shape=RoundedRectangle|*
%AMROUNDEDRECTD67*
21,1,0.0430,0.0225,0,0,180.0*
21,1,0.0175,0.0480,0,0,180.0*
1,1,0.0255,-0.0088,0.0113*
1,1,0.0255,0.0088,0.0113*
1,1,0.0255,0.0088,-0.0113*
1,1,0.0255,-0.0088,-0.0113*
%
%ADD67ROUNDEDRECTD67*%
G04:AMPARAMS|DCode=68|XSize=67.1mil|YSize=63.1mil|CornerRadius=17.8mil|HoleSize=0mil|Usage=FLASHONLY|Rotation=90.000|XOffset=0mil|YOffset=0mil|HoleType=Round|Shape=RoundedRectangle|*
%AMROUNDEDRECTD68*
21,1,0.0671,0.0276,0,0,90.0*
21,1,0.0315,0.0631,0,0,90.0*
1,1,0.0356,0.0138,0.0157*
1,1,0.0356,0.0138,-0.0157*
1,1,0.0356,-0.0138,-0.0157*
1,1,0.0356,-0.0138,0.0157*
%
%ADD68ROUNDEDRECTD68*%
G04:AMPARAMS|DCode=69|XSize=43.4mil|YSize=90.7mil|CornerRadius=12.9mil|HoleSize=0mil|Usage=FLASHONLY|Rotation=180.000|XOffset=0mil|YOffset=0mil|HoleType=Round|Shape=RoundedRectangle|*
%AMROUNDEDRECTD69*
21,1,0.0434,0.0650,0,0,180.0*
21,1,0.0177,0.0907,0,0,180.0*
1,1,0.0257,-0.0089,0.0325*
1,1,0.0257,0.0089,0.0325*
1,1,0.0257,0.0089,-0.0325*
1,1,0.0257,-0.0089,-0.0325*
%
%ADD69ROUNDEDRECTD69*%
G04:AMPARAMS|DCode=70|XSize=134mil|YSize=90.7mil|CornerRadius=24.7mil|HoleSize=0mil|Usage=FLASHONLY|Rotation=180.000|XOffset=0mil|YOffset=0mil|HoleType=Round|Shape=RoundedRectangle|*
%AMROUNDEDRECTD70*
21,1,0.1340,0.0413,0,0,180.0*
21,1,0.0846,0.0907,0,0,180.0*
1,1,0.0493,-0.0423,0.0207*
1,1,0.0493,0.0423,0.0207*
1,1,0.0493,0.0423,-0.0207*
1,1,0.0493,-0.0423,-0.0207*
%
%ADD70ROUNDEDRECTD70*%
G04:AMPARAMS|DCode=71|XSize=43.4mil|YSize=45.4mil|CornerRadius=12.9mil|HoleSize=0mil|Usage=FLASHONLY|Rotation=270.000|XOffset=0mil|YOffset=0mil|HoleType=Round|Shape=RoundedRectangle|*
%AMROUNDEDRECTD71*
21,1,0.0434,0.0197,0,0,270.0*
21,1,0.0177,0.0454,0,0,270.0*
1,1,0.0257,-0.0098,-0.0089*
1,1,0.0257,-0.0098,0.0089*
1,1,0.0257,0.0098,0.0089*
1,1,0.0257,0.0098,-0.0089*
%
%ADD71ROUNDEDRECTD71*%
G04:AMPARAMS|DCode=72|XSize=39.5mil|YSize=43.4mil|CornerRadius=11.9mil|HoleSize=0mil|Usage=FLASHONLY|Rotation=0.000|XOffset=0mil|YOffset=0mil|HoleType=Round|Shape=RoundedRectangle|*
%AMROUNDEDRECTD72*
21,1,0.0395,0.0197,0,0,0.0*
21,1,0.0157,0.0434,0,0,0.0*
1,1,0.0237,0.0079,-0.0098*
1,1,0.0237,-0.0079,-0.0098*
1,1,0.0237,-0.0079,0.0098*
1,1,0.0237,0.0079,0.0098*
%
%ADD72ROUNDEDRECTD72*%
%ADD73O,0.1064X0.0356*%
G04:AMPARAMS|DCode=74|XSize=36mil|YSize=75mil|CornerRadius=11mil|HoleSize=0mil|Usage=FLASHONLY|Rotation=270.000|XOffset=0mil|YOffset=0mil|HoleType=Round|Shape=RoundedRectangle|*
%AMROUNDEDRECTD74*
21,1,0.0360,0.0530,0,0,270.0*
21,1,0.0140,0.0750,0,0,270.0*
1,1,0.0220,-0.0265,-0.0070*
1,1,0.0220,-0.0265,0.0070*
1,1,0.0220,0.0265,0.0070*
1,1,0.0220,0.0265,-0.0070*
%
%ADD74ROUNDEDRECTD74*%
G04:AMPARAMS|DCode=75|XSize=43.4mil|YSize=67.1mil|CornerRadius=12.9mil|HoleSize=0mil|Usage=FLASHONLY|Rotation=0.000|XOffset=0mil|YOffset=0mil|HoleType=Round|Shape=RoundedRectangle|*
%AMROUNDEDRECTD75*
21,1,0.0434,0.0413,0,0,0.0*
21,1,0.0177,0.0671,0,0,0.0*
1,1,0.0257,0.0089,-0.0207*
1,1,0.0257,-0.0089,-0.0207*
1,1,0.0257,-0.0089,0.0207*
1,1,0.0257,0.0089,0.0207*
%
%ADD75ROUNDEDRECTD75*%
G04:AMPARAMS|DCode=76|XSize=48mil|YSize=54mil|CornerRadius=14mil|HoleSize=0mil|Usage=FLASHONLY|Rotation=90.000|XOffset=0mil|YOffset=0mil|HoleType=Round|Shape=RoundedRectangle|*
%AMROUNDEDRECTD76*
21,1,0.0480,0.0260,0,0,90.0*
21,1,0.0200,0.0540,0,0,90.0*
1,1,0.0280,0.0130,0.0100*
1,1,0.0280,0.0130,-0.0100*
1,1,0.0280,-0.0130,-0.0100*
1,1,0.0280,-0.0130,0.0100*
%
%ADD76ROUNDEDRECTD76*%
G04:AMPARAMS|DCode=77|XSize=48mil|YSize=48mil|CornerRadius=14mil|HoleSize=0mil|Usage=FLASHONLY|Rotation=90.000|XOffset=0mil|YOffset=0mil|HoleType=Round|Shape=RoundedRectangle|*
%AMROUNDEDRECTD77*
21,1,0.0480,0.0200,0,0,90.0*
21,1,0.0200,0.0480,0,0,90.0*
1,1,0.0280,0.0100,0.0100*
1,1,0.0280,0.0100,-0.0100*
1,1,0.0280,-0.0100,-0.0100*
1,1,0.0280,-0.0100,0.0100*
%
%ADD77ROUNDEDRECTD77*%
G04:AMPARAMS|DCode=78|XSize=71mil|YSize=39.5mil|CornerRadius=11.9mil|HoleSize=0mil|Usage=FLASHONLY|Rotation=270.000|XOffset=0mil|YOffset=0mil|HoleType=Round|Shape=RoundedRectangle|*
%AMROUNDEDRECTD78*
21,1,0.0710,0.0157,0,0,270.0*
21,1,0.0472,0.0395,0,0,270.0*
1,1,0.0237,-0.0079,-0.0236*
1,1,0.0237,-0.0079,0.0236*
1,1,0.0237,0.0079,0.0236*
1,1,0.0237,0.0079,-0.0236*
%
%ADD78ROUNDEDRECTD78*%
G04:AMPARAMS|DCode=79|XSize=39.5mil|YSize=47.4mil|CornerRadius=11.9mil|HoleSize=0mil|Usage=FLASHONLY|Rotation=270.000|XOffset=0mil|YOffset=0mil|HoleType=Round|Shape=RoundedRectangle|*
%AMROUNDEDRECTD79*
21,1,0.0395,0.0236,0,0,270.0*
21,1,0.0157,0.0474,0,0,270.0*
1,1,0.0237,-0.0118,-0.0079*
1,1,0.0237,-0.0118,0.0079*
1,1,0.0237,0.0118,0.0079*
1,1,0.0237,0.0118,-0.0079*
%
%ADD79ROUNDEDRECTD79*%
G04:AMPARAMS|DCode=80|XSize=39.5mil|YSize=71mil|CornerRadius=11.9mil|HoleSize=0mil|Usage=FLASHONLY|Rotation=270.000|XOffset=0mil|YOffset=0mil|HoleType=Round|Shape=RoundedRectangle|*
%AMROUNDEDRECTD80*
21,1,0.0395,0.0472,0,0,270.0*
21,1,0.0157,0.0710,0,0,270.0*
1,1,0.0237,-0.0236,-0.0079*
1,1,0.0237,-0.0236,0.0079*
1,1,0.0237,0.0236,0.0079*
1,1,0.0237,0.0236,-0.0079*
%
%ADD80ROUNDEDRECTD80*%
%ADD81O,0.0198X0.0907*%
%ADD82O,0.0907X0.0198*%
G04:AMPARAMS|DCode=83|XSize=67.1mil|YSize=47.4mil|CornerRadius=8.9mil|HoleSize=0mil|Usage=FLASHONLY|Rotation=0.000|XOffset=0mil|YOffset=0mil|HoleType=Round|Shape=RoundedRectangle|*
%AMROUNDEDRECTD83*
21,1,0.0671,0.0295,0,0,0.0*
21,1,0.0492,0.0474,0,0,0.0*
1,1,0.0178,0.0246,-0.0148*
1,1,0.0178,-0.0246,-0.0148*
1,1,0.0178,-0.0246,0.0148*
1,1,0.0178,0.0246,0.0148*
%
%ADD83ROUNDEDRECTD83*%
G04:AMPARAMS|DCode=84|XSize=48mil|YSize=63mil|CornerRadius=9mil|HoleSize=0mil|Usage=FLASHONLY|Rotation=90.000|XOffset=0mil|YOffset=0mil|HoleType=Round|Shape=RoundedRectangle|*
%AMROUNDEDRECTD84*
21,1,0.0480,0.0450,0,0,90.0*
21,1,0.0300,0.0630,0,0,90.0*
1,1,0.0180,0.0225,0.0150*
1,1,0.0180,0.0225,-0.0150*
1,1,0.0180,-0.0225,-0.0150*
1,1,0.0180,-0.0225,0.0150*
%
%ADD84ROUNDEDRECTD84*%
%ADD85O,0.0218X0.0631*%
G04:AMPARAMS|DCode=86|XSize=67.1mil|YSize=86.7mil|CornerRadius=18.8mil|HoleSize=0mil|Usage=FLASHONLY|Rotation=90.000|XOffset=0mil|YOffset=0mil|HoleType=Round|Shape=RoundedRectangle|*
%AMROUNDEDRECTD86*
21,1,0.0671,0.0492,0,0,90.0*
21,1,0.0295,0.0867,0,0,90.0*
1,1,0.0375,0.0246,0.0148*
1,1,0.0375,0.0246,-0.0148*
1,1,0.0375,-0.0246,-0.0148*
1,1,0.0375,-0.0246,0.0148*
%
%ADD86ROUNDEDRECTD86*%
%ADD87O,0.0867X0.0671*%
%ADD88C,0.0780*%
%ADD89C,0.0130*%
%ADD90C,0.0946*%
%ADD91C,0.0493*%
%ADD92C,0.0493*%
%ADD93O,0.0671X0.0671*%
%ADD94C,0.0360*%
%ADD95C,0.0631*%
%ADD96R,0.0631X0.0631*%
%ADD97C,0.0380*%
D62*
X024460Y028730D02*
D03*
X025700D02*
D03*
Y029570D02*
D03*
X024460D02*
D03*
D63*
X018454Y015020D02*
D03*
X017666D02*
D03*
Y015890D02*
D03*
X018454D02*
D03*
X021877Y031690D02*
D03*
X021090D02*
D03*
X021857Y027040D02*
D03*
X021070D02*
D03*
X025624Y013600D02*
D03*
X024836D02*
D03*
X018626Y027992D02*
D03*
X019414D02*
D03*
X024836Y014410D02*
D03*
X025624D02*
D03*
X019026Y031690D02*
D03*
X019814D02*
D03*
X015326Y018360D02*
D03*
X016114D02*
D03*
X013694Y028050D02*
D03*
X012906D02*
D03*
X028584Y016960D02*
D03*
X027796D02*
D03*
X028584Y016130D02*
D03*
X027796D02*
D03*
X033776Y016170D02*
D03*
X034564D02*
D03*
X035894D02*
D03*
X035106D02*
D03*
X018626Y027040D02*
D03*
X019414D02*
D03*
D64*
X025475Y020940D02*
D03*
X026175D02*
D03*
X017658Y018350D02*
D03*
X018358D02*
D03*
X017052Y025410D02*
D03*
X016352D02*
D03*
X022077Y024350D02*
D03*
X022777D02*
D03*
X021453Y018340D02*
D03*
X020753D02*
D03*
X013700Y029000D02*
D03*
X013000D02*
D03*
X014606D02*
D03*
X015306D02*
D03*
X021070Y027992D02*
D03*
X021770D02*
D03*
D65*
X026183Y020120D02*
D03*
X025357D02*
D03*
X021453Y016560D02*
D03*
X020627D02*
D03*
X018485Y017480D02*
D03*
X017658D02*
D03*
X016226Y026310D02*
D03*
X017052D02*
D03*
X022903Y023470D02*
D03*
X022077D02*
D03*
X020627Y017480D02*
D03*
X021453D02*
D03*
X021897Y029010D02*
D03*
X021070D02*
D03*
D66*
X030160Y014438D02*
D03*
Y015264D02*
D03*
X029290Y014438D02*
D03*
Y015264D02*
D03*
X031479Y026132D02*
D03*
Y026959D02*
D03*
X034709Y026132D02*
D03*
Y026959D02*
D03*
X029061Y026132D02*
D03*
Y026959D02*
D03*
X032309Y026132D02*
D03*
Y026959D02*
D03*
X031410Y033013D02*
D03*
Y032187D02*
D03*
X033990Y031017D02*
D03*
Y031843D02*
D03*
D67*
X021857Y026245D02*
D03*
X020243D02*
D03*
Y025615D02*
D03*
X021857D02*
D03*
X023937Y014435D02*
D03*
X022323D02*
D03*
Y013805D02*
D03*
X023937D02*
D03*
D68*
X012959Y027100D02*
D03*
X014141D02*
D03*
D69*
X012794Y030578D02*
D03*
X013700D02*
D03*
X014606D02*
D03*
D70*
X013700Y032822D02*
D03*
D71*
X017430Y032660D02*
D03*
Y033900D02*
D03*
D72*
X021857Y030854D02*
D03*
X021109D02*
D03*
X021483Y030066D02*
D03*
D73*
X017645Y030510D02*
D03*
Y030010D02*
D03*
Y029510D02*
D03*
Y029010D02*
D03*
X019575Y030510D02*
D03*
Y030010D02*
D03*
Y029510D02*
D03*
Y029010D02*
D03*
D74*
X015200Y022170D02*
D03*
Y022650D02*
D03*
Y023122D02*
D03*
D75*
X026170Y015740D02*
D03*
X026729D02*
D03*
X026171Y016960D02*
D03*
X026729D02*
D03*
D76*
X033122Y014636D02*
D03*
Y015620D02*
D03*
X030890Y014636D02*
D03*
Y015620D02*
D03*
D77*
X033122Y016610D02*
D03*
X030890D02*
D03*
D78*
X028447Y023361D02*
D03*
X028920D02*
D03*
X029392D02*
D03*
X029865D02*
D03*
X036006D02*
D03*
X035534D02*
D03*
X035062D02*
D03*
X034589D02*
D03*
X034117D02*
D03*
X033644D02*
D03*
X033172D02*
D03*
X032699D02*
D03*
X032227D02*
D03*
X031754D02*
D03*
X031282D02*
D03*
X030810D02*
D03*
X030337D02*
D03*
X028447Y018046D02*
D03*
X028920D02*
D03*
X029392D02*
D03*
X029865D02*
D03*
X030337D02*
D03*
X030810D02*
D03*
X031282D02*
D03*
X031754D02*
D03*
X032227D02*
D03*
X032699D02*
D03*
X033172D02*
D03*
X033644D02*
D03*
X034117D02*
D03*
X034589D02*
D03*
X035062D02*
D03*
X035534D02*
D03*
X036006D02*
D03*
D79*
X035810Y022082D02*
D03*
Y021531D02*
D03*
Y020979D02*
D03*
Y020428D02*
D03*
Y019877D02*
D03*
Y019326D02*
D03*
D80*
X027660Y023027D02*
D03*
Y022357D02*
D03*
Y021885D02*
D03*
Y021412D02*
D03*
Y020940D02*
D03*
Y020468D02*
D03*
Y019995D02*
D03*
Y019523D02*
D03*
Y019050D02*
D03*
Y018381D02*
D03*
D81*
X017424Y024205D02*
D03*
X017620D02*
D03*
X017817D02*
D03*
X018014D02*
D03*
X018211D02*
D03*
X018408D02*
D03*
X018605D02*
D03*
X018802D02*
D03*
X018998D02*
D03*
X019195D02*
D03*
X019392D02*
D03*
X019589D02*
D03*
X019786D02*
D03*
X019983D02*
D03*
X020180D02*
D03*
X020376D02*
D03*
Y019795D02*
D03*
X020180D02*
D03*
X019983D02*
D03*
X019786D02*
D03*
X019589D02*
D03*
X019392D02*
D03*
X019195D02*
D03*
X018998D02*
D03*
X018802D02*
D03*
X018605D02*
D03*
X018408D02*
D03*
X018211D02*
D03*
X018014D02*
D03*
X017817D02*
D03*
X017620D02*
D03*
X017424D02*
D03*
D82*
X021105Y023476D02*
D03*
Y023280D02*
D03*
Y023083D02*
D03*
Y022886D02*
D03*
Y022689D02*
D03*
Y022492D02*
D03*
Y022295D02*
D03*
Y022098D02*
D03*
Y021902D02*
D03*
Y021705D02*
D03*
Y021508D02*
D03*
Y021311D02*
D03*
Y021114D02*
D03*
Y020917D02*
D03*
Y020720D02*
D03*
Y020524D02*
D03*
X016695D02*
D03*
Y020720D02*
D03*
Y020917D02*
D03*
Y021114D02*
D03*
Y021311D02*
D03*
Y021508D02*
D03*
Y021705D02*
D03*
Y021902D02*
D03*
Y022098D02*
D03*
Y022295D02*
D03*
Y022492D02*
D03*
Y022689D02*
D03*
Y022886D02*
D03*
Y023083D02*
D03*
Y023280D02*
D03*
Y023476D02*
D03*
D83*
X013530Y021564D02*
D03*
Y020776D02*
D03*
X029879Y026093D02*
D03*
Y026880D02*
D03*
X030679Y026093D02*
D03*
Y026880D02*
D03*
X033109Y026093D02*
D03*
Y026880D02*
D03*
X033909Y026093D02*
D03*
Y026880D02*
D03*
X029520Y029236D02*
D03*
Y030024D02*
D03*
X033600Y029236D02*
D03*
Y030024D02*
D03*
X030300Y029236D02*
D03*
Y030024D02*
D03*
X034350Y029236D02*
D03*
Y030024D02*
D03*
X029700Y032206D02*
D03*
Y032994D02*
D03*
X030480Y032206D02*
D03*
Y032994D02*
D03*
X032326Y032152D02*
D03*
Y032939D02*
D03*
X033120Y032146D02*
D03*
Y032934D02*
D03*
X035554Y026880D02*
D03*
Y026093D02*
D03*
X022950Y026716D02*
D03*
Y027504D02*
D03*
D84*
X015220Y020820D02*
D03*
Y021520D02*
D03*
X014360D02*
D03*
Y020820D02*
D03*
X034000Y032744D02*
D03*
Y033444D02*
D03*
X034921Y032744D02*
D03*
Y033444D02*
D03*
X023010Y025990D02*
D03*
Y025290D02*
D03*
X023820Y025990D02*
D03*
Y025290D02*
D03*
D85*
X032784Y030748D02*
D03*
X032529D02*
D03*
X032273D02*
D03*
X032017D02*
D03*
X031761D02*
D03*
X031505D02*
D03*
X031249D02*
D03*
X030993D02*
D03*
X032784Y028543D02*
D03*
X032529D02*
D03*
X032273D02*
D03*
X032017D02*
D03*
X031761D02*
D03*
X031505D02*
D03*
X031249D02*
D03*
X030993D02*
D03*
D86*
X024820Y024580D02*
D03*
X014160Y017690D02*
D03*
X013050Y025550D02*
D03*
D87*
X024820Y025580D02*
D03*
X014160Y016690D02*
D03*
X013050Y024550D02*
D03*
D88*
X028880Y013500D02*
D03*
X029880D02*
D03*
X030880D02*
D03*
X031880D02*
D03*
X032880D02*
D03*
D89*
X029106Y036700D02*
D03*
X023200D02*
D03*
X024184Y034732D02*
D03*
X022216D02*
D03*
X031133Y035716D02*
D03*
X016271D02*
D03*
X032010Y015029D02*
D03*
Y016220D02*
D03*
X023960Y019080D02*
D03*
X013270Y014670D02*
D03*
Y035920D02*
D03*
X034520D02*
D03*
Y014670D02*
D03*
D90*
X027137Y036700D02*
D03*
X025168D02*
D03*
X021232D02*
D03*
X019263D02*
D03*
X028121Y034732D02*
D03*
X026153D02*
D03*
X020247D02*
D03*
X018279D02*
D03*
D91*
X023460Y019580D02*
D03*
X023960D02*
D03*
X023460Y019080D02*
D03*
Y018580D02*
D03*
X023960D02*
D03*
X023460Y018080D02*
D03*
X023960D02*
D03*
X023460Y017580D02*
D03*
D92*
X023960D02*
D03*
D93*
X026607Y027480D02*
D03*
X023793D02*
D03*
D94*
X024688Y027393D02*
D03*
X025200D02*
D03*
X025712D02*
D03*
X025456Y027787D02*
D03*
X024944D02*
D03*
D95*
X027900Y026990D02*
D03*
Y028990D02*
D03*
Y027990D02*
D03*
Y025990D02*
D03*
Y024990D02*
D03*
D96*
Y029990D02*
D03*
D97*
X014920Y033346D02*
D03*
X012720Y032222D02*
D03*
Y032784D02*
D03*
Y033346D02*
D03*
X013820Y031660D02*
D03*
X013270D02*
D03*
X014920D02*
D03*
X014370D02*
D03*
X012720D02*
D03*
X016020D02*
D03*
X015470D02*
D03*
X016020Y032222D02*
D03*
X015470D02*
D03*
X016020Y032784D02*
D03*
X015470D02*
D03*
X016020Y033346D02*
D03*
X015470D02*
D03*
X016020Y033908D02*
D03*
X015470D02*
D03*
X016020Y034470D02*
D03*
X015470Y034470D02*
D03*
X013820Y033908D02*
D03*
X012720D02*
D03*
X013270D02*
D03*
X014370D02*
D03*
X014920D02*
D03*
X012720Y034470D02*
D03*
X014370Y034470D02*
D03*
X014920D02*
D03*
X012170Y033346D02*
D03*
Y032222D02*
D03*
Y032784D02*
D03*
Y033908D02*
D03*
Y034470D02*
D03*
Y031660D02*
D03*
X014920Y032784D02*
D03*
Y032222D02*
D03*
X014370Y032230D02*
D03*
X013270D02*
D03*
X013820D02*
D03*
M02*
