M48
;Layer_Color=9474304
;FILE_FORMAT=2:4
INCH
;TYPE=PLATED
T1F00S00C0.0150
T2F00S00C0.0173
T3F00S00C0.0276
T4F00S00C0.0339
T5F00S00C0.0394
T6F00S00C0.0400
T7F00S00C0.0472
;TYPE=NON_PLATED
T8F00S00C0.0340
T9F00S00C0.0472
T10F00S00C0.1220
T11F00S00C0.1250
%
T01
X019730Y014470
X020280Y015610
X025540Y015130
X026730Y015090
X030690Y014180
X033390Y014120
X034117Y017300
X034600
X035050
X035550
X031329Y018779
X033090Y024900
X033089Y025550
X033890Y024280
X029889Y025550
X028920Y020960
X028440Y019730
X028560Y018850
X030055Y018840
X030320Y015700
X026190Y019640
X024675Y022295
X024660Y022700
X020260Y022530
X019680Y022680
X019745Y021830
X020080Y023210
X021480Y024350
X022950Y028010
X020400Y029010
X018030Y027040
X016710Y026780
X016060Y023930
X018020Y021910
X018605Y019030
X020160Y018170
X019800Y017420
X021900Y017480
X017658Y016760
X016110Y018910
X024450Y030200
X013530Y022010
X013270Y031660
X013820
X014370
X014920
X015470
Y032222
X014920
X014370Y032230
X013820
X013270
X012720Y032222
X012170
Y032784
X012720
Y033346
X012170
Y033908
X012720
X013270
X013820
X014370
X014920
X015470
Y033346
X014920
Y032784
X015470
Y034470
X014920
X014370
X012720Y034470
X012170
Y031660
X012720
X016020
Y032222
Y032784
Y033346
Y033908
Y034470
X017430Y031860
X031770Y031580
X035490Y032750
T02
X024688Y027393
X025200
X025712
X025456Y027787
X024944
T03
X023460Y017580
Y018080
Y018580
Y019080
Y019580
X023960
Y019080
Y018580
Y018080
Y017580
T04
X027900Y024990
Y025990
Y026990
Y027990
Y028990
Y029990
T05
X024820Y024580
Y025580
X023793Y027480
X026607
X013050Y025550
Y024550
X014160Y017690
Y016690
T06
X028880Y013500
X029880
X030880
X031880
X032880
T07
X018279Y034732
X020247
X021232Y036700
X019263
X025168
X027137
X028121Y034732
X026153
T08
X032010Y015029
Y016220
T09
X022216Y034732
X024184
X023200Y036700
X029106
T10
X016271Y035716
X031133
T11
X013270Y014670
X034520
X013270Y035920
X034520
M30
